<svg width="126" height="50" viewBox="0 0 126 50" fill="none" xmlns="http://www.w3.org/2000/svg">
<g clip-path="url(#clip0_262_511)">
<path d="M119.087 24.9999L125.622 9.28514C125.741 8.99892 125.709 8.6719 125.538 8.4135C125.367 8.15541 125.079 8.00024 124.771 8.00024H18.7459C11.6223 8.00612 7.79775 8.95997 7.36013 10.8374C6.75687 10.6352 6.09245 10.5311 5.385 10.5311C3.77773 10.5311 1.70242 11.4556 0.689505 13.5209C-0.253343 15.4447 -0.521016 18.8589 3.55985 24.2009C5.59091 26.8477 7.39301 28.1128 9.23046 28.1823C9.24214 28.1823 9.25351 28.183 9.26519 28.183H9.38166C10.0227 28.183 10.6278 28.0386 11.2108 27.7447C12.4665 29.8403 13.9576 31.3777 15.579 32.2481V32.998C15.579 33.5605 15.859 34.0634 16.2898 34.3697V35.5279H14.4386C13.5126 35.5279 12.7594 36.2855 12.7594 37.2171V38.106H12.6792C12.0101 38.106 11.4659 38.6534 11.4659 39.3263V40.7793C11.4659 41.4522 12.0101 41.9996 12.6792 41.9996H124.771C125.079 41.9996 125.367 41.8445 125.538 41.5861C125.709 41.328 125.741 41.0006 125.622 40.7147L119.087 24.9999Z" fill="#FF333A"/>
<path d="M36.0995 13.9314C35.2606 12.2203 33.5479 11.4587 32.231 11.4587C31.0552 11.4587 30.0691 11.7839 29.3367 12.3653C29.3472 11.9814 29.3647 11.6003 29.3647 11.2127V11.1774C29.318 10.8025 28.5724 8.92725 18.808 8.92725C8.75262 8.92725 8.23971 10.8257 8.23971 11.2124C8.23971 11.5962 8.25722 11.9743 8.26767 12.3548C7.53657 11.7795 6.55438 11.4584 5.38504 11.4584C4.05681 11.4584 2.35551 12.22 1.51653 13.9311C0.689233 15.6188 0.502691 18.6772 4.28976 23.6344C6.14227 26.0487 7.71542 27.197 9.26522 27.2557H9.3817C10.2634 27.2557 10.9595 26.8953 11.5326 26.4369C12.9358 29.0803 14.651 30.8678 16.5148 31.6736C16.5124 31.698 16.5007 31.719 16.5007 31.7443V32.9983C16.5007 33.4035 16.8151 33.7253 17.2115 33.7506V36.4555H14.4383C14.0188 36.4555 13.6811 36.7955 13.6811 37.2174V38.8228C13.6811 38.8976 13.7032 38.9653 13.7232 39.0336H12.6789C12.5157 39.0336 12.3876 39.1625 12.3876 39.3266V40.7797C12.3876 40.9438 12.5157 41.0727 12.6789 41.0727H24.9366C25.0881 41.0727 25.2279 40.9438 25.2279 40.7797V39.3266C25.2279 39.1625 25.0997 39.0336 24.9366 39.0336H23.8877C23.9089 38.9653 23.9325 38.8976 23.9344 38.8228V37.2174C23.9344 36.7955 23.5963 36.4555 23.1772 36.4555H20.3923V33.7485C20.7829 33.7173 21.0914 33.3995 21.0914 32.9986V31.7446C21.0914 31.7221 21.0806 31.7029 21.0788 31.681C22.9454 30.8776 24.6606 29.0858 26.0675 26.444C26.6376 26.8984 27.3321 27.2563 28.211 27.2563H28.3508C29.9006 27.1976 31.4852 26.0493 33.3263 23.635C37.1131 18.6778 36.9268 15.6188 36.0995 13.9314ZM28.8044 17.9215C28.9252 18.0491 29.0478 18.1629 29.1665 18.2556C29.7839 18.7477 30.6228 19.0407 31.4037 19.0407C31.9864 19.0407 32.4523 18.5718 32.4523 17.9861C32.4523 17.4004 31.9747 16.9315 31.4037 16.9315C31.2756 16.9315 30.8678 16.8727 30.518 16.6384C30.1686 16.4042 30.0054 16.0524 30.0054 15.5486C30.0054 15.1854 30.0638 14.6695 30.3782 14.2594C30.7276 13.7787 31.357 13.5444 32.219 13.5444C32.8715 13.5444 33.7688 13.9546 34.2114 14.8454C34.6776 15.7829 34.9572 18.0213 31.6597 22.3338C30.3081 24.1033 29.0964 25.0995 28.2691 25.1347C27.8158 25.1514 27.3979 24.8433 27.002 24.447C27.8038 22.4902 28.4052 20.2802 28.8044 17.9215ZM7.09802 16.6384C6.7486 16.8845 6.34049 16.9315 6.21234 16.9315C5.62966 16.9315 5.16377 17.4004 5.16377 17.9861C5.16377 18.5718 5.64134 19.0407 6.21234 19.0407C6.98124 19.0407 7.82022 18.7477 8.4496 18.2556C8.56485 18.1657 8.68378 18.0553 8.80117 17.9323C9.20007 20.286 9.79903 22.4917 10.5981 24.4411C10.2013 24.8371 9.78889 25.1514 9.33498 25.1347C8.50769 25.1112 7.30761 24.115 5.94435 22.3338C2.64684 18.021 2.9265 15.7946 3.3927 14.8454C3.83555 13.9546 4.7326 13.5444 5.38535 13.5444C6.39888 13.5444 7.61094 13.8959 7.61094 15.5483C7.61094 16.0521 7.44775 16.4038 7.09833 16.6381L7.09802 16.6384Z" fill="white"/>
<path d="M43.6181 26.3117L43.2056 24.4538H41.0123L40.6165 26.3117H38.4395L41.0123 15.2478H43.2883L45.9272 26.3117H43.6184H43.6181ZM42.8759 22.7454C42.6451 21.6837 42.414 20.6387 42.2493 19.5605C42.1832 19.0796 42.1174 18.582 42.0679 18.1007C41.969 19.6601 41.6555 21.2024 41.3424 22.7451H42.8762L42.8759 22.7454Z" fill="white"/>
<path d="M51.2105 17.7524C50.7652 17.371 50.2538 17.039 49.6438 17.039C49.0006 17.039 48.5553 17.4702 48.5553 18.1171C48.5553 20.0248 51.8537 19.9915 51.8537 23.0768C51.8537 24.9845 50.7157 26.4938 48.7203 26.4938C48.0442 26.4938 47.3844 26.3114 46.8236 25.9297V23.8396C47.3183 24.1713 47.8297 24.4368 48.4397 24.4368C49.1819 24.4368 49.7262 23.9722 49.7262 23.2094C49.7262 23.0103 49.6933 22.828 49.6106 22.6453C49.4127 22.2305 48.8024 21.8658 48.4397 21.617C47.2028 20.7543 46.4111 19.9581 46.4111 18.3493C46.4111 16.6075 47.4173 15.0815 49.2809 15.0815C50.023 15.0815 50.5673 15.2475 51.2105 15.6123V17.7524Z" fill="white"/>
<path d="M56.9561 26.3117L54.9275 20.6884V26.3117H52.7505V15.2478H54.9275V20.1908L56.7582 15.2478H58.9847L56.9561 20.3568L59.2321 26.3117H56.9561Z" fill="white"/>
<path d="M66.565 20.1577C66.5816 20.4396 66.5816 20.7218 66.5816 21.0037C66.5816 21.7832 66.5484 22.5794 66.3836 23.3426C66.0207 25.0512 64.9159 26.494 63.0523 26.494C60.0836 26.494 59.1436 23.2761 59.1436 20.821C59.1436 18.283 59.9681 15.0818 63.0523 15.0818C64.7346 15.0818 65.8231 16.1435 66.2847 17.7026L64.1737 18.5319C64.0748 17.8849 63.8934 17.0059 63.0686 17.0059C61.5843 17.0059 61.4687 19.7429 61.4687 20.7879C61.4687 21.8827 61.5182 24.5035 63.0849 24.5035C64.2724 24.5035 64.4042 23.0106 64.4208 22.1148H63.0354V20.1574H66.5647L66.565 20.1577Z" fill="white"/>
<path d="M71.9193 26.3117L71.5069 24.4538H69.3136L68.9178 26.3117H66.7407L69.3136 15.2478H71.5896L74.2285 26.3117H71.9193ZM71.1771 22.7454C70.9464 21.6837 70.7153 20.6387 70.5505 19.5605C70.4845 19.0796 70.4187 18.582 70.3692 18.1007C70.2703 19.6601 69.9568 21.2024 69.6436 22.7451H71.1775L71.1771 22.7454Z" fill="white"/>
<path d="M82.579 26.3118L82.0347 18.3496C81.9852 19.2123 81.8534 20.0582 81.705 20.9039L80.732 26.3115H79.0663L78.0439 21.302C77.9283 20.7546 77.8131 20.2072 77.7636 19.6431L77.6318 18.3493L77.2854 26.3115H74.96L75.9166 15.2476H78.7864L79.8583 21.783L80.7323 15.2476H83.6681L84.8061 26.3115H82.5796L82.579 26.3118Z" fill="white"/>
<path d="M88.031 15.2478C88.6082 15.2478 89.5815 15.2809 90.3399 16.0273C90.9337 16.6078 91.2471 17.5202 91.2471 18.416C91.2471 18.9634 91.1316 19.5108 90.7357 19.9917C90.5544 20.2075 90.2738 20.4727 89.8617 20.6387C90.5707 20.9042 90.9174 21.4018 91.0492 21.6172C91.3627 22.1479 91.4284 22.7618 91.4284 23.1766C91.4284 24.0059 91.2139 24.7523 90.6039 25.3662C89.7628 26.2122 88.6577 26.3117 88.0144 26.3117H85.7056V15.2478H88.031ZM87.8826 19.7927C88.229 19.776 88.6248 19.6267 88.8393 19.4113C89.1527 19.096 89.1856 18.6317 89.1856 18.3829C89.1856 18.1174 89.1527 17.7029 88.8393 17.3876C88.658 17.2053 88.3611 17.056 87.8826 17.056V19.7927ZM87.8826 24.4207C88.229 24.4207 88.6248 24.3045 88.8722 24.0723C89.103 23.8566 89.2846 23.4752 89.2846 22.9942C89.2846 22.4635 89.1033 22.0654 88.8559 21.833C88.5919 21.6009 88.1961 21.4846 87.8829 21.4846V24.4207H87.8826Z" fill="white"/>
<path d="M92.4805 26.3117V15.2478H94.6575V24.2383H96.9335V26.3117H92.4805Z" fill="white"/>
<path d="M97.8301 26.3117V15.2478H102.2V17.3048H100.007V19.6935H101.937V21.7835H100.007V24.2717H102.234V26.312L97.8301 26.3117Z" fill="white"/>
<path d="M107.39 26.3117L105.46 21.2194V26.3117H103.283V15.2478H105.642C106.45 15.2478 107.34 15.3143 108.033 15.7785C108.907 16.359 109.336 17.4374 109.336 18.4657C109.336 19.7265 108.841 20.6223 107.769 21.2856L109.682 26.3117H107.39H107.39ZM105.46 20.0084C105.576 20.0251 105.708 20.0251 105.823 20.0251C106.763 20.0251 107.225 19.3782 107.225 18.4824C107.225 17.5867 106.829 16.9728 105.873 16.9728H105.46V20.0084Z" fill="white"/>
<path d="M114.966 17.7524C114.521 17.371 114.009 17.039 113.399 17.039C112.756 17.039 112.311 17.4702 112.311 18.1171C112.311 20.0248 115.609 19.9915 115.609 23.0768C115.609 24.9845 114.471 26.4938 112.476 26.4938C111.8 26.4938 111.14 26.3114 110.579 25.9297V23.8396C111.074 24.1713 111.585 24.4368 112.195 24.4368C112.937 24.4368 113.482 23.9722 113.482 23.2094C113.482 23.0103 113.449 22.828 113.366 22.6453C113.168 22.2305 112.558 21.8658 112.195 21.617C110.958 20.7543 110.167 19.9581 110.167 18.3493C110.167 16.6075 111.173 15.0815 113.036 15.0815C113.778 15.0815 114.323 15.2475 114.966 15.6123V17.7524Z" fill="white"/>
<path d="M117.294 18.1741C118.085 18.1741 118.726 17.5293 118.726 16.734C118.726 15.9387 118.085 15.2939 117.294 15.2939C116.503 15.2939 115.862 15.9387 115.862 16.734C115.862 17.5293 116.503 18.1741 117.294 18.1741Z" fill="white"/>
<path d="M45.5825 34.8987V29.5381H48.2033C49.1781 29.5381 49.7215 30.1492 49.7215 30.9043C49.7215 31.5796 49.29 32.0297 48.7946 32.1341C49.3619 32.2225 49.8253 32.7931 49.8253 33.4521C49.8253 34.2802 49.274 34.899 48.2752 34.899L45.5825 34.8987ZM46.5174 31.7564H48.0116C48.491 31.7564 48.7626 31.4668 48.7626 31.0653C48.7626 30.6638 48.491 30.3658 48.0116 30.3658H46.5174V31.7564ZM46.5174 34.0712H48.0515C48.5629 34.0712 48.8665 33.7899 48.8665 33.3235C48.8665 32.9217 48.5869 32.5842 48.0515 32.5842H46.5174V34.0712Z" fill="white"/>
<path d="M50.9199 34.8987V29.5381H54.5715V30.3658H51.8548V31.7564H54.5155V32.5842H51.8548V34.0712H54.5715V34.899L50.9199 34.8987Z" fill="white"/>
<path d="M55.8662 33.4199C56.2337 33.8137 56.809 34.1595 57.5521 34.1595C58.3192 34.1595 58.6228 33.7815 58.6228 33.4282C58.6228 32.9457 58.0555 32.8014 57.4083 32.6326C56.5374 32.4156 55.5143 32.1585 55.5143 31.0253C55.5143 30.1413 56.2893 29.4583 57.4559 29.4583C58.2869 29.4583 58.9581 29.7231 59.4535 30.2056L58.9181 30.9048C58.5026 30.4869 57.9353 30.294 57.3757 30.294C56.8244 30.294 56.4728 30.5592 56.4728 30.9611C56.4728 31.3789 57.0162 31.5156 57.6474 31.676C58.5263 31.9013 59.573 32.1742 59.573 33.3398C59.573 34.2319 58.9498 34.995 57.5115 34.995C56.5287 34.995 55.8176 34.6497 55.3462 34.1431L55.8656 33.4199H55.8662Z" fill="white"/>
<path d="M61.7869 34.8987V30.3658H60.1729V29.5381H64.3358V30.3658H62.722V34.8987H61.7869Z" fill="white"/>
<path d="M67.2593 32.2226C67.2593 30.5751 68.4818 29.4497 70.0159 29.4497C71.1349 29.4497 71.798 30.0123 72.1976 30.6552L71.3982 31.065C71.1425 30.6227 70.6312 30.2855 70.0159 30.2855C69.0012 30.2855 68.2181 31.0972 68.2181 32.2226C68.2181 33.348 69.0012 34.1596 70.0159 34.1596C70.6312 34.1596 71.1425 33.8301 71.3982 33.3801L72.1976 33.79C71.7901 34.4329 71.1349 34.9951 70.0159 34.9951C68.4818 34.9951 67.2593 33.87 67.2593 32.2226Z" fill="white"/>
<path d="M76.8397 34.8987L76.4485 33.87H73.9232L73.532 34.8987H72.5093L74.6027 29.5381H75.7696L77.863 34.8987H76.8403H76.8397ZM75.1857 30.334L74.1869 33.0426H76.1845L75.1857 30.334Z" fill="white"/>
<path d="M78.7013 33.4199C79.0689 33.8137 79.6442 34.1595 80.3873 34.1595C81.1543 34.1595 81.458 33.7815 81.458 33.4282C81.458 32.9457 80.8903 32.8014 80.2434 32.6326C79.3725 32.4156 78.3497 32.1585 78.3497 31.0253C78.3497 30.1413 79.1245 29.4583 80.2911 29.4583C81.1224 29.4583 81.7935 29.7231 82.2889 30.2056L81.7536 30.9048C81.3378 30.4869 80.7708 30.294 80.2112 30.294C79.6598 30.294 79.3083 30.5592 79.3083 30.9611C79.3083 31.3789 79.8516 31.5156 80.4828 31.676C81.3615 31.9013 82.4085 32.1742 82.4085 33.3398C82.4085 34.2319 81.7852 34.995 80.347 34.995C79.3642 34.995 78.6528 34.6497 78.1816 34.1431L78.7007 33.4199H78.7013Z" fill="white"/>
<path d="M83.4312 34.8987V29.5381H84.366V34.8987H83.4312Z" fill="white"/>
<path d="M89.3759 34.8987L86.5953 30.9927V34.8987H85.6602V29.5381H86.619L89.3437 33.3396V29.5381H90.2788V34.8987H89.3759Z" fill="white"/>
<path d="M94.0582 29.4497C95.6562 29.4497 96.7828 30.623 96.7828 32.2226C96.7828 33.8221 95.6562 34.9951 94.0582 34.9951C92.4601 34.9951 91.3335 33.8218 91.3335 32.2226C91.3335 30.6233 92.4601 29.4497 94.0582 29.4497ZM94.0582 30.2858C92.9792 30.2858 92.2923 31.1139 92.2923 32.2229C92.2923 33.3239 92.9792 34.1599 94.0582 34.1599C95.1286 34.1599 95.824 33.3239 95.824 32.2229C95.824 31.1139 95.1286 30.2858 94.0582 30.2858Z" fill="white"/>
<path d="M100.954 29.7634C100.698 29.9161 100.435 30.2456 100.378 30.5185C100.402 30.5108 100.466 30.5024 100.514 30.5024C100.786 30.5024 100.994 30.7114 100.994 31.0087C100.994 31.3061 100.746 31.5555 100.45 31.5555C100.123 31.5555 99.8271 31.2903 99.8271 30.8242C99.8271 30.2697 100.139 29.7714 100.578 29.458L100.954 29.7634Z" fill="white"/>
<path d="M102 34.8986V34.1593C104.069 32.5838 104.876 31.885 104.876 31.1135C104.876 30.551 104.397 30.2938 103.91 30.2938C103.286 30.2938 102.807 30.551 102.471 30.9367L101.928 30.3179C102.399 29.747 103.15 29.458 103.893 29.458C104.924 29.458 105.827 30.0447 105.827 31.1135C105.827 32.102 104.924 32.986 103.494 34.0709H105.859V34.8986H101.999H102Z" fill="white"/>
<path d="M107.21 33.5083C107.553 33.9101 108.121 34.1592 108.688 34.1592C109.391 34.1592 109.799 33.8375 109.799 33.3395C109.799 32.8088 109.375 32.5841 108.616 32.5841C108.392 32.5841 108.08 32.5841 108.001 32.5921V31.7483C108.096 31.7563 108.408 31.7563 108.616 31.7563C109.239 31.7563 109.711 31.5394 109.711 31.0491C109.711 30.5509 109.231 30.2937 108.632 30.2937C108.088 30.2937 107.641 30.5027 107.257 30.8884L106.778 30.3021C107.185 29.8196 107.832 29.4583 108.719 29.4583C109.87 29.4583 110.645 30.0047 110.645 30.9048C110.645 31.62 110.038 32.0379 109.486 32.1347C110.006 32.1829 110.725 32.6088 110.725 33.4366C110.725 34.3447 109.95 34.9956 108.719 34.9956C107.768 34.9956 107.065 34.6099 106.706 34.1277L107.209 33.5089L107.21 33.5083Z" fill="white"/>
<path d="M25.8036 14.511L25.0031 13.4048V14.511H24.3457V12.3279H25.0227L25.7778 13.3624V12.3279H26.4352V14.511H25.8036Z" fill="#FF333A"/>
<path d="M26.7871 14.511V12.3279H27.757C28.4405 12.3279 28.9482 12.7207 28.9482 13.4177C28.9482 14.1147 28.4405 14.511 27.7604 14.511H26.7871ZM28.2807 13.4177C28.2807 13.1232 28.1113 12.9037 27.7601 12.9037H27.4445V13.9348H27.757C28.0855 13.9348 28.2807 13.6925 28.2807 13.4177Z" fill="#FF333A"/>
<path d="M13.7053 25.4305V22.7983C19.3495 18.6927 20.4042 17.7889 20.4042 16.4731C20.4042 15.5891 19.5646 15.1177 18.6073 15.1177C17.162 15.1177 16.0683 15.6676 15.131 16.5516L13.2754 14.3122C14.6623 12.7798 16.7324 12.1316 18.549 12.1316C21.6154 12.1316 23.8222 13.8603 23.8222 16.4728C23.8222 18.4961 22.3963 20.205 19.1544 22.4837H23.9199V25.4302H13.7053V25.4305Z" fill="#FF333A"/>
</g>
<defs>
<clipPath id="clip0_262_511">
<rect width="126" height="34" fill="white" transform="translate(0 8)"/>
</clipPath>
</defs>
</svg>
