<?xml version="1.0" encoding="utf-8"?>
<!-- Generator: Adobe Illustrator 28.2.0, SVG Export Plug-In . SVG Version: 6.00 Build 0)  -->
<svg version="1.1" id="Layer_1" xmlns:v="https://vecta.io/nano"
	 xmlns="http://www.w3.org/2000/svg" xmlns:xlink="http://www.w3.org/1999/xlink" x="0px" y="0px" viewBox="0 0 100 40"
	 style="enable-background:new 0 0 100 40;" xml:space="preserve">
<style type="text/css">
	.st0{fill:#C4A776;}
</style>
<g>
	<g>
		<path class="st0" d="M44.74,21.74c-0.37,0.04-0.72,0.09-1.08,0.13v-8.59h0.92c0.03,0.26,0.05,0.51,0.08,0.79
			c0.11-0.11,0.19-0.22,0.29-0.31c0.85-0.84,2.08-0.73,2.74-0.3c0.4,0.27,0.65,0.65,0.79,1.1c0.37,1.21,0.41,2.43-0.09,3.62
			c-0.28,0.68-0.77,1.16-1.51,1.31c-0.68,0.13-1.34,0.06-1.9-0.4c-0.04-0.03-0.08-0.07-0.11-0.1c-0.03-0.03-0.05-0.08-0.08-0.11
			c-0.01,0.01-0.03,0.02-0.04,0.03V21.74z M44.73,16.42c0,0.46,0,0.93,0,1.39c0,0.06,0.01,0.13,0.05,0.18
			c0.38,0.56,1.1,0.81,1.74,0.61c0.5-0.15,0.75-0.53,0.9-0.99c0.16-0.53,0.18-1.07,0.15-1.61c-0.02-0.43-0.08-0.86-0.25-1.26
			c-0.32-0.72-0.98-0.87-1.57-0.66c-0.41,0.14-0.7,0.44-0.95,0.78c-0.04,0.05-0.06,0.13-0.06,0.2
			C44.73,15.5,44.73,15.96,44.73,16.42"/>
		<path class="st0" d="M59.55,13.27c0.29,0,0.58,0,0.86,0c0.02,0,0.06,0.07,0.06,0.11c0.03,0.22,0.04,0.44,0.07,0.69
			c0.04-0.05,0.07-0.08,0.1-0.12c0.78-0.94,1.96-1,2.76-0.6c0.49,0.24,0.76,0.67,0.94,1.17c0.18,0.49,0.25,0.99,0.26,1.51
			c0.02,0.66-0.02,1.32-0.26,1.94c-0.21,0.54-0.52,1.01-1.04,1.3c-0.68,0.38-1.96,0.41-2.64-0.37c-0.01-0.01-0.02-0.01-0.05-0.04
			v2.87c-0.36,0.04-0.71,0.09-1.07,0.13V13.27z M60.62,16.42c0,0.42,0.01,0.84,0,1.26c-0.01,0.19,0.06,0.33,0.18,0.46
			c0.6,0.69,1.98,0.78,2.43-0.32c0.04-0.11,0.08-0.22,0.12-0.34c0.14-0.5,0.15-1,0.12-1.51c-0.02-0.43-0.08-0.85-0.25-1.25
			c-0.28-0.62-0.86-0.88-1.51-0.69c-0.43,0.13-0.73,0.43-0.99,0.78c-0.05,0.07-0.08,0.17-0.08,0.25
			C60.61,15.52,60.62,15.97,60.62,16.42"/>
		<path class="st0" d="M56.47,18.79c-0.08,0.24-0.16,0.49-0.24,0.72c-0.49,0.04-0.93-0.28-1.23-0.91C55,18.64,55,18.66,54.99,18.67
			c-0.42,0.59-1.01,0.85-1.72,0.86c-0.4,0.01-0.79-0.04-1.14-0.24c-0.66-0.38-0.91-0.99-0.88-1.72c0.04-0.98,0.66-1.56,1.6-1.78
			c0.32-0.08,0.66-0.1,0.99-0.12c0.34-0.02,0.68,0,1.04,0c0-0.42,0.06-0.84-0.18-1.21c-0.19-0.31-0.51-0.4-0.84-0.43
			c-0.61-0.06-1.2,0.09-1.77,0.27c-0.04,0.01-0.08,0.02-0.13,0.04c-0.09-0.26-0.18-0.51-0.27-0.79c0.28-0.08,0.55-0.17,0.83-0.24
			c0.62-0.15,1.25-0.22,1.89-0.12c0.92,0.15,1.51,0.79,1.54,1.72c0.03,1.01,0.01,2.03,0.02,3.04c0,0.08,0,0.16,0.01,0.24
			c0.02,0.25,0.15,0.44,0.37,0.55C56.39,18.75,56.43,18.77,56.47,18.79 M54.89,16.35c-0.51,0.03-1,0.03-1.47,0.1
			c-0.51,0.08-0.9,0.35-0.98,0.9c-0.03,0.22-0.02,0.46,0.02,0.68c0.07,0.37,0.32,0.59,0.68,0.67c0.43,0.09,0.84,0.02,1.19-0.25
			c0.35-0.27,0.62-0.58,0.57-1.09C54.86,17.04,54.89,16.71,54.89,16.35"/>
		<path class="st0" d="M25.5,14.32c-0.09-0.25-0.17-0.51-0.27-0.79c0.36-0.1,0.71-0.21,1.06-0.28c0.59-0.13,1.18-0.17,1.78-0.04
			c0.83,0.18,1.36,0.78,1.41,1.63c0.03,0.49,0.02,0.98,0.02,1.48c0,0.55,0.01,1.1,0,1.64c-0.01,0.39,0.1,0.7,0.51,0.84
			c-0.08,0.24-0.15,0.47-0.23,0.7c-0.01,0.02-0.07,0.04-0.1,0.03c-0.51-0.07-0.9-0.3-1.08-0.8c-0.01-0.02-0.02-0.04-0.03-0.07
			c-0.11,0.12-0.2,0.24-0.31,0.34c-0.47,0.44-1.05,0.57-1.67,0.54c-0.5-0.02-0.95-0.17-1.31-0.54c-0.27-0.28-0.43-0.62-0.47-1.01
			c-0.07-0.6,0.03-1.16,0.47-1.61c0.34-0.34,0.76-0.53,1.22-0.61c0.3-0.05,0.6-0.08,0.9-0.09c0.33-0.02,0.67,0,1.02,0
			c0-0.41,0.05-0.81-0.15-1.17c-0.19-0.34-0.52-0.43-0.87-0.47c-0.61-0.06-1.19,0.09-1.77,0.27c-0.03,0.01-0.06,0.02-0.1,0.03
			C25.53,14.32,25.52,14.32,25.5,14.32 M28.43,16.4c-0.43,0-0.83,0-1.24,0c-0.09,0-0.18,0.02-0.27,0.05
			c-0.85,0.2-1.1,0.81-0.92,1.59c0.08,0.36,0.32,0.58,0.68,0.65c0.54,0.11,1.01-0.03,1.4-0.42c0.24-0.24,0.41-0.51,0.37-0.89
			c-0.03-0.28-0.01-0.57-0.01-0.85V16.4z"/>
		<path class="st0" d="M67.58,13.55c0.45-0.17,0.9-0.29,1.36-0.36c0.5-0.07,1-0.09,1.49,0.02c0.78,0.17,1.29,0.72,1.39,1.52
			c0.02,0.16,0.03,0.31,0.03,0.47c0,0.92,0,1.83,0,2.75c0,0.11,0.01,0.22,0.03,0.33c0.05,0.26,0.23,0.42,0.48,0.51
			c-0.08,0.25-0.16,0.49-0.24,0.73c-0.52,0.02-0.89-0.25-1.2-0.86c-0.14,0.14-0.26,0.29-0.42,0.42c-0.46,0.38-1,0.48-1.57,0.45
			c-0.46-0.02-0.88-0.15-1.22-0.47c-0.43-0.39-0.59-0.9-0.57-1.47c0.04-1.17,0.85-1.67,1.72-1.84c0.31-0.06,0.62-0.08,0.93-0.09
			c0.32-0.01,0.64,0,0.98,0c0-0.35,0.04-0.69-0.08-1.02c-0.15-0.44-0.51-0.58-0.93-0.63c-0.59-0.06-1.15,0.08-1.7,0.24
			c-0.06,0.02-0.13,0.04-0.21,0.07C67.76,14.07,67.67,13.82,67.58,13.55 M70.77,16.37c-0.51,0.01-1.01-0.04-1.5,0.07
			c-0.48,0.11-0.85,0.35-0.96,0.87c-0.05,0.23-0.04,0.46,0.01,0.69c0.09,0.38,0.32,0.61,0.7,0.68c0.74,0.14,1.35-0.2,1.73-0.89
			c0.01-0.02,0.02-0.04,0.02-0.06C70.77,17.29,70.77,16.84,70.77,16.37"/>
		<path class="st0" d="M35.27,22.65c3.56,0,7.13,0,10.69,0c0.11,0,0.24-0.02,0.27,0.11c0.03,0.13,0.02,0.27,0,0.41
			c-0.01,0.04-0.09,0.07-0.15,0.1c-0.04,0.02-0.09,0-0.14,0H24.59c-0.29,0-0.43-0.23-0.29-0.49c0.03-0.05,0.11-0.09,0.17-0.11
			c0.04-0.02,0.08,0,0.13,0H35.27z"/>
		<path class="st0" d="M61.91,22.65c3.56,0,7.13,0,10.69,0c0.11,0,0.24-0.01,0.27,0.11c0.03,0.13,0.02,0.27,0,0.41
			c-0.01,0.04-0.09,0.07-0.15,0.1c-0.04,0.02-0.09,0-0.14,0H51.22c-0.29,0-0.43-0.23-0.29-0.49c0.03-0.05,0.11-0.09,0.17-0.11
			c0.04-0.02,0.08,0,0.13,0H61.91z"/>
		<path class="st0" d="M33.2,14.1h-1.09v-0.83h1.09c0-0.07,0-0.12,0-0.17c0.01-0.33-0.02-0.67,0.03-0.99
			c0.1-0.76,0.64-1.28,1.43-1.4c0.65-0.1,1.28,0,1.89,0.26c0.01,0,0.02,0.01,0.04,0.03c-0.11,0.25-0.22,0.51-0.32,0.75
			c-0.27-0.06-0.53-0.14-0.79-0.18c-0.19-0.03-0.38-0.02-0.57,0c-0.38,0.05-0.57,0.26-0.62,0.64c-0.01,0.06-0.01,0.13-0.01,0.19
			c0,0.28,0,0.57,0,0.87h1.48c-0.04,0.28-0.08,0.55-0.12,0.83h-1.36v5.29H33.2V14.1z"/>
		<path class="st0" d="M38.48,14.1h-1.09v-0.83h1.09c0-0.06,0-0.12,0-0.17c0.01-0.36-0.01-0.74,0.05-1.09
			c0.12-0.71,0.67-1.19,1.42-1.3c0.65-0.09,1.28,0,1.88,0.26c0.01,0,0.02,0.01,0.04,0.03c-0.11,0.25-0.22,0.51-0.32,0.75
			c-0.27-0.06-0.53-0.14-0.8-0.18c-0.19-0.03-0.39-0.02-0.58,0.01c-0.35,0.05-0.55,0.25-0.58,0.59c-0.03,0.36-0.01,0.73-0.01,1.1
			h1.46c-0.04,0.28-0.08,0.55-0.12,0.83h-1.37v5.29h-1.07V14.1z"/>
		<path class="st0" d="M35.91,28.31h-0.33v-2.95h0.28c0.01,0.15,0.02,0.29,0.03,0.47c0.04-0.05,0.07-0.09,0.1-0.12
			c0.23-0.28,0.51-0.44,0.88-0.42c0.29,0.02,0.49,0.16,0.61,0.42c0.02,0.04,0.04,0.08,0.04,0.11c0.15-0.13,0.27-0.28,0.43-0.39
			c0.56-0.37,1.19-0.07,1.26,0.6c0.02,0.21,0.01,0.43,0.02,0.65c0,0.49,0,0.98,0,1.48v0.14H38.9v-0.16c0-0.63,0-1.26,0-1.88
			c0-0.08,0-0.16-0.01-0.24c-0.05-0.37-0.33-0.55-0.68-0.43c-0.29,0.09-0.46,0.32-0.61,0.56c-0.02,0.03-0.01,0.09-0.01,0.14
			c0,0.62,0,1.24,0,1.86v0.16h-0.34v-0.14c0-0.63,0-1.26,0-1.9c0-0.06,0-0.11,0-0.17c-0.03-0.47-0.41-0.68-0.83-0.45
			c-0.21,0.11-0.35,0.3-0.47,0.49c-0.02,0.04-0.02,0.09-0.02,0.13c0,0.63,0,1.26,0,1.88V28.31z"/>
		<path class="st0" d="M46.78,27.13c-0.47-0.33-0.62-0.84-0.37-1.31c0.18-0.34,0.48-0.49,0.85-0.52c0.3-0.02,0.59-0.02,0.89-0.05
			c0.18-0.02,0.35-0.09,0.54-0.14c0.03,0.09,0.06,0.2,0.1,0.32c-0.26,0.03-0.51,0.05-0.76,0.08c0.02,0.01,0.03,0.03,0.04,0.04
			c0.36,0.21,0.46,0.61,0.37,1.01c-0.08,0.38-0.38,0.65-0.79,0.69c-0.19,0.02-0.39-0.01-0.58-0.01c-0.04,0-0.09,0.01-0.13,0.03
			c-0.12,0.09-0.18,0.2-0.15,0.35c0.03,0.15,0.15,0.21,0.28,0.22c0.22,0.02,0.43,0.01,0.65,0.02c0.14,0.01,0.28,0.02,0.41,0.06
			c0.32,0.09,0.53,0.34,0.55,0.63c0.02,0.37-0.14,0.64-0.47,0.78c-0.36,0.15-0.74,0.16-1.13,0.12c-0.15-0.01-0.3-0.04-0.45-0.09
			c-0.33-0.11-0.49-0.38-0.47-0.74h0.29c0.01,0.02,0.02,0.04,0.02,0.07c0.02,0.26,0.17,0.41,0.42,0.45
			c0.34,0.06,0.68,0.07,1.02-0.02c0.32-0.08,0.48-0.33,0.41-0.61c-0.05-0.22-0.21-0.32-0.41-0.34c-0.23-0.03-0.46-0.02-0.68-0.03
			c-0.13-0.01-0.26-0.01-0.38-0.05c-0.43-0.13-0.53-0.58-0.19-0.88C46.71,27.19,46.74,27.17,46.78,27.13 M47.39,27.04
			c0.47,0,0.74-0.26,0.74-0.72c0-0.49-0.26-0.76-0.74-0.76c-0.47,0-0.74,0.27-0.74,0.74C46.65,26.76,46.92,27.04,47.39,27.04"/>
		<path class="st0" d="M58.58,25.36c-0.17,0.69-0.33,1.36-0.5,2.03c-0.07,0.28-0.14,0.55-0.2,0.83c-0.02,0.07-0.05,0.1-0.13,0.1
			c-0.08,0-0.15,0-0.23,0c-0.07,0-0.12-0.05-0.14-0.11c-0.1-0.39-0.2-0.79-0.29-1.18c-0.11-0.43-0.21-0.86-0.34-1.3
			c-0.06,0.24-0.12,0.47-0.18,0.71c-0.15,0.58-0.29,1.16-0.43,1.74c-0.03,0.11-0.07,0.14-0.19,0.14c-0.06,0-0.11,0-0.18,0
			c-0.07,0-0.13-0.05-0.14-0.11c-0.24-0.95-0.47-1.89-0.71-2.84h0.35c0.21,0.88,0.41,1.76,0.62,2.64h0.02
			c0.17-0.67,0.34-1.35,0.52-2.02c0.05-0.18,0.09-0.36,0.14-0.54c0.02-0.06,0.04-0.09,0.11-0.09c0.29-0.01,0.29-0.01,0.36,0.28
			c0.19,0.76,0.38,1.51,0.57,2.27c0.01,0.04,0.02,0.07,0.04,0.14c0.21-0.91,0.42-1.79,0.62-2.67H58.58z"/>
		<path class="st0" d="M30.34,26.52c-0.21,0-0.4-0.01-0.6,0c-0.12,0.01-0.18-0.01-0.2-0.15c-0.01-0.04,0-0.09,0-0.14h1.13
			c0,0.04,0.01,0.08,0.01,0.12c0,0.53,0,1.06,0,1.59c0,0.09-0.03,0.14-0.11,0.18c-0.41,0.2-0.84,0.3-1.31,0.24
			c-0.56-0.08-0.95-0.38-1.15-0.9c-0.26-0.68-0.28-1.37-0.02-2.05c0.38-1.01,1.53-1.35,2.41-0.73c0.03,0.02,0.07,0.05,0.11,0.09
			c-0.07,0.07-0.14,0.14-0.19,0.2c-0.15-0.08-0.29-0.17-0.44-0.23c-0.65-0.24-1.31,0.07-1.55,0.76c-0.22,0.62-0.21,1.25,0.03,1.87
			c0.21,0.56,0.72,0.81,1.34,0.69c0.16-0.03,0.31-0.09,0.46-0.14c0.03-0.01,0.07-0.07,0.07-0.11
			C30.34,27.39,30.34,26.96,30.34,26.52"/>
		<path class="st0" d="M67.36,25.61v-1.46c0-0.02,0.02-0.03,0.03-0.03c0.09,0.01,0.18,0.02,0.27,0.03c0.01,0,0.03,0.01,0.03,0.03
			v4.1c0,0.02-0.01,0.03-0.03,0.03h-0.22c-0.02,0-0.03-0.01-0.03-0.03c-0.01-0.1-0.02-0.2-0.03-0.32c0-0.03-0.04-0.04-0.05-0.02
			c0,0,0,0,0,0c-0.45,0.58-1.36,0.54-1.73-0.1c-0.12-0.2-0.18-0.43-0.2-0.67c-0.04-0.42-0.03-0.84,0.16-1.23
			c0.35-0.73,1.14-0.88,1.75-0.34c0.01,0,0.01,0.01,0.02,0.01C67.33,25.65,67.36,25.63,67.36,25.61 M67.36,26.8
			c0-0.23,0-0.46,0-0.69c0-0.04,0-0.1-0.03-0.13c-0.2-0.27-0.46-0.43-0.81-0.41c-0.32,0.02-0.53,0.2-0.65,0.48
			c-0.21,0.53-0.21,1.07,0.01,1.6c0.18,0.42,0.61,0.57,1.02,0.37c0.28-0.14,0.46-0.35,0.46-0.7v0
			C67.36,27.15,67.36,26.98,67.36,26.8"/>
		<path class="st0" d="M61.23,26.54c-0.02-0.21-0.02-0.41-0.06-0.59c-0.05-0.23-0.25-0.37-0.54-0.36c-0.25,0.01-0.5,0.07-0.75,0.11
			c-0.05,0.01-0.1,0.03-0.15,0.04c-0.03-0.08-0.06-0.16-0.09-0.24c0.24-0.11,0.48-0.17,0.73-0.19c0.17-0.01,0.35-0.01,0.52,0.02
			c0.36,0.06,0.6,0.31,0.64,0.68c0.02,0.27,0.02,0.53,0.02,0.8c0,0.31,0,0.61,0,0.92c0,0.16,0.04,0.31,0.19,0.4
			c0.02,0.01,0.04,0.06,0.03,0.08c-0.01,0.06-0.04,0.11-0.05,0.17c-0.25-0.02-0.38-0.14-0.47-0.45c-0.04,0.05-0.07,0.08-0.11,0.12
			c-0.31,0.36-0.96,0.46-1.36,0.19c-0.29-0.19-0.38-0.49-0.36-0.82c0.02-0.34,0.19-0.59,0.5-0.74c0.24-0.12,0.5-0.14,0.77-0.14
			C60.86,26.53,61.02,26.54,61.23,26.54 M61.21,26.78c-0.34,0.01-0.67-0.04-0.99,0.07c-0.26,0.09-0.4,0.26-0.44,0.54
			c-0.04,0.36,0.13,0.66,0.45,0.7c0.17,0.02,0.35,0,0.51-0.05c0.22-0.07,0.41-0.23,0.46-0.46C61.24,27.33,61.21,27.06,61.21,26.78"
			/>
		<path class="st0" d="M34.11,28.38c-0.26-0.04-0.41-0.19-0.46-0.46c-0.03,0.02-0.04,0.04-0.06,0.06c-0.3,0.38-0.81,0.51-1.26,0.34
			c-0.32-0.12-0.51-0.41-0.52-0.76c-0.01-0.43,0.16-0.72,0.52-0.88c0.24-0.11,0.5-0.13,0.76-0.14c0.17,0,0.33,0,0.51,0
			c0.01-0.24,0.03-0.48-0.08-0.7c-0.11-0.2-0.3-0.26-0.5-0.25c-0.25,0.01-0.49,0.07-0.74,0.11c-0.05,0.01-0.1,0.03-0.16,0.05
			c-0.03-0.08-0.06-0.16-0.09-0.25c0.24-0.11,0.49-0.18,0.75-0.19c0.17-0.01,0.34-0.01,0.51,0.02c0.37,0.06,0.6,0.32,0.64,0.69
			c0.02,0.29,0.02,0.58,0.02,0.86c0,0.28,0,0.57,0,0.85c0,0.16,0.04,0.29,0.18,0.38c0.02,0.01,0.04,0.07,0.04,0.1
			C34.16,28.27,34.13,28.32,34.11,28.38 M33.6,27.21L33.6,27.21c0-0.11,0-0.23,0-0.34c0-0.03-0.04-0.08-0.05-0.08
			c-0.33,0-0.66-0.04-0.98,0.08c-0.24,0.09-0.37,0.27-0.4,0.53c-0.04,0.36,0.14,0.64,0.46,0.7c0.09,0.02,0.19,0.01,0.28,0.01
			c0.4-0.04,0.7-0.36,0.7-0.75V27.21z"/>
		<path class="st0" d="M53.46,27.92c-0.28,0.39-0.66,0.52-1.1,0.45c-0.49-0.08-0.78-0.47-0.72-0.97c0.05-0.46,0.33-0.75,0.83-0.82
			c0.25-0.04,0.52-0.03,0.77-0.04c0.06,0,0.12,0,0.21,0c-0.03-0.22-0.03-0.42-0.08-0.62c-0.05-0.22-0.26-0.35-0.53-0.33
			c-0.25,0.01-0.5,0.07-0.75,0.11c-0.05,0.01-0.1,0.03-0.15,0.05c-0.03-0.08-0.06-0.16-0.09-0.25c0.42-0.17,0.84-0.26,1.29-0.16
			c0.4,0.09,0.62,0.39,0.62,0.87c0,0.49,0,0.98,0,1.46c0,0.18,0.02,0.36,0.2,0.46c0.02,0.01,0.03,0.05,0.02,0.07
			c-0.01,0.06-0.04,0.12-0.06,0.18C53.66,28.32,53.58,28.24,53.46,27.92 M53.43,26.8c-0.28,0-0.55-0.02-0.81,0.01
			c-0.47,0.05-0.7,0.38-0.62,0.84c0.04,0.24,0.21,0.42,0.46,0.44c0.14,0.01,0.29,0.01,0.43-0.03c0.26-0.07,0.47-0.25,0.53-0.51
			C53.47,27.32,53.43,27.05,53.43,26.8"/>
		<path class="st0" d="M42.84,25.36h0.13h0.15c0.01,0.16,0.02,0.3,0.04,0.48c0.05-0.06,0.09-0.1,0.13-0.15
			c0.27-0.3,0.61-0.43,1.02-0.38c0.34,0.04,0.57,0.26,0.64,0.61c0.02,0.09,0.03,0.18,0.03,0.27c0,0.67,0,1.35,0,2.02v0.1h-0.33
			v-0.14c0-0.62,0-1.23,0-1.85c0-0.14-0.02-0.28-0.05-0.41c-0.05-0.2-0.19-0.31-0.39-0.33c-0.33-0.05-0.59,0.09-0.82,0.32
			c-0.15,0.16-0.23,0.32-0.22,0.55c0.02,0.57,0.01,1.15,0.01,1.72v0.14h-0.33V25.36z"/>
		<path class="st0" d="M68.95,28c0.07-0.08,0.12-0.14,0.18-0.21c0.06,0.04,0.11,0.07,0.17,0.11c0.29,0.18,0.61,0.24,0.95,0.17
			c0.35-0.07,0.52-0.32,0.47-0.67c-0.03-0.18-0.14-0.29-0.29-0.36c-0.16-0.07-0.33-0.11-0.49-0.17c-0.18-0.07-0.36-0.12-0.53-0.21
			c-0.42-0.24-0.47-0.81-0.09-1.12c0.39-0.32,0.83-0.31,1.27-0.16c0.15,0.05,0.28,0.14,0.42,0.22c-0.06,0.09-0.11,0.16-0.16,0.23
			c-0.09-0.05-0.18-0.1-0.27-0.15c-0.25-0.12-0.51-0.15-0.78-0.08c-0.25,0.06-0.39,0.24-0.39,0.47c0,0.18,0.09,0.3,0.24,0.37
			c0.18,0.08,0.37,0.13,0.56,0.2c0.15,0.05,0.29,0.11,0.44,0.17c0.57,0.25,0.55,1.09,0.08,1.36c-0.54,0.31-1.07,0.26-1.59-0.03
			C69.08,28.11,69.03,28.06,68.95,28"/>
		<path class="st0" d="M63.5,25.93c0.24-0.54,0.59-0.74,1.13-0.58c-0.02,0.09-0.04,0.19-0.06,0.29c-0.06-0.01-0.1-0.01-0.15-0.02
			c-0.27-0.03-0.49,0.05-0.64,0.28c-0.16,0.25-0.27,0.51-0.26,0.82c0.01,0.48,0,0.97,0,1.45v0.14h-0.33v-2.95h0.28
			C63.48,25.55,63.49,25.74,63.5,25.93"/>
		<rect x="26.18" y="25.36" class="st0" width="0.32" height="2.95"/>
		<rect x="40.86" y="25.37" class="st0" width="0.32" height="2.94"/>
		<path class="st0" d="M26.33,24.06c0.15,0,0.25,0.1,0.25,0.24c0,0.14-0.1,0.24-0.25,0.24c-0.14,0-0.24-0.1-0.25-0.24
			C26.08,24.16,26.19,24.06,26.33,24.06"/>
		<path class="st0" d="M41.02,24.06c0.15,0,0.24,0.1,0.24,0.25c0,0.15-0.1,0.24-0.26,0.23c-0.14,0-0.24-0.1-0.24-0.24
			C40.77,24.15,40.87,24.05,41.02,24.06"/>
		<path class="st0" d="M50.15,22.9c-0.01,0.2-0.14,0.25-0.26,0.34h0.18c-0.14,0.19-0.3,0.3-0.53,0.3c0.13-0.13,0.21-0.3,0.32-0.45
			C49.92,23.01,50.03,22.97,50.15,22.9"/>
		<path class="st0" d="M48.81,24.05c0.22-0.08,0.54,0.05,0.59,0.25C49.19,24.25,48.96,24.26,48.81,24.05"/>
		<path class="st0" d="M47.8,24.3c0.04-0.2,0.35-0.33,0.59-0.25C48.25,24.26,48.02,24.25,47.8,24.3"/>
		<path class="st0" d="M47.91,23.82c-0.24,0.04-0.4-0.09-0.58-0.2C47.48,23.51,47.76,23.61,47.91,23.82"/>
		<path class="st0" d="M49.87,23.62c-0.18,0.11-0.34,0.23-0.57,0.2C49.39,23.63,49.71,23.51,49.87,23.62"/>
		<path class="st0" d="M49.72,24.02c-0.22,0.01-0.42,0.07-0.62-0.07C49.31,23.83,49.61,23.85,49.72,24.02"/>
		<path class="st0" d="M48.08,23.94c-0.1,0.11-0.36,0.14-0.58,0.06C47.57,23.86,47.87,23.82,48.08,23.94"/>
		<path class="st0" d="M49.52,23.26c-0.02,0.24-0.11,0.4-0.3,0.5C49.19,23.58,49.31,23.36,49.52,23.26"/>
		<path class="st0" d="M47.67,23.24c0.22,0.12,0.31,0.29,0.32,0.54C47.79,23.65,47.7,23.48,47.67,23.24"/>
		<path class="st0" d="M49.72,22.79c0.08,0.19,0.03,0.42-0.11,0.56C49.53,23.15,49.57,22.93,49.72,22.79"/>
		<path class="st0" d="M47.42,23.29c0.08,0.07,0.16,0.15,0.26,0.24c-0.23,0.02-0.43-0.1-0.54-0.31c0.08,0.01,0.16,0.03,0.23,0.04
			C47.39,23.27,47.41,23.28,47.42,23.29"/>
		<path class="st0" d="M47.59,23.35c-0.14-0.14-0.19-0.38-0.11-0.56C47.63,22.93,47.67,23.14,47.59,23.35"/>
		<path class="st0" d="M49.17,23.59c-0.11,0.17-0.17,0.35-0.38,0.4C48.79,23.79,48.97,23.59,49.17,23.59"/>
		<path class="st0" d="M48.05,23.59c0.17-0.01,0.33,0.17,0.36,0.38C48.27,23.96,48.12,23.81,48.05,23.59"/>
		<path class="st0" d="M47.46,22.35c0.07,0.13,0.03,0.31-0.11,0.49C47.26,22.71,47.31,22.5,47.46,22.35"/>
		<path class="st0" d="M47.42,23.29c-0.02-0.01-0.03-0.02-0.05-0.02c-0.09-0.07-0.18-0.13-0.27-0.21c-0.03-0.03-0.04-0.08-0.07-0.15
			c0.18,0.06,0.32,0.13,0.39,0.29C47.43,23.22,47.42,23.26,47.42,23.29"/>
		<path class="st0" d="M47.16,22.55c0.04,0.13,0.09,0.27,0.13,0.4c-0.01,0.01-0.03,0.01-0.04,0.02c-0.18-0.1-0.19-0.29-0.22-0.49
			C47.09,22.5,47.13,22.53,47.16,22.55L47.16,22.55z"/>
		<path class="st0" d="M49.73,22.33c0.17,0.2,0.21,0.37,0.12,0.53C49.75,22.69,49.67,22.54,49.73,22.33"/>
		<path class="st0" d="M50.04,22.55c0.03-0.02,0.05-0.04,0.08-0.06c0.06,0.2-0.01,0.37-0.22,0.45C49.95,22.81,50,22.68,50.04,22.55
			L50.04,22.55z"/>
		<path class="st0" d="M50.05,22.55c-0.03,0.01-0.06,0.03-0.09,0.04c-0.04-0.19,0.01-0.33,0.17-0.41
			C50.1,22.3,50.07,22.43,50.05,22.55C50.04,22.55,50.05,22.55,50.05,22.55"/>
		<path class="st0" d="M47.17,22.55c-0.03-0.12-0.07-0.24-0.11-0.39c0.16,0.07,0.22,0.23,0.19,0.43
			C47.22,22.58,47.19,22.56,47.17,22.55L47.17,22.55z"/>
		<path class="st0" d="M47.27,21.87c0.13,0.12,0.13,0.26,0,0.41C47.18,22.13,47.24,22,47.27,21.87"/>
		<path class="st0" d="M49.94,22.28c-0.12-0.14-0.13-0.27-0.01-0.41C49.97,22.01,50.01,22.13,49.94,22.28"/>
	</g>
	<g>
		<g>
			<polygon class="st0" points="42.25,0.64 42.95,0.64 41.53,5.77 41.26,5.77 41.24,5.84 41.22,5.77 40.93,5.77 39.75,1.89 
				38.55,5.77 38.27,5.77 38.26,5.81 38.25,5.77 37.97,5.77 36.57,0.64 37.26,0.64 38.28,4.53 39.46,0.64 40.06,0.64 41.22,4.55 			
				"/>
			<rect x="43.3" y="0.64" class="st0" width="0.66" height="5.14"/>
			<polygon class="st0" points="47.85,0.64 48.51,0.64 48.51,5.77 47.93,5.77 45.39,1.9 45.39,5.77 44.74,5.77 44.74,0.64 
				45.31,0.64 47.85,4.5 			"/>
			<polygon class="st0" points="53.83,0.64 56.6,0.64 56.6,1.25 54.49,1.25 54.49,2.89 56.4,2.89 56.4,3.5 54.49,3.5 54.49,5.16 
				56.6,5.16 56.6,5.77 53.83,5.77 			"/>
			<path class="st0" d="M59.33,3.66c0.32-0.08,0.57-0.23,0.76-0.45c0.23-0.27,0.35-0.61,0.35-1.02c0-0.46-0.15-0.84-0.45-1.12
				c-0.3-0.28-0.74-0.42-1.32-0.42h-1.49v5.14h0.66V3.73h0.78l1.23,2.04h0.78L59.33,3.66z M57.84,1.26h0.83
				c0.99,0,1.1,0.53,1.1,0.92c0,0.29-0.09,0.51-0.26,0.69c-0.17,0.17-0.45,0.26-0.83,0.26h-0.85V1.26z"/>
			<polygon class="st0" points="52.4,0.64 53.06,0.64 53.06,5.77 52.48,5.77 49.94,1.9 49.94,5.77 49.29,5.77 49.29,0.64 
				49.86,0.64 52.4,4.5 			"/>
		</g>
	</g>
	<g>
		<path class="st0" d="M42.34,37.29c0.53-0.6,0.8-1.17,0.8-1.71c0-0.36-0.09-0.65-0.28-0.88c-0.19-0.23-0.5-0.34-0.93-0.34
			c-0.43,0-0.76,0.13-0.98,0.39c-0.23,0.26-0.35,0.61-0.38,1.03h-0.32c0.03-0.54,0.2-0.96,0.5-1.26c0.3-0.3,0.7-0.45,1.19-0.45
			c0.45,0,0.82,0.13,1.1,0.38c0.29,0.25,0.43,0.63,0.43,1.12c0,0.62-0.28,1.24-0.85,1.86c-0.56,0.63-1.21,1.18-1.93,1.65h2.95v0.28
			h-3.49v-0.22C41.08,38.51,41.81,37.89,42.34,37.29z"/>
		<path class="st0" d="M44.86,34.77c0.25-0.46,0.7-0.69,1.36-0.69c0.65,0,1.11,0.23,1.35,0.69c0.25,0.46,0.37,1.12,0.37,1.97
			c0,0.86-0.12,1.52-0.37,1.99c-0.25,0.47-0.7,0.7-1.35,0.7c-0.66,0-1.11-0.23-1.36-0.7c-0.25-0.47-0.37-1.13-0.37-1.99
			C44.49,35.89,44.61,35.23,44.86,34.77z M47.5,35.49c-0.07-0.34-0.21-0.61-0.41-0.81c-0.2-0.2-0.5-0.3-0.88-0.3
			c-0.38,0-0.67,0.1-0.88,0.3c-0.2,0.2-0.34,0.47-0.41,0.81c-0.07,0.34-0.11,0.76-0.11,1.25c0,0.5,0.04,0.92,0.11,1.27
			c0.07,0.34,0.21,0.61,0.41,0.82c0.2,0.2,0.5,0.3,0.88,0.3c0.38,0,0.67-0.1,0.88-0.3c0.2-0.2,0.34-0.47,0.41-0.82
			c0.07-0.34,0.11-0.76,0.11-1.27C47.61,36.25,47.58,35.83,47.5,35.49z"/>
		<path class="st0" d="M51,37.29c0.53-0.6,0.8-1.17,0.8-1.71c0-0.36-0.09-0.65-0.28-0.88c-0.19-0.23-0.5-0.34-0.93-0.34
			c-0.43,0-0.76,0.13-0.98,0.39c-0.23,0.26-0.35,0.61-0.38,1.03H48.9c0.03-0.54,0.2-0.96,0.5-1.26c0.3-0.3,0.7-0.45,1.19-0.45
			c0.45,0,0.82,0.13,1.1,0.38c0.29,0.25,0.43,0.63,0.43,1.12c0,0.62-0.28,1.24-0.85,1.86c-0.56,0.63-1.21,1.18-1.93,1.65h2.95v0.28
			h-3.49v-0.22C49.73,38.51,50.46,37.89,51,37.29z"/>
		<path class="st0" d="M52.85,38.06V37.8l2.81-3.64h0.38v3.61h0.84v0.29h-0.84v1.33h-0.32v-1.33H52.85z M55.72,34.56l-2.48,3.21
			h2.48V34.56z"/>
	</g>
	<g>
		<g>
			<g>
				<path class="st0" d="M18.77,5.06c-0.01,0-0.03-0.01-0.04-0.01C18.72,5.03,18.71,5.02,18.71,5V3.32c0-0.03,0.02-0.05,0.05-0.05
					h0.89c0.01,0,0.03,0.01,0.04,0.02c0.01,0.01,0.02,0.03,0.01,0.04l-0.09,1.64c0,0.03-0.02,0.05-0.05,0.05L18.77,5.06
					C18.77,5.06,18.77,5.06,18.77,5.06z M18.82,3.37v1.57l0.69-0.03l0.09-1.54H18.82z"/>
			</g>
			<g>
				<path class="st0" d="M19.66,36.89h-0.89c-0.03,0-0.05-0.02-0.05-0.05v-1.68c0-0.01,0.01-0.03,0.02-0.04
					c0.01-0.01,0.02-0.02,0.04-0.01l0.8,0.04c0.03,0,0.05,0.02,0.05,0.05l0.09,1.64c0,0.01,0,0.03-0.01,0.04
					C19.69,36.88,19.67,36.89,19.66,36.89z M18.82,36.78h0.78l-0.09-1.54l-0.69-0.03V36.78z"/>
			</g>
			<g>
				<path class="st0" d="M18.77,35.21C18.77,35.21,18.77,35.21,18.77,35.21l-0.89-0.04c-0.01,0-0.03-0.01-0.04-0.02
					c-0.01-0.01-0.01-0.02-0.01-0.04l0.84-15.03c0-0.03,0.03-0.05,0.05-0.05c0.03,0,0.05,0.02,0.05,0.05l0.05,0.85l0,14.23
					c0,0.01-0.01,0.03-0.02,0.04C18.8,35.2,18.78,35.21,18.77,35.21z M17.94,35.06l0.78,0.04V21.16L17.94,35.06z"/>
			</g>
			<g>
				<path class="st0" d="M19.66,3.37c-0.01,0-0.03-0.01-0.04-0.02c-0.01-0.01-0.02-0.03-0.01-0.04l0.09-1.68
					c0-0.01,0.01-0.03,0.02-0.04c0.01-0.01,0.03-0.01,0.04-0.01l16.48,1.67c0.03,0,0.05,0.03,0.05,0.06c0,0.03-0.03,0.05-0.05,0.05
					L19.66,3.37C19.66,3.37,19.66,3.37,19.66,3.37z M19.8,1.7l-0.09,1.57l15.46-0.01L19.8,1.7z"/>
			</g>
			<g>
				<path class="st0" d="M19.57,35.25C19.57,35.25,19.56,35.25,19.57,35.25l-0.8-0.04c-0.03,0-0.05-0.03-0.05-0.05V20.93
					c0-0.03,0.02-0.05,0.05-0.05c0.03,0,0.05,0.02,0.06,0.05l0.8,14.26c0,0.02,0,0.03-0.02,0.04
					C19.59,35.24,19.58,35.25,19.57,35.25z M18.82,35.1l0.69,0.03l-0.69-12.27V35.1z"/>
			</g>
			<g>
				<path class="st0" d="M19.57,5.02c-0.01,0-0.03-0.01-0.04-0.02c-0.01-0.01-0.02-0.03-0.02-0.04l0.09-1.64
					c0-0.03,0.03-0.05,0.05-0.05l16.58-0.01c0,0,0,0,0,0c0.03,0,0.05,0.02,0.05,0.05c0,0.03-0.02,0.05-0.05,0.06L19.57,5.02
					C19.57,5.02,19.57,5.02,19.57,5.02z M19.71,3.37L19.62,4.9l15.51-1.54L19.71,3.37z"/>
			</g>
			<g>
				<path class="st0" d="M18.72,20.13c-0.03,0-0.05-0.02-0.05-0.05L17.83,5.05c0-0.01,0-0.03,0.01-0.04
					c0.01-0.01,0.02-0.02,0.04-0.02l0.89-0.04c0.02,0,0.03,0,0.04,0.01c0.01,0.01,0.02,0.02,0.02,0.04v14.22l-0.05,0.86
					C18.77,20.11,18.75,20.13,18.72,20.13z M17.94,5.1L18.71,19l0-13.94L17.94,5.1z"/>
			</g>
			<g>
				<path class="st0" d="M19.75,38.57c-0.01,0-0.03,0-0.04-0.01c-0.01-0.01-0.02-0.02-0.02-0.04l-0.09-1.68c0-0.01,0-0.03,0.01-0.04
					c0.01-0.01,0.02-0.02,0.04-0.02l0,0L39.7,36.8c0.03,0,0.05,0.02,0.05,0.05c0,0.03-0.02,0.05-0.05,0.06L19.75,38.57
					C19.76,38.57,19.75,38.57,19.75,38.57z M19.72,36.89l0.09,1.57l18.61-1.56L19.72,36.89z"/>
			</g>
			<g>
				<path class="st0" d="M18.77,19.28C18.77,19.28,18.77,19.28,18.77,19.28c-0.03,0-0.05-0.02-0.05-0.05V5
					c0-0.03,0.02-0.05,0.05-0.05l0.8-0.04c0.02,0,0.03,0.01,0.04,0.02c0.01,0.01,0.02,0.03,0.02,0.04l-0.8,14.26
					C18.82,19.26,18.8,19.28,18.77,19.28z M18.82,5.05v12.24l0.69-12.27L18.82,5.05z"/>
			</g>
			<g>
				<path class="st0" d="M39.7,36.9C39.7,36.9,39.7,36.9,39.7,36.9l-20.04-0.01c-0.03,0-0.05-0.02-0.05-0.05l-0.09-1.64
					c0-0.02,0.01-0.03,0.02-0.04c0.01-0.01,0.03-0.02,0.04-0.02L39.7,36.8c0.03,0,0.05,0.03,0.05,0.06
					C39.75,36.88,39.72,36.9,39.7,36.9z M19.71,36.78l18.66,0.01l-18.75-1.54L19.71,36.78z"/>
			</g>
			<g>
				<path class="st0" d="M36.24,3.36c-0.03,0-0.05-0.02-0.05-0.05c0-0.03,0.02-0.05,0.05-0.05h0c0.03,0,0.05,0.02,0.05,0.05
					C36.29,3.34,36.27,3.36,36.24,3.36z"/>
			</g>
			<g>
				<path class="st0" d="M39.7,36.9c-0.03,0-0.05-0.02-0.05-0.05c0-0.03,0.02-0.05,0.05-0.05h0c0.03,0,0.05,0.02,0.05,0.05
					C39.75,36.88,39.73,36.9,39.7,36.9z"/>
			</g>
			<g>
				<path class="st0" d="M18.77,20.98c-0.03,0-0.05-0.02-0.05-0.05l-0.05-0.85l0.05-0.86c0-0.03,0.03-0.05,0.06-0.05
					c0.03,0,0.05,0.02,0.05,0.05v1.7C18.82,20.96,18.8,20.98,18.77,20.98C18.77,20.98,18.77,20.98,18.77,20.98z"/>
			</g>
			<g>
				<path class="st0" d="M36.24,3.36c-0.03,0-0.05-0.02-0.05-0.05c0-0.03,0.02-0.05,0.05-0.05h0c0.03,0,0.05,0.02,0.05,0.05
					C36.29,3.34,36.27,3.36,36.24,3.36z"/>
			</g>
			<g>
				<path class="st0" d="M39.7,36.9c-0.03,0-0.05-0.02-0.05-0.05c0-0.03,0.02-0.05,0.05-0.05h0c0.03,0,0.05,0.02,0.05,0.05
					C39.75,36.88,39.73,36.9,39.7,36.9z"/>
			</g>
			<g>
				<path class="st0" d="M36.24,3.36c-0.03,0-0.05-0.02-0.05-0.05c0-0.03,0.02-0.05,0.05-0.05h0c0.03,0,0.05,0.02,0.05,0.05
					C36.29,3.34,36.27,3.36,36.24,3.36z"/>
			</g>
			<g>
				<path class="st0" d="M39.7,36.9c-0.03,0-0.05-0.02-0.05-0.05c0-0.03,0.02-0.05,0.05-0.05h0c0.03,0,0.05,0.02,0.05,0.05
					C39.75,36.88,39.73,36.9,39.7,36.9z"/>
			</g>
		</g>
		<g>
			<g>
				<path class="st0" d="M78.37,5.06C78.37,5.06,78.37,5.06,78.37,5.06l-0.8-0.04c-0.03,0-0.05-0.02-0.05-0.05l-0.09-1.64
					c0-0.01,0-0.03,0.01-0.04c0.01-0.01,0.02-0.02,0.04-0.02h0.89c0.03,0,0.05,0.02,0.05,0.05V5c0,0.01-0.01,0.03-0.02,0.04
					C78.4,5.05,78.38,5.06,78.37,5.06z M77.62,4.91l0.69,0.03V3.37h-0.78L77.62,4.91z"/>
			</g>
			<g>
				<path class="st0" d="M78.37,36.89h-0.89c-0.01,0-0.03-0.01-0.04-0.02c-0.01-0.01-0.02-0.03-0.01-0.04l0.09-1.64
					c0-0.03,0.02-0.05,0.05-0.05l0.8-0.04c0.01,0,0.03,0,0.04,0.01c0.01,0.01,0.02,0.02,0.02,0.04v1.68
					C78.42,36.87,78.4,36.89,78.37,36.89z M77.54,36.78h0.78v-1.57l-0.69,0.03L77.54,36.78z"/>
			</g>
			<g>
				<path class="st0" d="M78.37,35.21c-0.01,0-0.03-0.01-0.04-0.01c-0.01-0.01-0.02-0.02-0.02-0.04V20.93l0.05-0.86
					c0-0.03,0.03-0.05,0.05-0.05c0.03,0,0.05,0.02,0.05,0.05l0.84,15.03c0,0.01,0,0.03-0.01,0.04c-0.01,0.01-0.02,0.02-0.04,0.02
					L78.37,35.21C78.37,35.21,78.37,35.21,78.37,35.21z M78.42,35.15L78.42,35.15L78.42,35.15z M78.42,21.16l0,13.94l0.78-0.04
					L78.42,21.16z"/>
			</g>
			<g>
				<path class="st0" d="M77.48,3.37C77.48,3.37,77.48,3.37,77.48,3.37L60.9,3.36c-0.03,0-0.05-0.02-0.05-0.05
					c0-0.03,0.02-0.05,0.05-0.06l16.48-1.67c0.01,0,0.03,0,0.04,0.01c0.01,0.01,0.02,0.02,0.02,0.04l0.09,1.68
					c0,0.01,0,0.03-0.01,0.04C77.51,3.37,77.5,3.37,77.48,3.37z M61.97,3.25l15.46,0.01L77.34,1.7L61.97,3.25z"/>
			</g>
			<g>
				<path class="st0" d="M77.57,35.25c-0.01,0-0.03-0.01-0.04-0.02c-0.01-0.01-0.02-0.03-0.02-0.04l0.8-14.26
					c0-0.03,0.03-0.05,0.06-0.05c0.03,0,0.05,0.02,0.05,0.05v14.22c0,0.03-0.02,0.05-0.05,0.05L77.57,35.25
					C77.57,35.25,77.57,35.25,77.57,35.25z M78.32,22.86l-0.69,12.27l0.69-0.03V22.86z"/>
			</g>
			<g>
				<path class="st0" d="M77.57,5.02C77.57,5.02,77.57,5.02,77.57,5.02L60.9,3.36c-0.03,0-0.05-0.03-0.05-0.06
					c0-0.03,0.03-0.05,0.05-0.05c0,0,0,0,0,0l16.58,0.01c0.03,0,0.05,0.02,0.05,0.05l0.09,1.64c0,0.02-0.01,0.03-0.02,0.04
					C77.6,5.01,77.59,5.02,77.57,5.02z M62,3.36L77.52,4.9l-0.09-1.53L62,3.36z"/>
			</g>
			<g>
				<path class="st0" d="M78.42,20.13c-0.03,0-0.05-0.02-0.05-0.05l-0.05-0.85l0-14.23c0-0.01,0.01-0.03,0.02-0.04
					c0.01-0.01,0.02-0.02,0.04-0.01l0.89,0.04c0.01,0,0.03,0.01,0.04,0.02c0.01,0.01,0.01,0.02,0.01,0.04l-0.84,15.03
					C78.47,20.11,78.45,20.13,78.42,20.13z M78.42,5.06V19L79.2,5.1L78.42,5.06z"/>
			</g>
			<g>
				<path class="st0" d="M77.39,38.57C77.39,38.57,77.38,38.57,77.39,38.57L57.44,36.9c-0.03,0-0.05-0.03-0.05-0.06
					s0.02-0.05,0.05-0.05l20.04-0.01l0,0c0.01,0,0.03,0.01,0.04,0.02c0.01,0.01,0.02,0.03,0.01,0.04l-0.09,1.68
					c0,0.01-0.01,0.03-0.02,0.04C77.41,38.57,77.4,38.57,77.39,38.57z M58.73,36.9l18.61,1.56l0.09-1.57L58.73,36.9z"/>
			</g>
			<g>
				<path class="st0" d="M78.37,19.28c-0.03,0-0.05-0.02-0.05-0.05l-0.8-14.26c0-0.02,0-0.03,0.02-0.04
					c0.01-0.01,0.03-0.02,0.04-0.02l0.8,0.04c0.03,0,0.05,0.03,0.05,0.05v14.22C78.42,19.25,78.4,19.28,78.37,19.28
					C78.37,19.28,78.37,19.28,78.37,19.28z M77.63,5.02l0.69,12.27V5.05L77.63,5.02z"/>
			</g>
			<g>
				<path class="st0" d="M57.44,36.9c-0.03,0-0.05-0.02-0.05-0.05s0.02-0.05,0.05-0.06l20.13-1.66c0.02,0,0.03,0,0.04,0.02
					c0.01,0.01,0.02,0.03,0.02,0.04l-0.09,1.64c0,0.03-0.03,0.05-0.05,0.05L57.44,36.9L57.44,36.9z M77.52,35.25l-18.75,1.54
					l18.66-0.01L77.52,35.25z"/>
			</g>
			<g>
				<path class="st0" d="M60.9,3.36c-0.03,0-0.05-0.02-0.05-0.05c0-0.03,0.02-0.05,0.05-0.05h0c0.03,0,0.05,0.02,0.05,0.05
					C60.96,3.34,60.93,3.36,60.9,3.36z"/>
			</g>
			<g>
				<path class="st0" d="M57.44,36.9c-0.03,0-0.05-0.02-0.05-0.05c0-0.03,0.02-0.05,0.05-0.05h0c0.03,0,0.05,0.02,0.05,0.05
					C57.5,36.88,57.47,36.9,57.44,36.9z"/>
			</g>
			<g>
				<path class="st0" d="M78.37,20.98C78.37,20.98,78.37,20.98,78.37,20.98c-0.03,0-0.05-0.02-0.05-0.05v-1.7
					c0-0.03,0.02-0.05,0.05-0.05c0.03,0,0.05,0.02,0.06,0.05l0.05,0.85l-0.05,0.86C78.42,20.96,78.4,20.98,78.37,20.98z"/>
			</g>
			<g>
				<path class="st0" d="M60.9,3.36c-0.03,0-0.05-0.02-0.05-0.05c0-0.03,0.02-0.05,0.05-0.05h0c0.03,0,0.05,0.02,0.05,0.05
					C60.96,3.34,60.93,3.36,60.9,3.36z"/>
			</g>
			<g>
				<path class="st0" d="M57.44,36.9c-0.03,0-0.05-0.02-0.05-0.05c0-0.03,0.02-0.05,0.05-0.05h0c0.03,0,0.05,0.02,0.05,0.05
					C57.5,36.88,57.47,36.9,57.44,36.9z"/>
			</g>
			<g>
				<path class="st0" d="M60.9,3.36c-0.03,0-0.05-0.02-0.05-0.05c0-0.03,0.02-0.05,0.05-0.05h0c0.03,0,0.05,0.02,0.05,0.05
					C60.96,3.34,60.93,3.36,60.9,3.36z"/>
			</g>
			<g>
				<path class="st0" d="M57.44,36.9c-0.03,0-0.05-0.02-0.05-0.05c0-0.03,0.02-0.05,0.05-0.05h0c0.03,0,0.05,0.02,0.05,0.05
					C57.5,36.88,57.47,36.9,57.44,36.9z"/>
			</g>
		</g>
	</g>
	<g>
		<g>
			<circle class="st0" cx="18.73" cy="20.12" r="1.19"/>
		</g>
		<g>
			<circle class="st0" cx="78.4" cy="20.12" r="1.19"/>
		</g>
	</g>
</g>
</svg>
