<svg xmlns="http://www.w3.org/2000/svg" xmlns:xlink="http://www.w3.org/1999/xlink" width="100" height="34" fill="none" xmlns:v="https://vecta.io/nano"><g clip-path="url(#A)"><path fill-rule="evenodd" d="M97.3 33.3H2.7c-1.5 0-2.7-1.2-2.7-2.7v-28C0 1.2 1.2 0 2.7 0h94.7c1.5 0 2.7 1.2 2.7 2.7v28c0 1.5-1.2 2.7-2.7 2.7z" fill="#ff333a"/><g fill="#fff"><path d="M12 19.3l-.5-2.1H9l-.4 2.1H6.2L9 7h2.5l3 12.3H12zm-.8-4l-.7-3.5-.2-1.6a38 38 0 0 1-.8 5.2H11h0z"/><use xlink:href="#B"/><path d="M27 19.3l-2.3-6.2v6.2h-2.4V7h2.4v5.5l2-5.5H29l-2 5.7 2.5 6.6H27zm10.6-6.8v.9l-.2 2.6c-.4 1.9-1.6 3.5-3.7 3.5-3.3 0-4.4-3.6-4.4-6.3 0-2.8 1-6.4 4.4-6.4 2 0 3 1.2 3.6 2.9l-2.4.9c-.1-.7-.3-1.7-1.2-1.7C32 9 32 12 32 13.2s.1 4.1 1.8 4.1c1.3 0 1.5-1.7 1.5-2.7h-1.5v-2.2h4 0zm6 6.8l-.5-2.1h-2.4l-.4 2.1H38L41 7h2.5l3 12.3h-2.6zm-.8-4l-.7-3.5v-1.6a38 38 0 0 1-.8 5.2h1.7 0zm12.7 4l-.6-8.8-.4 2.8-1 6h-2l-1-5.6c-.1-.6-.3-1.2-.3-1.8v-1.4l-.4 8.8H47L48 7h3.2l1.2 7.3 1-7.3h3.3L58 19.3h-2.5zm6-12.3c.6 0 1.7 0 2.6.9.7.6 1 1.7 1 2.7 0 .6-.1 1.2-.6 1.7-.2.2-.5.5-1 .7.8.3 1.2.8 1.3 1.1.3.6.4 1.3.4 1.7 0 .9-.2 1.7-1 2.4a4 4 0 0 1-2.9 1H59V7h2.6zm-.2 5c.4 0 .8-.2 1-.4.4-.3.4-.9.4-1.1 0-.3 0-.8-.4-1.1-.2-.2-.5-.4-1-.4v3zm0 5.1c.4 0 .8-.1 1-.4.3-.2.5-.7.5-1.2 0-.6-.2-1-.5-1.3s-.7-.4-1-.4v3.3zm5.2 2.2V7H69v10h2.5v2.3h-5zm6 0V7h5v2.3H75V12h2v2.3h-2V17h2.5v2.3h-5zm10.7 0L81 13.7v5.7h-2.4V7h2.6c1 0 2 .1 2.7.6 1 .6 1.5 1.8 1.5 3 0 1.4-.6 2.4-1.7 3.1l2 5.6H83h0zm-2.2-7h.4c1 0 1.6-.7 1.6-1.7s-.4-1.7-1.5-1.7H81v3.4zm10.6-2.5c-.5-.4-1-.8-1.7-.8s-1.2.5-1.2 1.2c0 2.1 3.7 2.1 3.7 5.5 0 2.1-1.3 3.8-3.5 3.8-.8 0-1.5-.2-2-.6v-2.3c.6.4 1 .7 1.8.7s1.4-.5 1.4-1.4c0-.2 0-.4-.1-.6-.2-.5-1-.9-1.3-1.1-1.4-1-2.3-1.8-2.3-3.6 0-1.9 1-3.6 3.2-3.6.8 0 1.4.2 2.2.6V10zm2.6.5c1 0 1.6-.7 1.6-1.6s-.7-1.6-1.6-1.6-1.6.7-1.6 1.6.7 1.6 1.6 1.6zM6 24.4c0-1.6 1.2-2.8 2.8-2.8 1 0 1.7.6 2 1.2l-.8.4c-.3-.4-.8-.8-1.3-.8-1 0-1.8.8-1.8 1.9s.8 1.9 1.8 1.9c.6 0 1-.3 1.3-.8l.8.4c-.4.6-1 1.2-2 1.2-1.5.2-2.8-1-2.8-2.6zm5.8 2.7v-5.3h3.7v.8h-2.7V24h2.7v.8h-2.7v1.5h2.7v.8h-3.7zm7.7 0l-1.2-2h-1v2h-1v-5.3h2.3c1 0 1.8.7 1.8 1.7 0 .9-.6 1.5-1.3 1.6l1.3 2.1h-1 0zm.1-3.7c0-.5-.4-.8-1-.8h-1.3v1.7h1.3c.5 0 1-.3 1-.9zm3 3.7v-4.5H21v-.8h4.2v.8h-1.6v4.5h-1zm3.6 0v-5.3h1v5.3h-1zm2 0v-5.3H32v.8h-2.7V24H32v.8h-2.7v2.3h-1zm4.6 0v-5.3h1v5.3h-1zm2-2.7c0-1.6 1.2-2.8 2.8-2.8 1 0 1.7.6 2 1.2l-.8.4c-.3-.4-.8-.8-1.3-.8-1 0-1.8.8-1.8 1.9s.8 1.9 1.8 1.9c.6 0 1-.3 1.3-.8l.8.4c-.4.6-1 1.2-2 1.2-1.6 0-2.8-1.1-2.8-2.8zm9.6 2.7l-.4-1h-2.4l-.4 1h-1l2-5.3h1.2l2 5.3h-1zM43 22.7l-1 2.5h2l-1-2.5zm4 4.4v-4.5h-1.6v-.8h4.2v.8H48v4.5h-1zm3.4 0v-5.3H54v.8h-2.7V24H54v.8h-2.7v1.5H54v.8h-3.7zm6.6-2.7c0-1.6 1-2.8 2.7-2.8 1.6 0 2.7 1.2 2.7 2.8s-1 2.8-2.7 2.8S57 26 57 24.4zm4.5 0c0-1.1-.7-1.9-1.8-1.9-1 0-1.8.8-1.8 1.9s.7 1.9 1.8 1.9c1 0 1.8-.8 1.8-1.9zm2 2.7v-5.3H67v.8h-2.7V24H67v.8h-2.7v2.3h-1zm8 0v-4.5h-1.6v-.8H74v.8h-1.6v4.5h-1zm6.7 0l-1.2-2h-1v2h-1v-5.3H77c1 0 1.8.7 1.8 1.7 0 .9-.6 1.5-1.3 1.6l1.3 2.1h-1 0zm.1-3.7c0-.5-.4-.8-1-.8h-1.3v1.7H77c.5 0 1-.3 1-.9zm1.7 1.6v-3.2h1V25c0 .8.5 1.4 1.4 1.4s1.4-.6 1.4-1.4v-3.2h1V25c0 1.3-.8 2.2-2.3 2.2S80 26.3 80 25zm5.2 1.3l.5-.7c.4.4 1 .7 1.7.7.8 0 1-.4 1-.7 0-1.1-3-.4-3-2.4 0-.9.8-1.6 2-1.6.8 0 1.5.3 2 .8l-.5.7c-.4-.4-1-.6-1.6-.6-.5 0-1 .3-1 .7 0 1 3 .4 3 2.4 0 .9-.6 1.7-2 1.7-1 0-1.7-.4-2.2-.8zm6.4.8v-4.5h-1.6v-.8H94v.8h-1.6v4.5h-1z"/></g></g><defs><clipPath id="A"><path fill="#fff" d="M0 0h100v33.3H0z"/></clipPath><path id="B" d="M20.4 9.8c-.5-.4-1-.8-1.7-.8-.7 0-1.2.5-1.2 1.2 0 2.1 3.7 2.1 3.7 5.5 0 2.1-1.3 3.8-3.5 3.8-.8 0-1.5-.2-2-.6v-2.3c.6.4 1 .7 1.8.7.8 0 1.4-.5 1.4-1.4 0-.2 0-.4-.1-.6-.2-.5-1-.9-1.3-1.1-1.4-1-2.3-1.8-2.3-3.6 0-1.9 1-3.6 3.2-3.6.8 0 1.4.2 2.2.6v2.4z"/></defs></svg>