<svg width="120" height="40" viewBox="0 0 120 40" fill="none" xmlns="http://www.w3.org/2000/svg">
<path d="M17.5562 22.8802H19.5639V21.3825H20.3492V29.454H19.5315V31.6318H23.6846V29.454H22.8184V21.3825H23.6037V22.8802H25.6114V19.2209H17.5562V22.8802Z" fill="url(#paint0_linear_14477_2694)" fill-opacity="0.41"/>
<path d="M25.6115 19.221V22.8803H23.6037V21.3826H22.8184V29.454H23.6847V31.6318H19.5316V29.454H20.3492V21.3826H19.5639V22.8803H17.5562V19.221H25.6115ZM25.6115 18.6057H17.5562C17.2162 18.6057 16.9409 18.881 16.9409 19.221V22.8803C16.9409 23.2203 17.2162 23.4956 17.5562 23.4956H19.5639C19.6206 23.4956 19.6773 23.4875 19.734 23.4713V28.8307H19.5316C19.1915 28.8307 18.9163 29.1059 18.9163 29.4459V31.6237C18.9163 31.9637 19.1915 32.239 19.5316 32.239H23.6847C24.0247 32.239 24.3 31.9637 24.3 31.6237V29.4459C24.3 29.1059 24.0247 28.8307 23.6847 28.8307H23.4337V23.4713C23.4904 23.4875 23.5471 23.4956 23.6037 23.4956H25.6115C25.9515 23.4956 26.2268 23.2203 26.2268 22.8803V19.221C26.2268 18.881 25.9515 18.6057 25.6115 18.6057Z" fill="#3A3A3A"/>
<path d="M27.3601 20.4109L26.2915 21.4958V30.733L27.1901 31.6317H31.999L33.0272 30.5873V21.4472L31.9747 20.4028H27.3682L27.3601 20.4109ZM30.8494 29.6887H28.4774V22.4268H30.8494V29.6887Z" fill="url(#paint1_linear_14477_2694)" fill-opacity="0.41"/>
<path d="M31.9665 20.4109L33.0189 21.4553V30.5954L31.9908 31.6398H27.1819L26.2832 30.7411V21.5039L27.3519 20.419H31.9584M28.461 29.6968H30.8331V22.4349H28.461V29.6968ZM31.9584 19.8038H27.3519C27.19 19.8038 27.0281 19.8685 26.9147 19.99L25.8461 21.0748C25.7327 21.1881 25.668 21.35 25.668 21.512V30.7492C25.668 30.9111 25.7327 31.0731 25.8461 31.1864L26.7447 32.085C26.858 32.1984 27.02 32.2631 27.1819 32.2631H31.9908C32.1527 32.2631 32.3146 32.1984 32.4279 32.0769L33.4561 31.0326C33.5694 30.9192 33.6342 30.7573 33.6342 30.5954V21.4553C33.6342 21.2934 33.5694 21.1315 33.448 21.0181L32.3956 19.9738C32.2822 19.8604 32.1203 19.7957 31.9584 19.7957V19.8038ZM29.0763 23.0502H30.2178V29.0815H29.0763V23.0502Z" fill="#3A3A3A"/>
<path d="M34.0068 20.4189V22.4429H34.8083V29.6643H34.0311V31.6397H37.8928L37.909 29.6643H37.0994L37.0832 26.9037H39.7386L40.8801 25.7379V21.52L39.7953 20.4189H34.0068ZM38.5324 24.8797H37.0589V22.4186H38.5324V24.8797Z" fill="url(#paint2_linear_14477_2694)" fill-opacity="0.41"/>
<path d="M39.8037 20.4189L40.8885 21.5199V25.7378L39.747 26.9036H37.0916L37.1078 29.6642H37.9173L37.9011 31.6396H34.0395V29.6642H34.8167V22.4428H34.0152V20.4189H39.8037ZM37.0673 24.8796H38.5407V22.4185H37.0673V24.8796ZM39.8037 19.8036H34.0152C33.6752 19.8036 33.3999 20.0788 33.3999 20.4189V22.4428C33.3999 22.7828 33.6752 23.0581 34.0152 23.0581H34.2014V29.0409H34.0395C33.6994 29.0409 33.4242 29.3161 33.4242 29.6561V31.6315C33.4242 31.9715 33.6994 32.2468 34.0395 32.2468H37.9011C38.2412 32.2468 38.5164 31.9715 38.5164 31.6315L38.5326 29.6561C38.5326 29.4942 38.4679 29.3323 38.3545 29.219C38.2412 29.1056 38.0793 29.0328 37.9173 29.0328H37.723V27.5027H39.747C39.917 27.5027 40.0708 27.4379 40.1923 27.3165L41.3338 26.1507C41.4471 26.0373 41.5119 25.8835 41.5119 25.7216V21.5037C41.5119 21.3418 41.4471 21.188 41.3338 21.0665L40.2489 19.9655C40.1356 19.8441 39.9737 19.7793 39.8117 19.7793L39.8037 19.8036ZM37.6826 23.0338H37.9173V24.2563H37.6826V23.0338Z" fill="#3A3A3A"/>
<path d="M42.4186 19.1641L41.3823 20.1679V30.4577L42.5562 31.6315H48.2637L49.389 30.5062V26.256L48.2152 25.074H44.9364V27.3084H46.936V29.4538H43.7868V21.3985H46.9684V22.6776H49.389V20.2732L48.2637 19.1641H42.4186Z" fill="url(#paint3_linear_14477_2694)" fill-opacity="0.41"/>
<path d="M48.2638 19.1641L49.3891 20.2732V22.6777H46.9684V21.3985H43.7868V29.4538H46.9361V27.3084H44.9283V25.074H48.2152L49.3891 26.2641V30.5063L48.2638 31.6316H42.5563L41.3824 30.4577V20.168L42.4186 19.1641H48.2638ZM48.2638 18.5488H42.4186C42.2567 18.5488 42.1029 18.6136 41.9895 18.7269L40.9533 19.7308C40.8319 19.8442 40.7671 20.0061 40.7671 20.1761V30.4658C40.7671 30.6277 40.8319 30.7896 40.9452 30.903L42.1191 32.0768C42.2324 32.1902 42.3943 32.255 42.5563 32.255H48.2638C48.4257 32.255 48.5876 32.1902 48.7009 32.0768L49.8262 30.9515C49.9396 30.8382 50.0044 30.6763 50.0044 30.5144V26.2722C50.0044 26.1103 49.9396 25.9565 49.8262 25.835L48.6524 24.6449C48.539 24.5235 48.3771 24.4587 48.2152 24.4587H44.9283C44.7097 24.4587 44.5154 24.5721 44.4021 24.7502V22.0219H46.3451V22.6858C46.3451 23.0258 46.6203 23.301 46.9603 23.301H49.381C49.721 23.301 49.9963 23.0258 49.9963 22.6858V20.2813C49.9963 20.1194 49.9315 19.9575 49.8101 19.8442L48.6847 18.735C48.5714 18.6217 48.4176 18.5569 48.2476 18.5569L48.2638 18.5488ZM44.4102 28.8385V27.6323C44.5154 27.8104 44.7097 27.9237 44.9364 27.9237H46.3289V28.8304H44.4183L44.4102 28.8385Z" fill="#3A3A3A"/>
<path d="M51.2024 20.4109L50.1338 21.4958V30.733L51.0324 31.6317H55.8413L56.8695 30.5873V21.4472L55.817 20.4028H51.2105L51.2024 20.4109ZM54.6917 29.6887H52.3196V22.4268H54.6917V29.6887Z" fill="url(#paint4_linear_14477_2694)" fill-opacity="0.41"/>
<path d="M55.8088 20.4109L56.8612 21.4553V30.5954L55.833 31.6398H51.0242L50.1255 30.7411V21.5039L51.1942 20.419H55.8007M52.3033 29.6968H54.6754V22.4349H52.3033V29.6968ZM55.8007 19.8038H51.1942C51.0323 19.8038 50.8703 19.8685 50.757 19.99L49.6884 21.0748C49.575 21.1881 49.5103 21.35 49.5103 21.512V30.7492C49.5103 30.9111 49.575 31.0731 49.6884 31.1864L50.587 32.085C50.7003 32.1984 50.8622 32.2631 51.0242 32.2631H55.833C55.995 32.2631 56.1569 32.1984 56.2702 32.0769L57.2984 31.0326C57.4117 30.9192 57.4765 30.7573 57.4765 30.5954V21.4553C57.4765 21.2934 57.4117 21.1315 57.2903 21.0181L56.2378 19.9738C56.1245 19.8604 55.9626 19.7957 55.8007 19.7957V19.8038ZM52.9186 23.0502H54.0601V29.0815H52.9186V23.0502Z" fill="#3A3A3A"/>
<path d="M62.6983 29.6724H60.6015V22.4186H61.3787V20.4109H57.5899V22.3944H58.4076V29.6724H57.5737V31.6316H64.8275V28.1828H62.6983V29.6724Z" fill="url(#paint5_linear_14477_2694)" fill-opacity="0.41"/>
<path d="M61.3793 20.4108V22.4266H60.6021V29.6723H62.6989V28.1827H64.82V31.6234H57.5743V29.6642H58.4081V22.3861H57.5905V20.4027H61.3793M61.3793 19.7874H57.5905C57.2504 19.7874 56.9752 20.0626 56.9752 20.4027V22.3861C56.9752 22.7262 57.2504 23.0014 57.5905 23.0014H57.7928V29.0409H57.5743C57.2342 29.0409 56.959 29.3161 56.959 29.6561V31.6153C56.959 31.9553 57.2342 32.2306 57.5743 32.2306H64.82C65.16 32.2306 65.4353 31.9553 65.4353 31.6153V28.1746C65.4353 27.8346 65.16 27.5593 64.82 27.5593H62.6989C62.3589 27.5593 62.0836 27.8346 62.0836 28.1746V29.0409H61.2174V23.0257H61.3793C61.7193 23.0257 61.9946 22.7504 61.9946 22.4104V20.3946C61.9946 20.0546 61.7193 19.7793 61.3793 19.7793V19.7874Z" fill="#3A3A3A"/>
<path d="M65.459 20.4109V22.4267H66.2928V29.7048H65.459L65.4752 31.6478H71.6522L72.9152 30.5225V21.4957L71.6765 20.4109H65.459ZM70.5674 29.6724H68.4868V22.4267H70.5674V29.6724Z" fill="url(#paint6_linear_14477_2694)" fill-opacity="0.41"/>
<path d="M71.6849 20.4109L72.9235 21.4958V30.5225L71.6606 31.6479H65.4835L65.4673 29.7049H66.3012V22.4268H65.4673V20.4109H71.6849ZM68.487 29.6725H70.5677V22.4268H68.487V29.6725ZM71.6849 19.7957H65.4673C65.1273 19.7957 64.8521 20.0709 64.8521 20.4109V22.4268C64.8521 22.7668 65.1273 23.0421 65.4673 23.0421H65.6859V29.0815H65.4673C65.3054 29.0815 65.1435 29.1463 65.0302 29.2677C64.9168 29.381 64.8521 29.543 64.8521 29.7049L64.8682 31.6479C64.8682 31.9879 65.1435 32.2631 65.4835 32.2631H71.6606C71.8144 32.2631 71.9601 32.2065 72.0735 32.1093L73.3364 30.984C73.4659 30.8707 73.5469 30.7006 73.5469 30.5225V21.4958C73.5469 21.3177 73.474 21.1476 73.3364 21.0343L72.0978 19.9495C71.9844 19.8523 71.8387 19.7957 71.693 19.7957H71.6849ZM69.1104 23.0421H69.9605V29.0572H69.1104V23.0421Z" fill="#3A3A3A"/>
<path d="M76.2258 29.292H74.1128V31.6236H76.2258V29.292Z" fill="url(#paint7_linear_14477_2694)" fill-opacity="0.41"/>
<path d="M76.2263 29.292V31.6236H74.1133V29.292H76.2263ZM76.2263 28.6768H74.1133C73.7733 28.6768 73.498 28.952 73.498 29.292V31.6236C73.498 31.9636 73.7733 32.2389 74.1133 32.2389H76.2263C76.5663 32.2389 76.8416 31.9636 76.8416 31.6236V29.292C76.8416 28.952 76.5663 28.6768 76.2263 28.6768Z" fill="#3A3A3A"/>
<path d="M77.0846 21.3985H77.9508V29.4538H77.0684V31.6315H81.3024V29.4538H80.3876V26.4583H82.3063V24.2725H80.3876V21.3985H82.8568V22.7586H85.237V19.1641H77.0846V21.3985Z" fill="url(#paint8_linear_14477_2694)" fill-opacity="0.41"/>
<path d="M85.2372 19.1641V22.7587H82.8571V21.3986H80.3879V24.2645H82.2985V26.4584H80.3879V29.4539H81.2946V31.6316H77.0686V29.4539H77.951V21.3986H77.0848V19.1641H85.2291M85.2291 18.5489H77.0848C76.7448 18.5489 76.4695 18.8241 76.4695 19.1641V21.3986C76.4695 21.7386 76.7448 22.0139 77.0848 22.0139H77.3358V28.8305H77.0767C76.7367 28.8305 76.4614 29.1057 76.4614 29.4458V31.6235C76.4614 31.9636 76.7367 32.2388 77.0767 32.2388H81.3027C81.6427 32.2388 81.918 31.9636 81.918 31.6235V29.4458C81.918 29.1057 81.6427 28.8305 81.3027 28.8305H81.0112V27.0737H82.3066C82.6466 27.0737 82.9218 26.7985 82.9218 26.4584V24.2645C82.9218 23.9245 82.6466 23.6492 82.3066 23.6492H81.0112V22.0139H82.2418V22.7506C82.2418 23.0906 82.5171 23.3658 82.8571 23.3658H85.2372C85.5773 23.3658 85.8525 23.0906 85.8525 22.7506V19.156C85.8525 18.816 85.5773 18.5408 85.2372 18.5408L85.2291 18.5489Z" fill="#3A3A3A"/>
<path d="M86.8162 20.4109L85.7476 21.4958V30.733L86.6462 31.6317H91.4551L92.4832 30.5873V21.4472L91.4308 20.4028H86.8243L86.8162 20.4109ZM90.3055 29.6887H87.9334V22.4268H90.3055V29.6887Z" fill="url(#paint9_linear_14477_2694)" fill-opacity="0.41"/>
<path d="M91.4225 20.4109L92.475 21.4553V30.5954L91.4468 31.6398H86.6379L85.7393 30.7411V21.5039L86.8079 20.419H91.4144M87.9171 29.6968H90.2891V22.4349H87.9171V29.6968ZM91.4144 19.8038H86.8079C86.646 19.8038 86.4841 19.8685 86.3708 19.99L85.3021 21.0748C85.1888 21.1881 85.124 21.35 85.124 21.512V30.7492C85.124 30.9111 85.1888 31.0731 85.3021 31.1864L86.2008 32.085C86.3141 32.1984 86.476 32.2631 86.6379 32.2631H91.4468C91.6087 32.2631 91.7706 32.1984 91.884 32.0769L92.9121 31.0326C93.0255 30.9192 93.0903 30.7573 93.0903 30.5954V21.4553C93.0903 21.2934 93.0255 21.1315 92.9041 21.0181L91.8516 19.9738C91.7383 19.8604 91.5763 19.7957 91.4144 19.7957V19.8038ZM88.5323 23.0502H89.6738V29.0815H88.5323V23.0502Z" fill="#3A3A3A"/>
<path d="M98.4656 26.9765H99.1618L100.344 25.835V21.6657L99.2914 20.4189H93.171V22.4186H93.9482V29.6643H93.1548V31.6235H96.9436V29.6643H96.2393V27.0575H96.3364L97.7289 29.6643H97.2674V31.6235H100.409V29.6643H99.9957L98.4818 26.9684L98.4656 26.9765ZM98.0203 24.9607H96.2312V22.4348H98.0203V24.9607Z" fill="url(#paint10_linear_14477_2694)" fill-opacity="0.41"/>
<path d="M99.2832 20.419L100.336 21.6657V25.8351L99.1537 26.9766H98.4574L99.9713 29.6724H100.384V31.6316H97.2431V29.6724H97.7045L96.3121 27.0656H96.2149V29.6724H96.9192V31.6316H93.1304V29.6724H93.9238V22.4267H93.1466V20.4271H99.267M96.2149 24.9688H98.0041V22.4429H96.2149V24.9688ZM99.267 19.8118H93.1466C92.8066 19.8118 92.5313 20.0871 92.5313 20.4271V22.4267C92.5313 22.7668 92.8066 23.042 93.1466 23.042H93.3085V29.0572H93.1304C92.7904 29.0572 92.5151 29.3324 92.5151 29.6724V31.6316C92.5151 31.9716 92.7904 32.2469 93.1304 32.2469H96.9192C96.9759 32.2469 97.0245 32.2469 97.0811 32.2226C97.1297 32.2388 97.1864 32.2469 97.2431 32.2469H100.384C100.724 32.2469 101 31.9716 101 31.6316V29.6724C101 29.3324 100.724 29.0572 100.384 29.0572H100.328L99.4613 27.5109C99.5018 27.4866 99.5423 27.4542 99.5746 27.4218L100.757 26.2803C100.878 26.167 100.943 26.0051 100.943 25.8351V21.6657C100.943 21.52 100.894 21.3824 100.797 21.269L99.7447 20.0223C99.6313 19.8847 99.4532 19.8037 99.2751 19.8037L99.267 19.8118ZM96.8302 23.0582H97.3888V24.3535H96.8302V23.0582Z" fill="#3A3A3A"/>
<path d="M104.836 22.4186H105.379V29.6724H103.46V22.4186H103.978V20.4675H100.958V22.3943H101.574V30.4496L102.764 31.6721H106.059L107.265 30.4496V22.4186H107.848V20.4675H104.836V22.4186Z" fill="url(#paint11_linear_14477_2694)" fill-opacity="0.41"/>
<path d="M107.848 20.4676V22.4268H107.265V30.4497L106.059 31.6722H102.764L101.566 30.4497V22.3944H100.959V20.4676H103.97V22.4268H103.46V29.6725H105.379V22.4268H104.837V20.4676H107.848ZM107.848 19.8523H104.837C104.667 19.8523 104.521 19.9171 104.408 20.0304C104.294 19.9252 104.148 19.8523 103.978 19.8523H100.967C100.627 19.8523 100.352 20.1276 100.352 20.4676V22.3944C100.352 22.7344 100.627 23.0097 100.959 23.0097V30.4497C100.959 30.6116 101.024 30.7654 101.137 30.8788L102.335 32.1012C102.448 32.2227 102.61 32.2874 102.78 32.2874H106.075C106.237 32.2874 106.399 32.2227 106.512 32.1012L107.719 30.8788C107.832 30.7654 107.897 30.6035 107.897 30.4416V23.034C108.221 23.0178 108.48 22.7506 108.48 22.4187V20.4595C108.48 20.1195 108.204 19.8442 107.864 19.8442L107.848 19.8523ZM104.076 23.034C104.205 23.0097 104.318 22.953 104.399 22.864C104.497 22.953 104.618 23.0178 104.756 23.034V29.0491H104.076V23.0259V23.034Z" fill="#3A3A3A"/>
<path d="M119.377 22.451V20.4189H115.474L114.041 27.9885L112.487 20.4189H108.391V22.451H109.224V29.6724H108.423V31.6397H112.228V29.6724H111.516V25.5436L113.224 31.6397H114.697L116.43 25.5436V29.6724H115.847V31.6397H119.377V29.6724H118.713V22.451H119.377Z" fill="url(#paint12_linear_14477_2694)" fill-opacity="0.41"/>
<path d="M119.377 20.419V22.4429H118.713V29.6644H119.377V31.6397H115.847V29.6644H116.43V25.5436L114.697 31.6397H113.224L111.516 25.5436V29.6644H112.22V31.6397H108.415V29.6644H109.225V22.4429H108.391V20.419H112.487L114.042 27.9885L115.474 20.419H119.377ZM119.377 19.8037H115.474C115.175 19.8037 114.924 20.0142 114.867 20.3056L114.017 24.7988L113.094 20.2976C113.038 20.0142 112.787 19.8037 112.487 19.8037H108.391C108.051 19.8037 107.775 20.079 107.775 20.419V22.4429C107.775 22.783 108.051 23.0582 108.391 23.0582H108.609V29.041H108.423C108.083 29.041 107.808 29.3162 107.808 29.6563V31.6316C107.808 31.9716 108.083 32.2469 108.423 32.2469H112.228C112.43 32.2469 112.617 32.1498 112.73 31.9878C112.843 32.1417 113.03 32.2469 113.232 32.2469H114.705C114.964 32.2469 115.191 32.085 115.28 31.8502C115.369 32.085 115.596 32.2469 115.855 32.2469H119.385C119.725 32.2469 120 31.9716 120 31.6316V29.6563C120 29.3162 119.725 29.041 119.385 29.041H119.336V23.0582H119.385C119.725 23.0582 120 22.783 120 22.4429V20.419C120 20.079 119.725 19.8037 119.385 19.8037H119.377Z" fill="#3A3A3A"/>
<path d="M1.00036 22.3698C0.919402 21.9488 0.911307 21.7383 0.919402 21.6412H2.2633V20.7183H0.822253C0.57938 20.7183 0.360795 20.8154 0.215071 21.0016C-0.0844725 21.374 -0.0197063 21.9731 0.10173 22.5641C0.279837 23.4708 1.38086 26.0453 4.25486 27.0896L4.57059 26.2234C1.6885 25.1709 1.01655 22.4103 1.00846 22.386L1.00036 22.3698Z" fill="#A8A8A8"/>
<path d="M12.9094 20.9938C12.7637 20.8157 12.5451 20.7104 12.3023 20.7104H10.8612V21.6334H12.2051C12.2132 21.7305 12.2051 21.941 12.1241 22.362C12.1241 22.3863 11.4441 25.1469 8.56201 26.1994L8.87775 27.0656C11.7517 26.0132 12.8528 23.4387 13.0309 22.5401C13.1523 21.9491 13.2171 21.35 12.9175 20.9776L12.9094 20.9938Z" fill="#A8A8A8"/>
<path d="M7.44477 27.7861H5.68799V29.3891H7.44477V27.7861Z" fill="#808080"/>
<path d="M9.81705 19.156H3.30806C2.02083 19.156 1.80225 19.0588 1.80225 19.9089C1.80225 23.22 3.05709 28.2556 6.57065 28.2556C10.0842 28.2556 11.3391 23.2119 11.3391 19.9089C11.3391 19.0588 11.1124 19.156 9.83325 19.156H9.81705Z" fill="#BDBDBD"/>
<path d="M5.38042 29.9722H7.74439C8.75636 29.9722 9.58213 30.7979 9.58213 31.8099H3.55078C3.55078 30.7979 4.37655 29.9722 5.38852 29.9722H5.38042Z" fill="#949494"/>
<path d="M5.65539 29.0896H7.46884C7.95458 29.0896 8.35128 29.4863 8.35128 29.972H4.77295C4.77295 29.4863 5.16964 29.0896 5.65539 29.0896Z" fill="#808080"/>
<path d="M9.81636 19.156H9.24156C8.99869 22.4348 6.94237 25.2926 3.91455 27.0089C4.60269 27.778 5.46894 28.2637 6.56187 28.2637C10.0673 28.2637 11.3303 23.2201 11.3303 19.917C11.3303 19.067 11.1036 19.1641 9.82446 19.1641L9.81636 19.156Z" fill="#A7A7A7"/>
<path d="M6.56224 26.2319C8.12268 26.2319 9.38766 24.9669 9.38766 23.4065C9.38766 21.846 8.12268 20.5811 6.56224 20.5811C5.0018 20.5811 3.73682 21.846 3.73682 23.4065C3.73682 24.9669 5.0018 26.2319 6.56224 26.2319Z" fill="#585858"/>
<path d="M6.56225 26.3857C4.91881 26.3857 3.58301 25.0499 3.58301 23.4065C3.58301 21.763 4.91881 20.4272 6.56225 20.4272C8.20569 20.4272 9.54149 21.763 9.54149 23.4065C9.54149 25.0499 8.20569 26.3857 6.56225 26.3857ZM6.56225 20.743C5.08882 20.743 3.89065 21.9412 3.89065 23.4146C3.89065 24.888 5.08882 26.0862 6.56225 26.0862C8.03568 26.0862 9.23385 24.888 9.23385 23.4146C9.23385 21.9412 8.03568 20.743 6.56225 20.743Z" fill="#808080"/>
<path d="M7.69528 22.7748C7.71957 23.042 7.62242 23.2363 7.40383 23.3496C7.57385 23.3901 7.70338 23.4629 7.79243 23.5763C7.88149 23.6896 7.91387 23.8434 7.88958 24.0539C7.88149 24.1592 7.8572 24.2482 7.81672 24.3292C7.77624 24.4101 7.72767 24.4749 7.67099 24.5235C7.61432 24.5721 7.54146 24.6206 7.45241 24.653C7.36336 24.6854 7.2743 24.7097 7.18525 24.7259C7.0881 24.7421 6.98285 24.7502 6.86142 24.7583V25.325H6.5214V24.7664C6.39996 24.7664 6.31091 24.7664 6.25424 24.7664V25.325H5.91421V24.7583C5.91421 24.7583 5.84945 24.7583 5.79278 24.7583C5.73611 24.7583 5.69563 24.7583 5.67134 24.7583H5.22607L5.29084 24.3535H5.53371C5.60658 24.3535 5.64705 24.313 5.66325 24.2401V22.71C5.64705 22.6129 5.58229 22.5562 5.46895 22.5562H5.22607V22.1919H5.69563C5.79278 22.1919 5.86564 22.1919 5.91421 22.1919V21.6333H6.25424V22.1838C6.37567 22.1838 6.46473 22.1838 6.5214 22.1838V21.6414H6.86142V22.2C6.97476 22.2081 7.08 22.2243 7.16906 22.2486C7.25811 22.2729 7.33907 22.3052 7.42003 22.3457C7.50098 22.3862 7.55765 22.4429 7.60623 22.5157C7.6548 22.5886 7.67909 22.6696 7.68719 22.7667L7.69528 22.7748ZM7.21763 23.9811C7.21763 23.9244 7.20954 23.8839 7.18525 23.8353C7.16096 23.7868 7.13667 23.7625 7.10429 23.7301C7.07191 23.7058 7.03143 23.6815 6.97476 23.6653C6.92618 23.6491 6.87761 23.633 6.82904 23.6249C6.78856 23.6168 6.73189 23.6087 6.66712 23.6087C6.60235 23.6087 6.55378 23.6087 6.5133 23.6087C6.47282 23.6087 6.43234 23.6087 6.36758 23.6087C6.31091 23.6087 6.27043 23.6087 6.26233 23.6087V24.3535C6.26233 24.3535 6.30281 24.3535 6.34329 24.3535C6.38377 24.3535 6.42425 24.3535 6.44853 24.3535C6.47282 24.3535 6.5133 24.3535 6.56188 24.3535C6.61045 24.3535 6.65902 24.3535 6.69141 24.3454C6.72379 24.3373 6.77237 24.3373 6.82094 24.3292C6.86951 24.3211 6.90999 24.313 6.94238 24.2968C6.97476 24.2887 7.01524 24.2725 7.04762 24.2482C7.08 24.232 7.11239 24.2078 7.13667 24.1835C7.16096 24.1592 7.17715 24.1268 7.19335 24.0944C7.20954 24.062 7.21763 24.0216 7.21763 23.9811ZM7.06381 22.9286C7.06381 22.88 7.05572 22.8396 7.03953 22.7991C7.02333 22.7586 6.99905 22.7343 6.97476 22.71C6.95047 22.6858 6.90999 22.6615 6.86951 22.6453C6.82904 22.6291 6.78856 22.6129 6.74808 22.6048C6.7076 22.6048 6.66712 22.5886 6.61045 22.5886C6.55378 22.5886 6.5133 22.5886 6.48092 22.5886C6.44853 22.5886 6.40806 22.5886 6.35948 22.5886C6.31091 22.5886 6.27852 22.5886 6.27043 22.5886V23.2686C6.27043 23.2686 6.30281 23.2686 6.34329 23.2686C6.38377 23.2686 6.42425 23.2686 6.44853 23.2686C6.47282 23.2686 6.5133 23.2686 6.56188 23.2686C6.61045 23.2686 6.65093 23.2686 6.68331 23.2525C6.7157 23.2525 6.75617 23.2363 6.79665 23.2282C6.83713 23.2201 6.87761 23.2039 6.9019 23.1877C6.92618 23.1715 6.95857 23.1472 6.98286 23.131C7.00714 23.1067 7.03143 23.0824 7.03953 23.042C7.04762 23.0015 7.05572 22.9691 7.05572 22.9286H7.06381Z" fill="white"/>
<path d="M4.93502 21.018L5.53411 21.3419L4.93502 21.6738L4.61119 22.2648L4.27926 21.6738L3.68018 21.3419L4.27926 21.018L4.61119 20.4189L4.93502 21.018Z" fill="#FDFDFD"/>
<path d="M23.6846 31.6156H19.5315V29.4379H20.3492V21.3664H19.5639V22.8641H17.5562V19.2048H25.6114V22.8641H23.6037V21.3664H22.8184V29.4379H23.6846V31.6156Z" fill="url(#paint13_linear_14477_2694)"/>
<path d="M27.1901 31.6153L26.2915 30.7166V21.4794L27.3601 20.3945H31.9666L33.0191 21.4389V30.579L31.9909 31.6234H27.182L27.1901 31.6153ZM30.8413 22.4104H28.4693V29.6723H30.8413V22.4104Z" fill="url(#paint14_linear_14477_2694)"/>
<path d="M37.9006 31.6316H34.0389V29.6563H34.8161V22.4348H34.0146V20.4109H39.8031L40.888 21.5119V25.7298L39.7464 26.8956H37.091L37.1072 29.6563H37.9168L37.9006 31.6316ZM38.5402 22.4105H37.0668V24.8717H38.5402V22.4105Z" fill="url(#paint15_linear_14477_2694)"/>
<path d="M42.5562 31.6154L41.3823 30.4415V20.1518L42.4186 19.1479H48.2637L49.389 20.2571V22.6615H46.9684V21.3824H43.7868V29.4377H46.936V27.2923H44.9283V25.0579H48.2152L49.389 26.2479V30.4901L48.2637 31.6154H42.5562Z" fill="url(#paint16_linear_14477_2694)"/>
<path d="M51.0324 31.6153L50.1338 30.7166V21.4794L51.2024 20.3945H55.8089L56.8614 21.4389V30.579L55.8332 31.6234H51.0243L51.0324 31.6153ZM54.6836 22.4104H52.3116V29.6723H54.6836V22.4104Z" fill="url(#paint17_linear_14477_2694)"/>
<path d="M60.6015 29.6642H62.6983V28.1746H64.8194V31.6153H57.5737V29.6561H58.4076V22.378H57.5899V20.3945H61.3787V22.4104H60.6015V29.6561V29.6642Z" fill="url(#paint18_linear_14477_2694)"/>
<path d="M71.6518 31.6315H65.4747L65.4585 29.6885H66.2924V22.4104H65.4585V20.3945H71.676L72.9147 21.4794V30.5061L71.6518 31.6315ZM70.5669 22.4104H68.4863V29.6561H70.5669V22.4104Z" fill="url(#paint19_linear_14477_2694)"/>
<path d="M76.2258 31.6155H74.1128V29.2839H76.2258V31.6155Z" fill="url(#paint20_linear_14477_2694)"/>
<path d="M81.3022 31.6154H77.0762V29.4377H77.9586V21.3824H77.0924V19.1479H85.2367V22.7425H82.8565V21.3824H80.3873V24.2483H82.2979V26.4422H80.3873V29.4377H81.2941V31.6154H81.3022Z" fill="url(#paint21_linear_14477_2694)"/>
<path d="M86.6452 31.6153L85.7466 30.7166V21.4794L86.8152 20.3945H91.4217L92.4742 21.4389V30.579L91.446 31.6234H86.6371L86.6452 31.6153ZM90.2964 22.4104H87.9243V29.6723H90.2964V22.4104Z" fill="url(#paint22_linear_14477_2694)"/>
<path d="M96.9353 31.6154H93.1465V29.6563H93.9399V22.4105H93.1627V20.4109H99.2831L100.336 21.6576V25.827L99.1535 26.9685H98.4573L99.9712 29.6643H100.384V31.6235H97.2429V29.6643H97.7044L96.3119 27.0575H96.2148V29.6643H96.9191V31.6235L96.9353 31.6154ZM98.0201 22.4186H96.231V24.9445H98.0201V22.4186Z" fill="url(#paint23_linear_14477_2694)"/>
<path d="M106.059 31.6643H102.764L101.566 30.4418V22.3865H100.958V20.4597H103.97V22.4189H103.46V29.6646H105.379V22.4189H104.836V20.4597H107.848V22.4189H107.265V30.4418L106.059 31.6643Z" fill="url(#paint24_linear_14477_2694)"/>
<path d="M115.474 20.4109H119.377V22.4348H118.713V29.6563H119.377V31.6316H115.847V29.6563H116.43V25.5355L114.697 31.6316H113.224L111.516 25.5355V29.6563H112.22V31.6316H108.415V29.6563H109.224V22.4348H108.391V20.4109H112.487L114.041 27.9804L115.474 20.4109Z" fill="url(#paint25_linear_14477_2694)"/>
<path d="M23.6846 31.6156H19.5315V29.4379H20.3492V21.3664H19.5639V22.8641H17.5562V19.2048H25.6114V22.8641H23.6037V21.3664H22.8184V29.4379H23.6846V31.6156Z" fill="#FDFDFD"/>
<path d="M27.1901 31.6153L26.2915 30.7166V21.4794L27.3601 20.3945H31.9666L33.0191 21.4389V30.579L31.9909 31.6234H27.182L27.1901 31.6153ZM30.8413 22.4104H28.4693V29.6723H30.8413V22.4104Z" fill="#FDFDFD"/>
<path d="M37.9006 31.6316H34.0389V29.6563H34.8161V22.4348H34.0146V20.4109H39.8031L40.888 21.5119V25.7298L39.7464 26.8956H37.091L37.1072 29.6563H37.9168L37.9006 31.6316ZM38.5402 22.4105H37.0668V24.8717H38.5402V22.4105Z" fill="#FDFDFD"/>
<path d="M42.5562 31.6154L41.3823 30.4415V20.1518L42.4186 19.1479H48.2637L49.389 20.2571V22.6615H46.9684V21.3824H43.7868V29.4377H46.936V27.2923H44.9283V25.0579H48.2152L49.389 26.2479V30.4901L48.2637 31.6154H42.5562Z" fill="#FDFDFD"/>
<path d="M51.0324 31.6153L50.1338 30.7166V21.4794L51.2024 20.3945H55.8089L56.8614 21.4389V30.579L55.8332 31.6234H51.0243L51.0324 31.6153ZM54.6836 22.4104H52.3116V29.6723H54.6836V22.4104Z" fill="#FDFDFD"/>
<path d="M60.6015 29.6642H62.6983V28.1746H64.8194V31.6153H57.5737V29.6561H58.4076V22.378H57.5899V20.3945H61.3787V22.4104H60.6015V29.6561V29.6642Z" fill="#FDFDFD"/>
<path d="M71.6518 31.6315H65.4747L65.4585 29.6885H66.2924V22.4104H65.4585V20.3945H71.676L72.9147 21.4794V30.5061L71.6518 31.6315ZM70.5669 22.4104H68.4863V29.6561H70.5669V22.4104Z" fill="#FDFDFD"/>
<path d="M76.2258 31.6155H74.1128V29.2839H76.2258V31.6155Z" fill="#FDFDFD"/>
<path d="M81.3022 31.6154H77.0762V29.4377H77.9586V21.3824H77.0924V19.1479H85.2367V22.7425H82.8565V21.3824H80.3873V24.2483H82.2979V26.4422H80.3873V29.4377H81.2941V31.6154H81.3022Z" fill="#FDFDFD"/>
<path d="M86.6452 31.6153L85.7466 30.7166V21.4794L86.8152 20.3945H91.4217L92.4742 21.4389V30.579L91.446 31.6234H86.6371L86.6452 31.6153ZM90.2964 22.4104H87.9243V29.6723H90.2964V22.4104Z" fill="#FDFDFD"/>
<path d="M96.9353 31.6154H93.1465V29.6563H93.9399V22.4105H93.1627V20.4109H99.2831L100.336 21.6576V25.827L99.1535 26.9685H98.4573L99.9712 29.6643H100.384V31.6235H97.2429V29.6643H97.7044L96.3119 27.0575H96.2148V29.6643H96.9191V31.6235L96.9353 31.6154ZM98.0201 22.4186H96.231V24.9445H98.0201V22.4186Z" fill="#FDFDFD"/>
<path d="M106.059 31.6643H102.764L101.566 30.4418V22.3865H100.958V20.4597H103.97V22.4189H103.46V29.6646H105.379V22.4189H104.836V20.4597H107.848V22.4189H107.265V30.4418L106.059 31.6643Z" fill="#FDFDFD"/>
<path d="M115.474 20.4109H119.377V22.4348H118.713V29.6563H119.377V31.6316H115.847V29.6563H116.43V25.5355L114.697 31.6316H113.224L111.516 25.5355V29.6563H112.22V31.6316H108.415V29.6563H109.224V22.4348H108.391V20.4109H112.487L114.041 27.9804L115.474 20.4109Z" fill="#FDFDFD"/>
<path d="M23.6846 31.6156H19.5315V29.4379H20.3492V21.3664H19.5639V22.8641H17.5562V19.2048H25.6114V22.8641H23.6037V21.3664H22.8184V29.4379H23.6846V31.6156Z" fill="url(#paint26_linear_14477_2694)" fill-opacity="0.41"/>
<path d="M27.1901 31.6153L26.2915 30.7166V21.4794L27.3601 20.3945H31.9666L33.0191 21.4389V30.579L31.9909 31.6234H27.182L27.1901 31.6153ZM30.8413 22.4104H28.4693V29.6723H30.8413V22.4104Z" fill="url(#paint27_linear_14477_2694)" fill-opacity="0.41"/>
<path d="M37.9006 31.6316H34.0389V29.6563H34.8161V22.4348H34.0146V20.4109H39.8031L40.888 21.5119V25.7298L39.7464 26.8956H37.091L37.1072 29.6563H37.9168L37.9006 31.6316ZM38.5402 22.4105H37.0668V24.8717H38.5402V22.4105Z" fill="url(#paint28_linear_14477_2694)" fill-opacity="0.41"/>
<path d="M42.5562 31.6154L41.3823 30.4415V20.1518L42.4186 19.1479H48.2637L49.389 20.2571V22.6615H46.9684V21.3824H43.7868V29.4377H46.936V27.2923H44.9283V25.0579H48.2152L49.389 26.2479V30.4901L48.2637 31.6154H42.5562Z" fill="url(#paint29_linear_14477_2694)" fill-opacity="0.41"/>
<path d="M51.0324 31.6153L50.1338 30.7166V21.4794L51.2024 20.3945H55.8089L56.8614 21.4389V30.579L55.8332 31.6234H51.0243L51.0324 31.6153ZM54.6836 22.4104H52.3116V29.6723H54.6836V22.4104Z" fill="url(#paint30_linear_14477_2694)" fill-opacity="0.41"/>
<path d="M60.6015 29.6642H62.6983V28.1746H64.8194V31.6153H57.5737V29.6561H58.4076V22.378H57.5899V20.3945H61.3787V22.4104H60.6015V29.6561V29.6642Z" fill="url(#paint31_linear_14477_2694)" fill-opacity="0.41"/>
<path d="M71.6518 31.6315H65.4747L65.4585 29.6885H66.2924V22.4104H65.4585V20.3945H71.676L72.9147 21.4794V30.5061L71.6518 31.6315ZM70.5669 22.4104H68.4863V29.6561H70.5669V22.4104Z" fill="url(#paint32_linear_14477_2694)" fill-opacity="0.41"/>
<path d="M76.2258 31.6155H74.1128V29.2839H76.2258V31.6155Z" fill="url(#paint33_linear_14477_2694)" fill-opacity="0.41"/>
<path d="M81.3022 31.6154H77.0762V29.4377H77.9586V21.3824H77.0924V19.1479H85.2367V22.7425H82.8565V21.3824H80.3873V24.2483H82.2979V26.4422H80.3873V29.4377H81.2941V31.6154H81.3022Z" fill="url(#paint34_linear_14477_2694)" fill-opacity="0.41"/>
<path d="M86.6452 31.6153L85.7466 30.7166V21.4794L86.8152 20.3945H91.4217L92.4742 21.4389V30.579L91.446 31.6234H86.6371L86.6452 31.6153ZM90.2964 22.4104H87.9243V29.6723H90.2964V22.4104Z" fill="url(#paint35_linear_14477_2694)" fill-opacity="0.41"/>
<path d="M96.9353 31.6154H93.1465V29.6563H93.9399V22.4105H93.1627V20.4109H99.2831L100.336 21.6576V25.827L99.1535 26.9685H98.4573L99.9712 29.6643H100.384V31.6235H97.2429V29.6643H97.7044L96.3119 27.0575H96.2148V29.6643H96.9191V31.6235L96.9353 31.6154ZM98.0201 22.4186H96.231V24.9445H98.0201V22.4186Z" fill="url(#paint36_linear_14477_2694)" fill-opacity="0.41"/>
<path d="M106.059 31.6643H102.764L101.566 30.4418V22.3865H100.958V20.4597H103.97V22.4189H103.46V29.6646H105.379V22.4189H104.836V20.4597H107.848V22.4189H107.265V30.4418L106.059 31.6643Z" fill="url(#paint37_linear_14477_2694)" fill-opacity="0.41"/>
<path d="M115.474 20.4109H119.377V22.4348H118.713V29.6563H119.377V31.6316H115.847V29.6563H116.43V25.5355L114.697 31.6316H113.224L111.516 25.5355V29.6563H112.22V31.6316H108.415V29.6563H109.224V22.4348H108.391V20.4109H112.487L114.041 27.9804L115.474 20.4109Z" fill="url(#paint38_linear_14477_2694)" fill-opacity="0.41"/>
<path d="M5.45305 16.282H0.692744V14.8409H1.28374V9.48962H0.668457V8H5.44496L6.27073 8.73671V11.2788L5.67974 11.9831L6.27073 12.5984V15.3914L5.44496 16.2901L5.45305 16.282ZM4.56252 12.8251H2.91098V14.849H4.56252V12.8251ZM4.53823 9.522H2.91908V11.3355H4.53823V9.522Z" fill="white"/>
<path d="M12.0593 16.274H6.69185V14.8329H7.27474V9.48971H6.65137V8.03247H12.0593V10.4126H10.4807V9.514H8.8858V11.4084H10.1245V12.8575H8.8858V14.841H10.4969V13.7481H12.0593V16.2821V16.274Z" fill="white"/>
<path d="M12.4478 13.8452H14.0507V14.849H15.9289V12.8575H13.2249L12.4478 12.1046V8.7772L13.2007 8.04858H16.7142L17.5643 8.88245V10.4611H15.9127V9.51392H14.0669V11.3678H16.779L17.5319 12.1208V15.4886L16.7466 16.2658H13.3383L12.4478 15.3914V13.8371V13.8452Z" fill="white"/>
<path d="M21.96 16.274H19.2155V14.833H19.7579V9.49785H19.2398V10.4855H17.9121V8.073H23.2391V10.4936H21.9114V9.50595H21.3933V14.8411H21.9681V16.2821L21.96 16.274Z" fill="white"/>
<path d="M30.3472 13.3838H31.9583V15.5291L31.2135 16.274H27.6756L26.8984 15.4968V8.69632L27.5785 8.03247H31.2135L31.9583 8.76919V10.3641H30.3553V9.514H28.4852V14.841H30.3391V13.3919L30.3472 13.3838Z" fill="white"/>
<path d="M35.1565 16.2739H32.3716V14.8329H32.9545V9.51396H32.3797V8.04053H36.8809L37.6581 8.95535V12.0155L36.7919 12.8494H36.2818L37.391 14.8329H37.6986V16.2739H35.3913V14.8329H35.7313L34.7113 12.9142H34.6384V14.8329H35.1565V16.2739ZM35.9499 9.52205H34.6303V11.376H35.9499V9.52205Z" fill="white"/>
<path d="M41.6329 12.7037V14.8329H42.151V16.2739H39.4794V14.8329H39.9813V12.7118L38.686 9.50586H38.3379V8.04053H40.6452V9.51396H40.289L40.8071 10.8012L41.309 9.52205H40.9447V8.04053H43.2034V9.51396H42.7582L41.6491 12.7118L41.6329 12.7037Z" fill="white"/>
<path d="M46.5714 16.282H43.7379V14.8329H44.3127V9.53015H43.7217V8.04053H47.9801L48.7734 8.8501V11.9508L47.9396 12.8089H45.9885V14.841H46.5876V16.2901L46.5714 16.282ZM47.0409 9.50586H45.9561V11.3112H47.0409V9.51396V9.50586Z" fill="white"/>
<path d="M53.1861 16.274H50.4416V14.833H50.984V9.49785H50.4659V10.4855H49.1382V8.073H54.4652V10.4936H53.1375V9.50595H52.6194V14.8411H53.1942V16.2821L53.1861 16.274Z" fill="white"/>
<path d="M55.574 16.274L54.9102 15.6101V8.82586L55.6954 8.03247H59.0795L59.8567 8.80157V15.513L59.1038 16.2821H55.574V16.274ZM58.2537 9.5059H56.505V14.841H58.2537V9.514V9.5059Z" fill="white"/>
<path d="M67.0133 13.3838H68.6243V15.5291L67.8795 16.274H64.3417L63.5645 15.4968V8.69632L64.2445 8.03247H67.8795L68.6243 8.76919V10.3641H67.0213V9.514H65.1512V14.841H67.0052V13.3919L67.0133 13.3838Z" fill="white"/>
<path d="M71.2153 16.2739H69.0537V14.8571H69.3533L70.5919 9.53011H70.2357V8.04858H72.6725V9.50582H72.3973L73.7573 14.8328H74.0569V16.2739H71.8872V14.8328H72.2434L72.1301 14.3876H70.9805L70.8591 14.8328H71.2396V16.2739H71.2153ZM71.8386 13.2865L71.5229 12.0074L71.1991 13.2865H71.8386Z" fill="white"/>
<path d="M74.4209 13.8452H76.0239V14.849H77.9021V12.8575H75.1981L74.4209 12.1046V8.7772L75.1738 8.04858H78.6874L79.5374 8.88245V10.4611H77.8859V9.51392H76.0401V11.3678H78.7521L79.505 12.1208V15.4886L78.7197 16.2658H75.3114L74.4209 15.3914V13.8371V13.8452Z" fill="white"/>
<path d="M82.7437 14.8329V16.274H79.9507V14.8329H80.5498V9.48971H79.9588V8.03247H82.7437V9.514H82.1608V14.841H82.7437V14.8329Z" fill="white"/>
<path d="M85.9414 16.282H83.2374V14.7924H83.8527V9.48157H83.2212V8.04053H85.6094L86.7995 11.5622V9.44919H86.2166V8.04053H89.034V9.48157H88.4511V14.8005H89.034V16.2901H86.8076L85.4394 12.0884V14.8248H85.9414V16.2982V16.282Z" fill="white"/>
<path d="M89.9807 16.274L89.3169 15.6101V8.82586L90.1022 8.03247H93.4862L94.2634 8.80157V15.513L93.5105 16.2821H89.9807V16.274ZM92.6604 9.5059H90.9118V14.841H92.6604V9.514V9.5059Z" fill="white"/>
<path d="M102.967 16.274H97.9634V12.0075L98.943 11.0522H101.404V9.70829H99.4449V10.4936H97.9634V8.86633L98.8215 8.03247H102.141L102.975 8.82586V11.797L102.165 12.6471H99.4368V14.8086H101.501V14.0233H102.958V16.2821L102.967 16.274Z" fill="white"/>
<path d="M104.416 16.274L103.744 15.6101V8.82586L104.537 8.03247H107.913L108.69 8.80157V15.513L107.937 16.2821H104.416V16.274ZM107.095 9.5059H105.339V14.841H107.095V9.514V9.5059Z" fill="white"/>
<path d="M113.945 16.274H108.941V12.0075L109.921 11.0522H112.382V9.70829H110.423V10.4936H108.941V8.86633L109.8 8.03247H113.119L113.953 8.82586V11.797L113.143 12.6471H110.415V14.8086H112.479V14.0233H113.936V16.2821L113.945 16.274Z" fill="white"/>
<path d="M114.471 13.991H116.025V14.8167H117.855V12.6471H116.066V11.117H117.814V9.55447H116.049V10.2345H114.479V8.82586L115.248 8.03247H118.705L119.385 8.72871V11.117L118.729 11.7079L119.344 12.3475V15.4806L118.551 16.274H115.264L114.479 15.6182V13.9829L114.471 13.991Z" fill="white"/>
<defs>
<linearGradient id="paint0_linear_14477_2694" x1="21.5797" y1="19.2209" x2="21.5797" y2="31.6318" gradientUnits="userSpaceOnUse">
<stop stop-color="white"/>
<stop offset="1" stop-color="#1D1D1B"/>
</linearGradient>
<linearGradient id="paint1_linear_14477_2694" x1="29.6593" y1="20.4109" x2="29.6593" y2="8.00012" gradientUnits="userSpaceOnUse">
<stop stop-color="white"/>
<stop offset="1" stop-color="#1D1D1B"/>
</linearGradient>
<linearGradient id="paint2_linear_14477_2694" x1="37.4475" y1="20.4189" x2="37.4475" y2="31.6397" gradientUnits="userSpaceOnUse">
<stop stop-color="white"/>
<stop offset="1" stop-color="#1D1D1B"/>
</linearGradient>
<linearGradient id="paint3_linear_14477_2694" x1="45.3897" y1="19.1641" x2="45.3897" y2="8" gradientUnits="userSpaceOnUse">
<stop stop-color="white"/>
<stop offset="1" stop-color="#1D1D1B"/>
</linearGradient>
<linearGradient id="paint4_linear_14477_2694" x1="53.5016" y1="20.4109" x2="53.5016" y2="8.00012" gradientUnits="userSpaceOnUse">
<stop stop-color="white"/>
<stop offset="1" stop-color="#1D1D1B"/>
</linearGradient>
<linearGradient id="paint5_linear_14477_2694" x1="61.2006" y1="20.4109" x2="61.2006" y2="8.00008" gradientUnits="userSpaceOnUse">
<stop stop-color="white"/>
<stop offset="1" stop-color="#1D1D1B"/>
</linearGradient>
<linearGradient id="paint6_linear_14477_2694" x1="69.1911" y1="20.4109" x2="69.1911" y2="31.6397" gradientUnits="userSpaceOnUse">
<stop stop-color="white"/>
<stop offset="1" stop-color="#1D1D1B"/>
</linearGradient>
<linearGradient id="paint7_linear_14477_2694" x1="75.1652" y1="29.292" x2="75.1652" y2="8.00012" gradientUnits="userSpaceOnUse">
<stop stop-color="white"/>
<stop offset="1" stop-color="#1D1D1B"/>
</linearGradient>
<linearGradient id="paint8_linear_14477_2694" x1="81.1567" y1="19.1641" x2="81.1567" y2="8" gradientUnits="userSpaceOnUse">
<stop stop-color="white"/>
<stop offset="1" stop-color="#1D1D1B"/>
</linearGradient>
<linearGradient id="paint9_linear_14477_2694" x1="89.1073" y1="20.4109" x2="89.1073" y2="8.00012" gradientUnits="userSpaceOnUse">
<stop stop-color="white"/>
<stop offset="1" stop-color="#1D1D1B"/>
</linearGradient>
<linearGradient id="paint10_linear_14477_2694" x1="96.7655" y1="20.4189" x2="96.7655" y2="8.00004" gradientUnits="userSpaceOnUse">
<stop stop-color="white"/>
<stop offset="1" stop-color="#1D1D1B"/>
</linearGradient>
<linearGradient id="paint11_linear_14477_2694" x1="104.407" y1="20.4675" x2="104.407" y2="31.6721" gradientUnits="userSpaceOnUse">
<stop stop-color="white"/>
<stop offset="1" stop-color="#1D1D1B"/>
</linearGradient>
<linearGradient id="paint12_linear_14477_2694" x1="113.88" y1="20.4189" x2="113.88" y2="31.6397" gradientUnits="userSpaceOnUse">
<stop stop-color="white"/>
<stop offset="1" stop-color="#1D1D1B"/>
</linearGradient>
<linearGradient id="paint13_linear_14477_2694" x1="-0.00356013" y1="19.2129" x2="0.806016" y2="31.6156" gradientUnits="userSpaceOnUse">
<stop stop-color="white"/>
<stop offset="1" stop-color="#1D1D1B"/>
</linearGradient>
<linearGradient id="paint14_linear_14477_2694" x1="29.6593" y1="20.3945" x2="29.6593" y2="31.6153" gradientUnits="userSpaceOnUse">
<stop stop-color="white"/>
<stop offset="1" stop-color="#1D1D1B"/>
</linearGradient>
<linearGradient id="paint15_linear_14477_2694" x1="37.4473" y1="20.4109" x2="37.4473" y2="31.6316" gradientUnits="userSpaceOnUse">
<stop stop-color="white"/>
<stop offset="1" stop-color="#1D1D1B"/>
</linearGradient>
<linearGradient id="paint16_linear_14477_2694" x1="45.3897" y1="19.1479" x2="45.3897" y2="31.6154" gradientUnits="userSpaceOnUse">
<stop stop-color="white"/>
<stop offset="1" stop-color="#1D1D1B"/>
</linearGradient>
<linearGradient id="paint17_linear_14477_2694" x1="53.5016" y1="20.3945" x2="53.5016" y2="31.6153" gradientUnits="userSpaceOnUse">
<stop stop-color="white"/>
<stop offset="1" stop-color="#1D1D1B"/>
</linearGradient>
<linearGradient id="paint18_linear_14477_2694" x1="61.2006" y1="20.3945" x2="61.2006" y2="31.6153" gradientUnits="userSpaceOnUse">
<stop stop-color="white"/>
<stop offset="1" stop-color="#1D1D1B"/>
</linearGradient>
<linearGradient id="paint19_linear_14477_2694" x1="69.1906" y1="20.3945" x2="69.1906" y2="31.6315" gradientUnits="userSpaceOnUse">
<stop stop-color="white"/>
<stop offset="1" stop-color="#1D1D1B"/>
</linearGradient>
<linearGradient id="paint20_linear_14477_2694" x1="75.1652" y1="29.2839" x2="75.1652" y2="31.6155" gradientUnits="userSpaceOnUse">
<stop stop-color="white"/>
<stop offset="1" stop-color="#1D1D1B"/>
</linearGradient>
<linearGradient id="paint21_linear_14477_2694" x1="81.1564" y1="19.1479" x2="81.1564" y2="31.6154" gradientUnits="userSpaceOnUse">
<stop stop-color="white"/>
<stop offset="1" stop-color="#1D1D1B"/>
</linearGradient>
<linearGradient id="paint22_linear_14477_2694" x1="89.1063" y1="20.3945" x2="89.1063" y2="31.6153" gradientUnits="userSpaceOnUse">
<stop stop-color="white"/>
<stop offset="1" stop-color="#1D1D1B"/>
</linearGradient>
<linearGradient id="paint23_linear_14477_2694" x1="96.7653" y1="20.4109" x2="96.7653" y2="31.6154" gradientUnits="userSpaceOnUse">
<stop stop-color="white"/>
<stop offset="1" stop-color="#1D1D1B"/>
</linearGradient>
<linearGradient id="paint24_linear_14477_2694" x1="104.407" y1="20.4516" x2="104.407" y2="31.6643" gradientUnits="userSpaceOnUse">
<stop stop-color="white"/>
<stop offset="1" stop-color="#1D1D1B"/>
</linearGradient>
<linearGradient id="paint25_linear_14477_2694" x1="113.88" y1="20.4109" x2="113.88" y2="31.6316" gradientUnits="userSpaceOnUse">
<stop stop-color="white"/>
<stop offset="1" stop-color="#1D1D1B"/>
</linearGradient>
<linearGradient id="paint26_linear_14477_2694" x1="-0.00356013" y1="19.2129" x2="0.806016" y2="31.6156" gradientUnits="userSpaceOnUse">
<stop stop-color="white"/>
<stop offset="1" stop-color="#1D1D1B"/>
</linearGradient>
<linearGradient id="paint27_linear_14477_2694" x1="29.6593" y1="20.3945" x2="29.6593" y2="31.6153" gradientUnits="userSpaceOnUse">
<stop stop-color="white"/>
<stop offset="1" stop-color="#1D1D1B"/>
</linearGradient>
<linearGradient id="paint28_linear_14477_2694" x1="37.4473" y1="20.4109" x2="37.4473" y2="31.6316" gradientUnits="userSpaceOnUse">
<stop stop-color="white"/>
<stop offset="1" stop-color="#1D1D1B"/>
</linearGradient>
<linearGradient id="paint29_linear_14477_2694" x1="45.3897" y1="19.1479" x2="45.3897" y2="31.6154" gradientUnits="userSpaceOnUse">
<stop stop-color="white"/>
<stop offset="1" stop-color="#1D1D1B"/>
</linearGradient>
<linearGradient id="paint30_linear_14477_2694" x1="53.5016" y1="20.3945" x2="53.5016" y2="31.6153" gradientUnits="userSpaceOnUse">
<stop stop-color="white"/>
<stop offset="1" stop-color="#1D1D1B"/>
</linearGradient>
<linearGradient id="paint31_linear_14477_2694" x1="61.2006" y1="20.3945" x2="61.2006" y2="31.6153" gradientUnits="userSpaceOnUse">
<stop stop-color="white"/>
<stop offset="1" stop-color="#1D1D1B"/>
</linearGradient>
<linearGradient id="paint32_linear_14477_2694" x1="69.1906" y1="20.3945" x2="69.1906" y2="31.6315" gradientUnits="userSpaceOnUse">
<stop stop-color="white"/>
<stop offset="1" stop-color="#1D1D1B"/>
</linearGradient>
<linearGradient id="paint33_linear_14477_2694" x1="75.1652" y1="29.2839" x2="75.1652" y2="31.6155" gradientUnits="userSpaceOnUse">
<stop stop-color="white"/>
<stop offset="1" stop-color="#1D1D1B"/>
</linearGradient>
<linearGradient id="paint34_linear_14477_2694" x1="81.1564" y1="19.1479" x2="81.1564" y2="31.6154" gradientUnits="userSpaceOnUse">
<stop stop-color="white"/>
<stop offset="1" stop-color="#1D1D1B"/>
</linearGradient>
<linearGradient id="paint35_linear_14477_2694" x1="89.1063" y1="20.3945" x2="89.1063" y2="31.6153" gradientUnits="userSpaceOnUse">
<stop stop-color="white"/>
<stop offset="1" stop-color="#1D1D1B"/>
</linearGradient>
<linearGradient id="paint36_linear_14477_2694" x1="96.7653" y1="20.4109" x2="96.7653" y2="31.6154" gradientUnits="userSpaceOnUse">
<stop stop-color="white"/>
<stop offset="1" stop-color="#1D1D1B"/>
</linearGradient>
<linearGradient id="paint37_linear_14477_2694" x1="104.407" y1="20.4516" x2="104.407" y2="31.6643" gradientUnits="userSpaceOnUse">
<stop stop-color="white"/>
<stop offset="1" stop-color="#1D1D1B"/>
</linearGradient>
<linearGradient id="paint38_linear_14477_2694" x1="113.88" y1="20.4109" x2="113.88" y2="31.6316" gradientUnits="userSpaceOnUse">
<stop stop-color="white"/>
<stop offset="1" stop-color="#1D1D1B"/>
</linearGradient>
</defs>
</svg>
