<svg width="150" height="48" viewBox="0 0 150 48" fill="none" xmlns="http://www.w3.org/2000/svg">
<path d="M76.0167 8.85295L77.8144 7.52917C77.852 7.50193 77.88 7.46351 77.8945 7.4194C77.909 7.37528 77.9091 7.32773 77.8949 7.28352C77.8808 7.23932 77.853 7.20072 77.8156 7.17324C77.7781 7.14576 77.733 7.13081 77.6866 7.13052L75.4601 7.11548C75.4136 7.116 75.3681 7.10171 75.3302 7.07466C75.2923 7.04761 75.264 7.00922 75.2495 6.96503L74.55 4.85105C74.5353 4.80674 74.5071 4.76818 74.4693 4.74084C74.4315 4.71351 74.386 4.69879 74.3393 4.69879C74.2927 4.69879 74.2472 4.71351 74.2094 4.74084C74.1716 4.76818 74.1433 4.80674 74.1287 4.85105L73.4292 6.96503C73.4146 7.00922 73.3863 7.04761 73.3485 7.07466C73.3106 7.10171 73.2651 7.116 73.2186 7.11548L70.9921 7.13052C70.9457 7.13081 70.9005 7.14576 70.8631 7.17324C70.8257 7.20072 70.7979 7.23932 70.7837 7.28352C70.7695 7.32773 70.7697 7.37528 70.7842 7.4194C70.7986 7.46351 70.8266 7.50193 70.8642 7.52917L72.662 8.85295C72.6981 8.88205 72.7251 8.92092 72.7397 8.96492C72.7544 9.00892 72.7561 9.0562 72.7447 9.10115L72.0677 11.2222C72.0528 11.2665 72.0524 11.3144 72.0665 11.359C72.0806 11.4035 72.1085 11.4424 72.1462 11.4701C72.1839 11.4977 72.2294 11.5127 72.2761 11.5127C72.3229 11.5128 72.3684 11.498 72.4062 11.4705L74.2194 10.1692C74.257 10.1435 74.3016 10.1297 74.3472 10.1297C74.3929 10.1297 74.4374 10.1435 74.4751 10.1692L76.2883 11.4705C76.3261 11.498 76.3716 11.5128 76.4183 11.5127C76.4651 11.5127 76.5106 11.4977 76.5483 11.4701C76.586 11.4424 76.6139 11.4035 76.628 11.359C76.6421 11.3144 76.6417 11.2665 76.6268 11.2222L75.9498 9.10115C75.932 9.05819 75.9289 9.01056 75.941 8.96567C75.9531 8.92078 75.9797 8.88115 76.0167 8.85295Z" fill="#FCEE21"/>
<path d="M83.2421 8.52918L84.26 7.77965C84.2812 7.7642 84.2971 7.74245 84.3052 7.71748C84.3134 7.69251 84.3134 7.6656 84.3054 7.64059C84.2974 7.61558 84.2817 7.59375 84.2605 7.57819C84.2393 7.56264 84.2138 7.55416 84.1875 7.55398L82.927 7.54549C82.9007 7.54582 82.8749 7.53777 82.8535 7.52251C82.8321 7.50726 82.8161 7.48558 82.8078 7.46062L82.4116 6.26391C82.4034 6.2388 82.3874 6.21695 82.366 6.20145C82.3446 6.18596 82.3188 6.17761 82.2924 6.17761C82.266 6.17761 82.2402 6.18596 82.2188 6.20145C82.1974 6.21695 82.1814 6.2388 82.1732 6.26391L81.7771 7.46062C81.7688 7.48558 81.7527 7.50725 81.7313 7.52251C81.7099 7.53776 81.6841 7.54581 81.6578 7.54549L80.3973 7.55398C80.371 7.55413 80.3454 7.56259 80.3242 7.57814C80.303 7.5937 80.2873 7.61555 80.2793 7.64058C80.2712 7.66561 80.2713 7.69253 80.2795 7.71751C80.2877 7.74249 80.3036 7.76423 80.3249 7.77965L81.3427 8.52918C81.3632 8.54568 81.3784 8.5677 81.3867 8.59261C81.395 8.61753 81.396 8.6443 81.3896 8.66975L81.0062 9.87063C80.9978 9.89572 80.9975 9.92285 81.0055 9.94809C81.0135 9.97333 81.0293 9.99538 81.0506 10.011C81.072 10.0267 81.0978 10.0352 81.1242 10.0352C81.1507 10.0352 81.1765 10.0268 81.1979 10.0112L82.2241 9.27448C82.2454 9.25989 82.2706 9.25209 82.2964 9.25209C82.3223 9.25209 82.3475 9.25989 82.3688 9.27448L83.395 10.0112C83.4164 10.0268 83.4422 10.0351 83.4686 10.0351C83.4951 10.035 83.5208 10.0265 83.5421 10.0109C83.5635 9.99525 83.5793 9.97324 83.5873 9.94802C83.5953 9.92281 83.595 9.89571 83.5866 9.87063L83.2033 8.66975C83.1934 8.64533 83.1918 8.61829 83.1988 8.59286C83.2058 8.56743 83.2211 8.54504 83.2421 8.52918Z" fill="#FCEE21"/>
<path d="M67.336 8.52918L68.3538 7.77965C68.3751 7.76423 68.391 7.74249 68.3992 7.71751C68.4074 7.69253 68.4075 7.66561 68.3994 7.64058C68.3914 7.61555 68.3757 7.5937 68.3545 7.57814C68.3333 7.56259 68.3077 7.55413 68.2814 7.55398L67.0209 7.54549C66.9946 7.54581 66.9688 7.53776 66.9474 7.52251C66.9259 7.50725 66.9099 7.48558 66.9016 7.46062L66.5056 6.26391C66.4973 6.2388 66.4813 6.21695 66.4599 6.20145C66.4385 6.18596 66.4127 6.17761 66.3863 6.17761C66.3599 6.17761 66.3341 6.18596 66.3127 6.20145C66.2913 6.21695 66.2753 6.2388 66.2671 6.26391L65.8709 7.46062C65.8627 7.48558 65.8466 7.50726 65.8252 7.52251C65.8038 7.53777 65.778 7.54582 65.7517 7.54549L64.4912 7.55398C64.4649 7.55416 64.4394 7.56264 64.4182 7.57819C64.397 7.59375 64.3813 7.61558 64.3733 7.64059C64.3653 7.6656 64.3653 7.69251 64.3735 7.71748C64.3816 7.74245 64.3975 7.7642 64.4187 7.77965L65.4366 8.52918C65.457 8.54567 65.4723 8.56768 65.4806 8.5926C65.4889 8.61751 65.4899 8.64429 65.4835 8.66975L65.1002 9.87063C65.0917 9.89572 65.0914 9.92285 65.0994 9.94809C65.1074 9.97333 65.1232 9.99538 65.1446 10.011C65.1659 10.0267 65.1917 10.0352 65.2182 10.0352C65.2446 10.0352 65.2704 10.0268 65.2918 10.0112L66.318 9.27448C66.3393 9.25988 66.3646 9.25207 66.3904 9.25207C66.4162 9.25207 66.4415 9.25988 66.4628 9.27448L67.489 10.0112C67.5104 10.0268 67.5362 10.0352 67.5626 10.0352C67.5891 10.0352 67.6149 10.0267 67.6362 10.011C67.6576 9.99538 67.6734 9.97333 67.6814 9.94809C67.6894 9.92285 67.6891 9.89572 67.6806 9.87063L67.2974 8.66975C67.2874 8.64535 67.2858 8.61833 67.2928 8.5929C67.2997 8.56747 67.3149 8.54507 67.336 8.52918Z" fill="#FCEE21"/>
<path d="M38.4578 21.0963C38.0832 21.1677 37.7353 21.2121 36.9771 21.2121C35.88 21.2121 34.6223 20.6233 34.6223 18.4559V18.1587C34.6223 15.9734 35.88 15.4026 36.9771 15.4026C37.4796 15.4109 37.9807 15.4586 38.4757 15.5452C38.5559 15.5541 38.6184 15.5809 38.6184 15.6609V16.1161C38.6184 16.1697 38.6005 16.2143 38.5113 16.2143H38.4846C38.1634 16.1875 37.5034 16.134 36.9861 16.134C36.1119 16.134 35.434 16.6424 35.434 18.1588V18.4559C35.434 19.9544 36.1119 20.4807 36.9861 20.4807C37.4944 20.4807 38.1367 20.4361 38.4578 20.4094H38.4935C38.513 20.4061 38.533 20.4075 38.5518 20.4135C38.5706 20.4195 38.5877 20.43 38.6017 20.4439C38.6156 20.4579 38.626 20.475 38.632 20.4938C38.638 20.5126 38.6395 20.5326 38.6362 20.5521V20.9177C38.6362 21.025 38.5559 21.0785 38.4578 21.0963Z" fill="#44BE4C"/>
<path d="M45.1037 21.1499H44.5775C44.543 21.1502 44.5094 21.1389 44.4819 21.118C44.4544 21.097 44.4347 21.0675 44.4259 21.0341L43.846 19.2633H41.5358L40.9649 21.0341C40.9529 21.0673 40.9311 21.0961 40.9025 21.1168C40.8738 21.1374 40.8396 21.1489 40.8043 21.1499H40.2781C40.2599 21.1521 40.2415 21.1507 40.224 21.1456C40.2064 21.1405 40.1901 21.132 40.1759 21.1205C40.1618 21.1089 40.1501 21.0947 40.1416 21.0785C40.1331 21.0623 40.1279 21.0446 40.1264 21.0264C40.125 21.008 40.1281 20.9894 40.1353 20.9724L41.7855 15.9607C41.9372 15.491 42.3565 15.3755 42.6953 15.3755C43.0254 15.3755 43.4446 15.4836 43.5963 15.953L45.2464 20.9728C45.2537 20.9898 45.2568 21.0084 45.2554 21.0268C45.2554 21.0959 45.2019 21.1499 45.1037 21.1499ZM42.8649 16.1224C42.8573 16.0831 42.8361 16.0477 42.8051 16.0223C42.7741 15.9969 42.7352 15.9832 42.6952 15.9835C42.6538 15.9817 42.6131 15.9947 42.5804 16.0201C42.5478 16.0456 42.5252 16.0818 42.5168 16.1224L41.7182 18.6144H43.6649L42.8649 16.1224Z" fill="#44BE4C"/>
<path d="M52.1428 21.1499H51.6522C51.6072 21.1475 51.5651 21.1274 51.535 21.0939C51.5049 21.0605 51.4893 21.0165 51.4917 20.9715V15.6347C51.4906 15.6129 51.494 15.5912 51.5016 15.5707C51.5092 15.5503 51.5208 15.5316 51.5358 15.5157C51.5508 15.4999 51.5688 15.4872 51.5888 15.4785C51.6088 15.4698 51.6304 15.4652 51.6522 15.465H52.1428C52.1646 15.4652 52.1862 15.4697 52.2062 15.4785C52.2262 15.4872 52.2442 15.4998 52.2592 15.5157C52.2742 15.5315 52.2859 15.5502 52.2934 15.5707C52.301 15.5912 52.3044 15.6129 52.3034 15.6347V20.9715C52.3057 21.0165 52.2901 21.0605 52.26 21.094C52.2299 21.1274 52.1877 21.1475 52.1428 21.1499Z" fill="#44BE4C"/>
<path d="M58.4382 21.1499H57.8852C57.7424 21.1499 57.6443 21.0964 57.5997 21.0072L54.8435 16.714C54.8345 16.6961 54.8256 16.6872 54.8167 16.6872C54.8078 16.6872 54.8078 16.6961 54.8078 16.714V20.9805C54.8084 21.0242 54.7919 21.0663 54.7619 21.098C54.7319 21.1297 54.6908 21.1484 54.6472 21.1503H54.1834C54.0942 21.1503 54.0228 21.1325 54.0228 21.0433V15.715C54.023 15.6815 54.0299 15.6484 54.0431 15.6176C54.0563 15.5868 54.0755 15.559 54.0996 15.5357C54.1237 15.5124 54.1522 15.4942 54.1835 15.4821C54.2147 15.47 54.248 15.4643 54.2815 15.4652H54.7721C55.0218 15.4652 55.0664 15.5098 55.1378 15.6437L57.8762 19.9102L57.894 19.937C57.903 19.937 57.903 19.9192 57.903 19.9102V15.6347C57.9024 15.5911 57.9189 15.549 57.9488 15.5173C57.9788 15.4856 58.02 15.4669 58.0635 15.465H58.5363C58.5581 15.4652 58.5797 15.4697 58.5997 15.4785C58.6197 15.4872 58.6377 15.4998 58.6527 15.5157C58.6677 15.5315 58.6793 15.5502 58.6869 15.5707C58.6945 15.5912 58.6979 15.6129 58.6968 15.6347V20.8912C58.6968 20.9598 58.6695 21.0256 58.621 21.0741C58.5726 21.1226 58.5068 21.1498 58.4382 21.1499Z" fill="#44BE4C"/>
<path d="M62.7081 21.2124C61.3076 21.2124 60.2908 20.3917 60.2908 18.4117V18.2034C60.2908 16.2232 61.3076 15.4028 62.7081 15.4028C64.1085 15.4028 65.1165 16.2233 65.1165 18.2034V18.4117C65.1165 20.3914 64.1085 21.2124 62.7081 21.2124ZM64.2958 18.2034C64.2958 16.7049 63.6892 16.1341 62.7081 16.1341C61.7359 16.1341 61.1115 16.705 61.1115 18.2034V18.4117C61.1115 19.9102 61.7269 20.4811 62.7081 20.4811C63.6802 20.4811 64.2958 19.9101 64.2958 18.4117V18.2034Z" fill="#44BE4C"/>
<path d="M48.6856 18.095L47.8724 17.68C47.282 17.3397 47.0186 17.1298 47.0186 16.785C47.0186 16.2906 47.3745 16.0889 48.2469 16.0889C48.5936 16.0889 49.052 16.1074 49.6108 16.1435H49.6267C49.6465 16.1456 49.6665 16.1434 49.6854 16.1372C49.7043 16.131 49.7217 16.1208 49.7364 16.1074C49.7511 16.094 49.7628 16.0777 49.7708 16.0594C49.7788 16.0412 49.7828 16.0215 49.7826 16.0016V15.677C49.7826 15.6221 49.7562 15.5517 49.6298 15.5278C49.1714 15.4654 48.7095 15.4319 48.2469 15.4275C46.9571 15.4275 46.2468 15.9095 46.2468 16.7848C46.2468 17.4406 46.6885 17.8306 47.3525 18.2153L48.2046 18.6603C48.899 19.0672 49.1459 19.2784 49.1459 19.6536C49.1459 20.2388 48.7311 20.5233 47.878 20.5233C47.5205 20.5233 46.9466 20.499 46.5695 20.4679H46.5457C46.5259 20.4656 46.5058 20.4676 46.4868 20.4737C46.4678 20.4798 46.4503 20.4899 46.4355 20.5034C46.4208 20.5168 46.409 20.5333 46.4012 20.5516C46.3933 20.57 46.3894 20.5898 46.3898 20.6097V20.9118C46.3898 21.0066 46.4152 21.0445 46.5584 21.0685L46.5646 21.0694C46.9985 21.1436 47.4378 21.1821 47.878 21.1846C49.7926 21.1846 49.9414 20.0127 49.9414 19.6536C49.9409 19.0358 49.6009 18.6134 48.6856 18.095Z" fill="#44BE4C"/>
<path d="M24.2195 20.4653C24.2211 20.4352 24.2228 20.401 24.2218 20.3851C24.2165 20.2967 24.2169 20.1614 24.2174 19.9566C24.2174 19.9144 24.2174 19.8686 24.2174 19.8209C22.0835 21.6405 21.986 23.1494 22.1125 23.8764C22.1302 23.9784 22.2801 24.0412 22.4106 24.0412C22.5017 24.0412 22.5834 24.0103 22.6035 23.9409C23.0025 22.5725 23.6479 21.6542 24.3504 21.0283C24.2022 20.8433 24.2122 20.6091 24.2195 20.4653Z" fill="#44BE4C"/>
<path d="M20.487 14.6931C20.5033 14.6931 20.5193 14.6887 20.5333 14.6804C20.9885 14.4181 21.6534 14.0876 22.1243 13.8725C22.2049 13.6077 22.2907 13.3416 22.3815 13.0792C21.6733 13.3667 20.8354 13.9403 20.4121 14.5502C20.4028 14.5639 20.3973 14.5799 20.3964 14.5964C20.3954 14.6129 20.399 14.6294 20.4067 14.6441C20.4144 14.6588 20.4259 14.6711 20.4401 14.6797C20.4542 14.6884 20.4704 14.693 20.487 14.6931Z" fill="#44BE4C"/>
<path d="M24.6945 12.9433C25.009 12.9085 25.3252 12.8899 25.6416 12.8877C26.3312 12.8865 27.0154 13.0077 27.6626 13.2456C27.6787 13.2513 27.6961 13.2522 27.7127 13.2485C27.9721 13.186 28.2378 13.1532 28.5046 13.1507C28.7351 13.1535 28.9649 13.177 29.1912 13.221C29.197 13.2221 29.2029 13.2226 29.2088 13.2226C29.2284 13.2221 29.2473 13.2154 29.2628 13.2034C29.2783 13.1914 29.2896 13.1748 29.2949 13.156C29.3003 13.1371 29.2994 13.1171 29.2926 13.0987C29.2857 13.0804 29.2731 13.0647 29.2567 13.0541C28.3896 12.4922 27.0688 12.3288 25.8972 12.3288C25.2803 12.3288 24.6641 12.3721 24.0532 12.4583C24.2521 12.604 24.469 12.7687 24.6945 12.9433Z" fill="#44BE4C"/>
<path d="M27.1455 13.3414C26.7496 13.164 26.2139 13.1192 25.7259 13.1192C25.4395 13.1192 25.171 13.1347 24.9559 13.1479C25.2765 13.4002 25.6071 13.6669 25.925 13.9271C26.3149 13.7566 26.717 13.6158 27.128 13.5058C27.2235 13.4812 27.2353 13.3816 27.1455 13.3414Z" fill="#44BE4C"/>
<path d="M26.3722 14.2963C27.0029 14.8206 27.5237 15.2693 27.7185 15.4482C28.8431 15.4554 30.2162 15.5723 31.3611 16.252C31.3754 16.2607 31.3919 16.2652 31.4087 16.2653C31.4324 16.2653 31.4551 16.2562 31.4722 16.2398C31.4893 16.2234 31.4994 16.201 31.5003 16.1773C31.5373 15.3332 31.2736 14.4832 30.7225 14.1242C30.1638 13.7384 29.501 13.5315 28.822 13.5309C28.1586 13.5307 27.3393 13.7206 26.3722 14.2963Z" fill="#44BE4C"/>
<path d="M21.7441 18.9127C21.7372 18.9045 21.7299 18.8966 21.7231 18.8883C21.5289 18.6575 21.3897 18.3857 21.3161 18.0932C21.2425 17.8008 21.2363 17.4955 21.2981 17.2003L21.3216 17.088C21.3267 17.0641 21.3321 17.0385 21.3377 17.0117L21.3108 17.0337C21.3087 17.0355 21.3065 17.0374 21.3044 17.0394C18.1596 20.0938 18.9815 22.459 19.9678 23.533C19.976 23.5422 19.986 23.5496 19.9972 23.5547C20.0085 23.5598 20.0207 23.5624 20.033 23.5625C20.0466 23.5625 20.0601 23.5596 20.0724 23.5538C20.0847 23.548 20.0956 23.5396 20.1042 23.5291C20.1129 23.5186 20.1191 23.5063 20.1224 23.4931C20.1257 23.4799 20.126 23.4661 20.1233 23.4527C19.982 22.7389 19.9707 21.742 20.4226 20.8028C20.7241 20.1762 21.2108 19.5565 21.7441 18.9127Z" fill="#44BE4C"/>
<path d="M31.408 16.8014C30.3891 16.163 29.2154 15.8143 28.0132 15.7929C28.1672 16.0312 28.2601 16.3037 28.2837 16.5864C28.3074 16.8691 28.261 17.1533 28.1487 17.4138C28.0639 17.619 27.9453 17.8084 27.7979 17.9743C29.9042 18.149 31.0362 19.3769 31.1912 19.6022C31.1959 19.6119 31.2029 19.6205 31.2114 19.6273C31.2199 19.634 31.2298 19.6388 31.2404 19.6413C31.4985 19.6753 31.6008 19.6895 31.8924 19.7359C31.8967 19.7366 31.901 19.7369 31.9053 19.737C31.967 19.737 32.0036 19.663 31.994 19.5981C31.8864 18.8676 31.1397 18.5166 30.7149 18.1533C30.7009 18.1412 30.6908 18.1252 30.6861 18.1073C30.6813 18.0894 30.6821 18.0704 30.6883 18.053C30.6945 18.0355 30.7058 18.0203 30.7207 18.0094C30.7357 17.9985 30.7536 17.9923 30.7721 17.9917C30.7834 17.9917 30.7945 17.9938 30.805 17.9978C31.4975 18.2533 31.7544 19.0116 32.0692 19.0912C32.0755 19.0928 32.082 19.0936 32.0885 19.0937C32.1115 19.0926 32.1333 19.083 32.1496 19.0668C32.1658 19.0505 32.1754 19.0287 32.1764 19.0057C32.2395 17.7705 31.9299 17.1355 31.408 16.8014Z" fill="#44BE4C"/>
<path d="M27.4001 18.4934C27.3089 18.4934 27.2206 18.4953 27.1358 18.4986H27.1318C27.1127 18.4988 27.094 18.4927 27.0787 18.4812C26.9746 18.5221 26.8669 18.5535 26.7571 18.5751C27.1603 19.0579 27.4699 19.4342 27.5607 19.5621C27.5711 19.5767 27.5789 19.5907 27.5877 19.605C27.5992 19.6024 27.612 19.5997 27.6226 19.5973C27.9359 19.5223 28.4743 19.4767 29.0798 19.4767C29.4431 19.4767 29.8304 19.4931 30.2079 19.5293C30.2112 19.5293 30.2144 19.5297 30.2176 19.5297C30.2362 19.5302 30.2546 19.5251 30.2702 19.515C30.2859 19.505 30.2982 19.4904 30.3056 19.4733C30.3129 19.4562 30.3149 19.4372 30.3114 19.4189C30.3079 19.4007 30.299 19.3838 30.2858 19.3707C29.5213 18.6793 28.3178 18.4934 27.4001 18.4934Z" fill="#44BE4C"/>
<path d="M18.9536 17.6287C18.9662 17.6287 18.9787 17.626 18.9903 17.6208C19.0018 17.6156 19.0121 17.608 19.0205 17.5985C19.6676 16.882 20.7565 16.0386 21.6712 15.5345C21.7743 15.1133 21.8959 14.6481 22.0351 14.1708C21.1741 14.6694 20.2115 15.2937 19.921 15.556C19.548 15.8934 18.8394 16.7612 18.862 17.5409C18.8626 17.5646 18.8726 17.5871 18.8898 17.6036C18.9069 17.62 18.9298 17.629 18.9536 17.6287Z" fill="#44BE4C"/>
<path d="M21.4621 16.433C21.4964 16.2779 21.5347 16.1083 21.5774 15.9259C20.8617 16.3435 19.8173 17.0979 19.0148 18.1126C19.0134 18.1144 19.0121 18.1162 19.0107 18.1181C18.7716 18.4695 17.9814 19.4312 18.5818 20.5304C18.5909 20.5471 18.605 20.5606 18.6221 20.569C18.6391 20.5773 18.6584 20.5801 18.6772 20.577C18.6959 20.5739 18.7132 20.5651 18.7267 20.5517C18.7402 20.5383 18.7492 20.521 18.7524 20.5023C18.879 19.7132 19.3248 18.206 21.4621 16.433Z" fill="#44BE4C"/>
<path d="M23.655 19.7166C23.5774 19.727 23.4992 19.7324 23.421 19.7329C22.9201 19.7221 22.4378 19.5409 22.0538 19.2191C21.3344 19.9868 20.7565 21.0425 20.632 21.7662C20.3999 23.1142 20.6943 24.2428 21.7159 24.8768C21.7298 24.8856 21.7458 24.8903 21.7622 24.8905C21.7764 24.8903 21.7904 24.8868 21.803 24.8804C21.8156 24.8739 21.8266 24.8646 21.835 24.8532C21.8435 24.8418 21.8492 24.8286 21.8517 24.8147C21.8542 24.8007 21.8535 24.7863 21.8495 24.7727C21.0896 22.1731 22.6489 20.7335 23.655 19.7166Z" fill="#44BE4C"/>
<path d="M26.4199 18.6114C26.4117 18.6114 26.4036 18.6124 26.3954 18.6124C25.9676 18.6037 25.5513 18.4723 25.1961 18.2337C25.0495 18.717 24.8096 19.0966 24.4984 19.3533C24.5028 19.9011 24.4946 20.2244 24.5033 20.3681C24.5146 20.5547 24.3912 20.9699 24.8909 20.9699C25.0832 20.9699 25.3678 20.9081 25.7879 20.7487C26.2363 20.6254 26.676 20.472 27.1038 20.2895C27.2839 20.2112 27.5424 20.0232 27.3309 19.7256C27.2339 19.589 26.8365 19.1095 26.4199 18.6114Z" fill="#FCEE21"/>
<path d="M23.421 19.4509C24.1269 19.4509 24.8098 18.9743 25.0203 17.7518C25.4994 18.1625 25.9724 18.3304 26.3955 18.3304C27.7226 18.3304 28.5616 16.6814 27.5816 15.7062C27.3066 15.4326 23.8611 12.5121 23.0465 12.1362C22.2319 14.0161 21.7077 16.6265 21.574 17.2586C21.3228 18.4458 22.3964 19.4509 23.421 19.4509Z" fill="#FCEE21"/>
<path d="M83.1469 15.824H88.0638V17.1155H84.5674V18.4899H87.6486V19.7819H84.5674V22.2816H83.1469V15.824Z" fill="white"/>
<path d="M90.398 15.7777H91.708L94.4757 22.2816H92.9904L92.3999 20.8333H89.6693L89.0788 22.2816H87.6305L90.398 15.7777ZM91.8926 19.5784L91.0346 17.4844L90.1766 19.5784H91.8926Z" fill="white"/>
<path d="M95.2601 15.824H96.6809V22.2816H95.2601V15.824Z" fill="white"/>
<path d="M98.0186 15.824H100.971C101.792 15.824 102.428 16.0547 102.853 16.479C103.212 16.8387 103.406 17.346 103.406 17.955V17.9734C103.406 19.0158 102.843 19.6707 102.022 19.9752L103.6 22.2814H101.939L100.556 20.215H99.4393V22.2816H98.0186V15.824ZM100.878 18.9605C101.57 18.9605 101.967 18.5915 101.967 18.0472V18.0287C101.967 17.4199 101.543 17.1063 100.851 17.1063H99.4393V18.9605H100.878Z" fill="white"/>
<path d="M43.8005 22.0679H41.0513C40.9766 22.0681 40.905 22.0979 40.8522 22.1507C40.7993 22.2035 40.7696 22.2751 40.7694 22.3498V28.5104C40.7694 29.6242 40.0925 29.8639 39.3595 29.8639C38.6264 29.8639 37.9496 29.6242 37.9496 28.5104V22.3498C37.9494 22.2751 37.9197 22.2035 37.8668 22.1507C37.814 22.0979 37.7424 22.0681 37.6677 22.0679H34.9187C34.8425 22.0676 34.7692 22.0968 34.714 22.1493C34.6588 22.2019 34.6261 22.2737 34.6227 22.3498V28.5104C34.6227 32.1336 37.1744 32.6834 39.36 32.6834C41.5456 32.6834 44.0974 32.1336 44.0974 28.5104V22.3498C44.0939 22.2736 44.0611 22.2016 44.0058 22.149C43.9504 22.0965 43.8768 22.0674 43.8005 22.0679Z" fill="white"/>
<path d="M64.6978 22.0679H61.9487C61.874 22.0681 61.8024 22.0979 61.7496 22.1507C61.6967 22.2035 61.667 22.2751 61.6668 22.3498V28.5104C61.6668 29.6242 60.99 29.8639 60.2568 29.8639C59.5237 29.8639 58.847 29.6242 58.847 28.5104V22.3498C58.8468 22.2751 58.817 22.2035 58.7642 22.1507C58.7113 22.0979 58.6397 22.0681 58.565 22.0679H55.8159C55.7397 22.0676 55.6663 22.0968 55.6111 22.1493C55.556 22.2019 55.5232 22.2737 55.5198 22.3498V28.5104C55.5198 32.1336 58.0716 32.6834 60.2571 32.6834C62.4426 32.6834 64.9945 32.1336 64.9945 28.5104V22.3498C64.991 22.2736 64.9582 22.2017 64.9029 22.1491C64.8476 22.0966 64.7741 22.0675 64.6978 22.0679Z" fill="white"/>
<path d="M52.681 28.4538C53.4423 28.1154 54.3023 27.2271 54.3023 25.7188V25.4372C54.3023 22.7728 52.54 21.9267 49.7062 21.9267C48.7335 21.9267 46.6281 22.0254 46.1488 22.0959C45.3875 22.2228 45.1619 22.42 45.1619 23.2942V32.2604C45.1653 32.3366 45.198 32.4085 45.2532 32.461C45.3084 32.5136 45.3818 32.5428 45.4581 32.5424H48.2071C48.2818 32.5422 48.3534 32.5124 48.4063 32.4596C48.4591 32.4068 48.4889 32.3352 48.4891 32.2604V28.9476H49.4102L51.0879 32.2605C51.1584 32.4015 51.2148 32.5425 51.4686 32.5425H54.4151C54.4484 32.5427 54.4815 32.5363 54.5124 32.5236C54.5432 32.5109 54.5713 32.4922 54.5949 32.4686C54.6185 32.445 54.6372 32.4169 54.6499 32.3861C54.6625 32.3552 54.669 32.3221 54.6688 32.2888C54.6663 32.2346 54.6519 32.1816 54.6265 32.1337L52.681 28.4538ZM50.9893 25.7329C50.9893 26.1136 50.7213 26.4801 50.0164 26.4801H48.4887V24.7042H50.0164C50.7354 24.7042 50.9893 24.972 50.9893 25.4514V25.7329Z" fill="white"/>
<path d="M30.0552 23.2662C31.1103 23.2909 32.5574 23.3684 33.068 23.4365C33.3063 23.4705 33.3573 23.3854 33.3573 23.1301V20.6281C33.3573 20.4068 33.3404 20.3557 32.9999 20.2537C32.4472 20.0903 31.179 19.8809 29.8134 19.7822C29.572 19.7674 29.324 19.759 29.0798 19.759C28.5034 19.759 27.9832 19.8012 27.6883 19.8718H27.6874C27.6964 19.9433 27.6911 20.016 27.672 20.0855C27.5991 20.3472 27.3549 20.4877 27.2158 20.5485C26.7792 20.7345 26.3307 20.8913 25.8733 21.0179C25.4561 21.1756 25.1344 21.2522 24.8902 21.2522C24.7843 21.2541 24.6791 21.2357 24.5801 21.1982C23.9 21.7906 23.2734 22.669 22.8821 23.9941C22.8025 24.4908 22.7638 24.9932 22.7664 25.4962V26.9429C22.7664 31.8448 26.0174 32.7129 28.179 32.7129C29.7791 32.7129 31.9607 32.4576 32.999 32.2363C33.3054 32.1682 33.3565 32.1514 33.3565 31.8618V25.8979C33.3562 25.8024 33.3181 25.7109 33.2506 25.6434C33.1831 25.5759 33.0916 25.5378 32.9961 25.5375H28.7446C28.6573 25.535 28.5725 25.5671 28.5088 25.6268C28.445 25.6864 28.4074 25.7689 28.4042 25.8562V27.346C28.4074 27.4333 28.445 27.5157 28.5088 27.5754C28.5725 27.6351 28.6573 27.6672 28.7446 27.6646H29.7618C29.7905 27.6646 29.8179 27.676 29.8382 27.6963C29.8585 27.7165 29.8698 27.744 29.8698 27.7726V29.0932C29.87 29.13 29.8561 29.1654 29.8311 29.1923C29.806 29.2191 29.7716 29.2354 29.735 29.2378C29.3446 29.2628 28.3114 29.2753 28.1802 29.2753C27.6696 29.2753 26.8355 29.2073 26.8355 26.9776V25.4959C26.8352 23.6241 27.8767 23.2152 30.0552 23.2662Z" fill="white"/>
<path d="M83.0453 28.638V28.6196C83.0453 26.7929 84.4106 25.2802 86.2742 25.2802C87.4273 25.2802 88.1192 25.7046 88.7834 26.3134L88.4421 26.6639C87.8793 26.1196 87.2335 25.7137 86.2649 25.7137C84.7151 25.7137 83.5435 26.9776 83.5435 28.6011V28.6196C83.5435 30.2523 84.7335 31.5255 86.2742 31.5255C87.2059 31.5255 87.8425 31.1656 88.4974 30.5199L88.8204 30.8336C88.1377 31.507 87.3996 31.959 86.2557 31.959C84.4106 31.959 83.0453 30.4922 83.0453 28.638Z" fill="white"/>
<path d="M92.5936 25.3446H93.0549L96.0623 31.8485H95.5366L94.7154 30.0404H90.9054L90.0844 31.8485H89.5862L92.5936 25.3446ZM94.5125 29.6065L92.8151 25.8704L91.1085 29.6065H94.5125Z" fill="white"/>
<path d="M96.8745 30.9073L97.1882 30.5474C97.8986 31.2024 98.5539 31.5068 99.5038 31.5068C100.472 31.5068 101.137 30.9625 101.137 30.2246V30.2061C101.137 29.5235 100.777 29.1268 99.3101 28.8316C97.7602 28.5179 97.1328 27.9921 97.1328 27.0144V26.9956C97.1328 26.0362 98.0092 25.2983 99.2083 25.2983C100.15 25.2983 100.767 25.5566 101.423 26.0825L101.118 26.4605C100.509 25.9346 99.9005 25.7316 99.1901 25.7316C98.2399 25.7316 97.6127 26.2759 97.6127 26.9493V26.9679C97.6127 27.6505 97.9632 28.0656 99.4945 28.3792C100.989 28.6836 101.616 29.2187 101.616 30.1596V30.1781C101.616 31.2204 100.721 31.9399 99.476 31.9399C98.4427 31.9405 97.6493 31.5992 96.8745 30.9073Z" fill="white"/>
<path d="M103.259 25.3909H103.738V31.8485H103.259V25.3909Z" fill="white"/>
<path d="M105.722 25.3909H106.174L110.63 31.0088V25.3909H111.091V31.8485H110.731L106.183 26.1106V31.8485H105.722V25.3909Z" fill="white"/>
<path d="M112.724 28.638V28.6196C112.724 26.8576 114.025 25.2802 115.981 25.2802C117.936 25.2802 119.219 26.8391 119.219 28.6011V28.6196C119.219 30.3815 117.918 31.959 115.962 31.959C114.006 31.959 112.724 30.4 112.724 28.638ZM118.721 28.638V28.6196C118.721 27.0237 117.558 25.7137 115.962 25.7137C114.366 25.7137 113.222 27.0051 113.222 28.6011V28.6196C113.222 30.2156 114.385 31.5255 115.981 31.5255C117.577 31.5255 118.721 30.2339 118.721 28.638Z" fill="white"/>
<path d="M74.2371 14.8904C74.1757 14.8904 74.1168 14.9148 74.0734 14.9582C74.03 15.0016 74.0056 15.0605 74.0056 15.1219V32.8284C74.0056 32.8898 74.03 32.9486 74.0734 32.9921C74.1168 33.0355 74.1757 33.0598 74.2371 33.0598C74.2985 33.0598 74.3573 33.0355 74.4008 32.9921C74.4442 32.9486 74.4685 32.8898 74.4685 32.8284V15.1219C74.4685 15.0605 74.4442 15.0016 74.4008 14.9582C74.3573 14.9148 74.2985 14.8904 74.2371 14.8904Z" fill="#B3B3B3"/>
<path d="M121.071 44.517H2.31467V2.31457H145.714V21.4286C146.479 20.9664 148.517 20.7758 149.296 20.3571V0H0V46.8315L123.214 47.1429C122.718 46.3732 121.604 45.2908 121.071 44.517Z" fill="#44BE4C"/>
<path d="M145.584 23.2752V44.809H124.821C123.968 45.5771 124.046 46.3551 123.214 47.1429H149.464V20.8929C148.339 21.5575 146.689 22.5835 145.584 23.2752Z" fill="#44BE4C"/>
<path d="M112.5 35.9216C112.998 34.5222 114.695 32.9328 117.64 33.384C119.97 33.8779 121.892 35.4287 123.432 37.9709C131.958 28.9825 139.297 22.7914 149.013 20.4381C149.881 20.2821 150.337 20.3163 149.706 20.8581C139.682 27.0114 130.633 35.9126 123.62 46.9598C123.456 47.2179 122.866 47.2012 122.667 46.9216C120.496 43.9845 118.948 41.1172 116.776 38.1798C115.807 36.6599 114.582 35.5688 112.501 35.9202L112.5 35.9216Z" fill="#FCEE21"/>
</svg>
