<svg width="424" height="567" viewBox="0 0 424 567" fill="none" xmlns="http://www.w3.org/2000/svg"><g opacity="0.3" filter="url(#filter0_d_283_11069)"><path d="M34.9784 20.7535C35.2998 20.7 35.6262 20.7315 35.9857 20.744L36.0517 20.7058C38.6963 20.9391 41.3803 21.5456 44.0046 22.5826C49.2531 24.6566 54.475 28.2861 59.3399 33.6618C62.4139 37.0793 65.4244 41.1496 68.2341 45.8637C85.9273 75.8227 91.3517 123.734 83.4464 164.116C81.5387 173.93 78.8155 183.246 75.2946 191.791C75.0697 192.317 74.8779 192.824 74.6391 193.402C72.6628 198.063 70.5238 202.29 68.2362 206.031L67.1311 205.261C66.2203 204.599 65.2855 203.819 64.2845 203.076C64.066 202.851 63.7815 202.663 63.516 202.508C59.9289 199.651 54.8315 198.678 48.4373 199.729C47.0337 199.967 45.5692 200.329 44.0386 200.729C43.9535 200.734 43.8544 200.791 43.7693 200.796C42.3949 201.238 40.9875 201.698 39.4671 202.268C37.2811 203.134 35.0011 204.142 32.594 205.312C27.0394 208.123 21.2282 211.786 15.3726 216.135C8.74344 220.974 2.07999 226.67 -4.56186 233.012C-8.55155 236.856 -12.545 240.922 -16.4763 245.171C-32.4972 262.65 -47.2238 283.209 -57.6393 303.303C-59.8583 307.62 -61.8881 311.96 -63.7006 316.219C-64.1833 317.29 -64.6469 318.393 -65.0635 319.426C-68.1106 327.037 -70.1442 333.888 -71.2682 339.949C-72.8635 348.702 -72.5789 355.755 -70.5147 360.855C-69.7792 362.587 -68.8888 364.053 -67.8243 365.286L-67.7672 365.385C-66.5478 366.353 -65.3474 367.288 -64.1801 368.242C-64.3935 368.102 -64.6399 367.98 -64.8533 367.839C-65.0146 367.712 -65.2089 367.604 -65.3703 367.478L-64.8863 367.858C-62.666 369.568 -60.4977 371.265 -58.3535 372.843L-57.1011 373.792C-57.1011 373.792 -57.0821 373.825 -57.049 373.806L-56.9919 373.905C-52.6896 377.009 -46.8187 380.924 -42.3792 384.037C-43.0575 383.549 -43.6749 382.937 -44.1461 382.197C-44.9311 381.066 -45.5281 379.651 -45.9041 377.932C-46.9547 373.214 -46.3641 366.229 -43.9368 357.391C-42.2933 351.162 -39.7834 343.992 -36.3692 335.949C-36.1914 335.494 -35.9284 335.034 -35.7506 334.58C-33.5303 329.426 -31.0408 324.204 -28.3861 318.887C-19.4822 301.514 -8.27785 283.472 3.60985 267.149C7.30611 262.11 11.0786 257.204 14.8803 252.501C21.3544 244.495 27.8362 237.189 34.1567 230.899C39.4128 225.665 44.5202 221.088 49.3953 217.481C51.4225 215.959 53.3088 214.65 55.1531 213.497C57.757 211.905 60.1259 210.67 62.2789 209.823C67.0854 207.928 70.7741 207.91 73.3539 209.633C73.3869 209.614 73.406 209.647 73.425 209.68C73.5482 209.741 73.7235 209.815 73.8137 209.895C76.7313 205.263 79.5511 199.851 82.155 193.683C82.5017 192.911 82.7964 192.125 83.0962 191.423C100.904 147.524 103.324 83.3795 88.3555 46.6992C86.8503 42.948 85.2003 39.6324 83.4054 36.7525C80.2768 31.5624 76.804 27.7591 73.0861 25.2854C70.7717 23.7175 68.3367 22.7032 65.8471 22.2045C65.3453 22.0981 64.7776 22.0299 64.2098 21.9617C64.1577 21.9477 64.0726 21.9529 63.9875 21.958L61.5842 21.7614C61.5842 21.7614 61.4801 21.7336 61.428 21.7196C61.0825 21.6551 60.7091 21.6947 60.3826 21.6632C60.3305 21.6492 60.3115 21.6162 60.2785 21.6353C58.2868 21.4651 56.0919 21.3243 53.8449 21.1695C51.1723 21.0404 48.3817 20.9355 45.5961 20.9157L43.3351 20.813C42.9426 20.8196 42.5831 20.8071 42.2237 20.7947C41.8121 20.7682 41.4717 20.7888 41.0932 20.7433L37.8491 20.7682C36.9078 20.7396 36.0047 20.7769 35.1486 20.7432C34.2074 20.7146 33.3043 20.752 32.4151 20.7373C32.1598 20.7527 31.8715 20.7872 31.6492 20.7835C31.8715 20.7872 32.0277 20.8289 32.2309 20.7996C32.5713 20.7791 32.8978 20.8107 33.2382 20.7901L31.0865 20.8004C31.0865 20.8004 31.0534 20.8194 31.0204 20.8385C31.8905 20.8202 32.7276 20.8209 33.5977 20.8026C34.0232 20.7769 34.4347 20.8033 34.8272 20.7967L34.9784 20.7535Z" fill="#852DF4"/><path d="M19.6034 417.335L19.5838 417.302L19.5696 417.355L19.6034 417.335Z" fill="#852DF4"/><path d="M106.554 28.4922C108.354 29.1691 110.024 30.5368 111.499 32.6335C113.274 35.1732 114.73 38.6883 115.927 43.2777C116.509 45.582 117.04 48.1796 117.449 51.0236C119.732 66.6465 118.958 87.7301 115.807 110.186C113.961 123.309 111.34 136.923 107.995 150.119C103.966 166.174 98.9842 181.723 93.1668 195.29C90.1222 202.372 87.1068 208.513 84.0965 213.595C83.7726 214.178 83.3966 214.747 83.0918 215.363C83.0587 215.383 83.0778 215.416 83.0448 215.435C84.2959 216.076 85.5522 216.803 86.595 217.389L86.8084 217.53C87.5477 217.895 88.3581 218.307 89.2066 218.785C89.3298 218.846 89.5051 218.921 89.5953 219.001C89.0123 218.678 88.1333 218.833 87.0434 219.462C86.0527 220.034 84.8981 221.009 83.5275 222.372C82.2561 223.678 80.7166 225.359 79.0273 227.391C77.8511 228.862 76.5008 230.565 75.0947 232.477C71.4925 237.373 67.5015 243.198 63.2871 249.855C57.4887 258.879 51.313 269.309 45.0269 280.463C33.4924 300.983 21.6987 324.029 12.0162 345.24C9.67779 350.418 7.43338 355.454 5.316 360.329C3.06779 365.587 1.10157 370.418 -0.516623 374.785C-4.44145 385.147 -6.84459 392.959 -7.73621 398.05C-8.02199 399.843 -8.13883 401.319 -8.02068 402.439C-7.97875 403.426 -7.71581 404.111 -7.36903 404.483L-7.33092 404.549C-7.11753 404.689 -6.87111 404.811 -6.69582 404.886C-6.7479 404.872 -6.79998 404.858 -6.85206 404.844C-6.50148 404.994 -6.21694 405.181 -5.86636 405.331C-3.44913 406.62 -0.998879 407.889 1.271 408.999C1.60253 409.115 1.88705 409.303 2.18556 409.439L2.53614 409.588C5.22774 410.895 8.38804 412.326 11.5483 413.758C11.5674 413.791 11.6004 413.772 11.6195 413.805C11.918 413.94 12.1835 414.095 12.4629 414.198C12.7944 414.314 13.0599 414.469 13.3584 414.605C14.3962 415.106 15.467 415.587 16.4857 416.055C16.8363 416.205 17.1678 416.322 17.4333 416.476C17.6937 416.546 17.8359 416.64 18.0303 416.748C18.1344 416.776 18.2907 416.817 18.3618 416.864C18.4139 416.878 18.4329 416.911 18.485 416.925C18.5892 416.953 18.6794 417.033 18.7835 417.061C18.9397 417.103 19.115 417.177 19.2383 417.238L19.3945 417.28C19.3945 417.28 19.7971 416.3 20.4335 414.656C20.972 413.377 21.6554 411.663 22.5687 409.507C25.0455 403.501 29.0453 394.107 34.3279 381.597C35.1802 379.565 36.0985 377.494 37.0118 375.339C42.0137 363.563 47.5593 350.592 53.2408 337.324C56.871 328.891 60.543 320.303 64.1541 311.838C71.8641 293.922 79.3683 276.564 85.6264 262.083C88.9759 254.385 91.9976 247.492 94.5037 241.689C95.436 239.566 96.2464 237.69 97.0339 236.004C98.0551 233.654 98.8934 231.674 99.6009 230.077C101.171 226.619 101.944 224.984 102.01 224.946C103.991 225.783 106.322 226.769 108.297 227.521C108.628 227.637 108.941 227.721 109.206 227.876C109.239 227.857 109.258 227.89 109.31 227.904C109.362 227.918 109.434 227.965 109.571 227.973L109.552 227.94C110.608 225.042 111.801 221.845 113.149 218.383C114.843 214.149 116.768 209.474 118.889 204.377C121.193 198.91 123.723 193.225 126.333 187.45C135.631 166.945 146.591 144.82 157.234 124.815C163.147 113.701 168.982 103.291 174.397 94.1368C178.647 86.9307 182.621 80.5439 186.184 75.2747C187.439 73.4061 188.619 71.7128 189.71 70.2468C191.572 67.6756 193.196 65.6823 194.542 64.201C196.548 62.0309 198.005 60.9698 198.88 61.0365C198.965 61.0314 199.036 61.0783 199.088 61.0923C198.33 60.694 197.538 60.3149 196.832 59.9306L195.159 59.0923L194.965 58.9845C189.321 56.3025 182.006 53.0896 175.814 50.3724C174.691 49.8766 173.587 49.4138 172.568 48.9459C172.568 48.9459 172.607 49.0119 172.574 49.031C172.599 49.4563 172.17 50.8482 171.399 53.0975C170.745 55.0152 169.819 57.5299 168.668 60.5705C168.003 62.3181 167.297 64.2219 166.516 66.3009C164.004 72.8558 160.892 80.8128 157.339 89.6843C149.944 108.299 140.741 130.949 131.456 153.383C131.395 153.506 131.353 153.662 131.292 153.785C124.517 170.194 117.684 186.503 111.511 200.98C110.654 202.927 109.863 204.836 109.113 206.588C105.952 214.002 103.38 219.843 101.37 224.524C100.423 224.103 99.442 223.701 98.4424 223.266L95.7038 222.031L94.0881 221.291C94.0881 221.291 93.9979 221.212 93.9268 221.165L93.5571 220.982C93.1875 220.799 92.8369 220.65 92.5193 220.481C92.5003 220.448 92.4673 220.467 92.4482 220.434C91.728 220.102 90.9697 219.704 90.2304 219.338C93.5024 213.489 97.0754 206.102 100.798 197.22C102.944 192.241 105.055 186.974 107.103 181.523C118.144 152.444 127.867 118.185 133.401 89.8644C135.85 77.098 137.518 65.5738 138.052 56.2014C138.212 53.7329 138.231 51.4778 138.213 49.464C138.163 45.4884 137.824 42.384 137.204 40.0138C136.604 37.6765 135.694 36.1775 134.509 35.4976C134.438 35.4507 134.315 35.3899 134.21 35.362C134.106 35.3341 133.95 35.2923 133.879 35.2454L133.723 35.2036L133.566 35.1618L129.949 34.0822L129.688 34.0125C129.688 34.0125 129.584 33.9846 129.532 33.9707C128.907 33.8035 128.263 33.6033 127.619 33.4031C125.081 32.6682 122.288 31.9487 119.566 31.2762C118.941 31.109 118.335 30.9748 117.71 30.8076C116.167 30.4225 114.591 30.0565 113.066 29.7045C112.981 29.7096 112.91 29.6627 112.825 29.6678C112.825 29.6678 112.721 29.6399 112.688 29.659L112.375 29.5754C111.007 29.2652 109.554 28.9601 108.03 28.6081C108.186 28.6499 108.323 28.6587 108.48 28.7005C108.342 28.6917 108.186 28.6499 108.063 28.589C107.646 28.4775 107.249 28.3991 106.851 28.3206C106.78 28.2736 106.695 28.2788 106.539 28.237C106.278 28.1673 106.037 28.1306 105.744 28.08C105.938 28.1878 106.108 28.1775 106.264 28.2193C106.316 28.2333 106.369 28.2472 106.388 28.2802L106.554 28.4922Z" fill="#852DF4"/><path d="M104.816 27.9994C104.816 27.9994 104.594 27.9957 104.49 27.9678C104.939 28.0602 105.408 28.1857 105.872 28.226C105.507 28.1285 105.162 28.0639 104.797 27.9664L104.816 27.9994Z" fill="#852DF4"/><path d="M332.248 371.433C332.563 370.987 332.864 370.594 333.146 370.167C333.489 369.617 333.818 369.119 334.147 368.621C333 370.295 331.801 371.955 330.616 373.564C331.138 372.866 331.693 372.15 332.215 371.452L332.248 371.433Z" fill="#852DF4"/><path d="M170.507 240.623C170.898 240.309 171.308 240.028 171.699 239.714C171.402 239.886 171.077 240.161 170.686 240.475L170.488 240.59L170.507 240.623Z" fill="#852DF4"/><path d="M-90.0046 54.8945C-90.0046 54.8945 -90.1367 54.9708 -90.2358 55.028L-90.434 55.1424C-90.7782 55.3851 -91.1555 55.6469 -91.4667 55.8706C-92.2872 56.4323 -93.1408 57.0131 -94.0414 57.6651C-94.8619 58.2268 -95.7155 58.8077 -96.517 59.4024C-96.55 59.4215 -96.616 59.4596 -96.6491 59.4787C-96.616 59.4596 -96.583 59.4406 -96.517 59.4024C-96.0076 59.0643 -95.4983 58.7263 -95.0219 58.4073C-92.5082 56.7359 -90.4238 55.3125 -88.5655 54.1076C-90.4048 55.3455 -92.5082 56.7359 -95.0219 58.4073C-75.9816 46.0063 -44.7091 37.6316 -1.3247 64.7264C-0.815343 64.3883 -0.305993 64.0502 0.198279 63.6271C-0.292028 63.9982 -0.801371 64.3363 -1.30564 64.7594C5.45703 69.3034 11.7116 74.4928 17.3959 80.1435C25.6638 88.4387 32.7631 97.7607 38.4601 107.628C53.8936 134.36 59.4041 165.412 51.6536 191.8C51.0363 191.188 50.466 190.505 49.9007 189.908L49.15 189.065L49.1119 188.999C48.9125 188.806 48.7461 188.594 48.5467 188.401C53.3109 160.349 42.7499 129.397 21.1979 105.186C14.8976 98.0868 7.67254 91.5216 -0.404811 85.8445C-4.82518 82.7643 -9.4907 79.8696 -14.4293 77.2646C-58.5072 54.0024 -106.752 61.3516 -130.908 92.5025C-132.704 95.0356 -134.237 97.1088 -135.572 99.0676C-135.699 99.2289 -135.807 99.4233 -135.948 99.6367C-137.194 101.368 -138.275 103.004 -139.323 104.621C-140.539 106.556 -141.775 108.458 -143.01 110.666C-143.47 111.548 -143.982 112.416 -144.493 113.283C-145.244 114.729 -146.061 116.212 -146.933 117.904C-140.454 106.551 -131.181 97.3684 -120 90.6495C-111.41 85.4698 -101.674 81.7407 -91.2974 79.5782C-69.4625 75.0682 -44.6908 77.3992 -20.9073 87.781C-16.4869 89.7172 -12.2406 91.8858 -8.15425 94.2348C-0.68789 98.5486 6.17131 103.565 12.3941 109.081C35.948 130.2 48.8448 158.792 46.7404 186.188L46.8357 186.353C46.2132 185.656 45.5858 184.875 44.9303 184.197C43.5747 159.502 29.1753 135.782 5.53261 119.467C-0.362486 115.434 -6.76188 111.824 -13.7074 108.794C-17.5308 107.129 -21.4812 105.625 -25.5916 104.302C-40.2906 99.588 -55.3324 97.7119 -69.8484 98.3483C-104.914 99.8483 -136.835 115.946 -153.019 142.142C-155.015 145.319 -156.747 148.651 -158.179 152.118C-160.849 158.324 -162.521 164.657 -163.303 171.005C-163.928 176.559 -164.285 184.025 -164.564 189.643L-164.545 189.676C-164.545 189.676 -164.559 189.728 -164.573 189.78C-164.561 191.708 -164.581 193.656 -164.526 195.429C-164.513 196.214 -164.501 196.998 -164.455 197.764C-164.44 198.019 -164.439 198.326 -164.404 198.615C-164.333 199.806 -164.276 201.049 -164.186 202.273L-164.212 202.684C-164.212 202.684 -164.164 202.92 -164.159 203.005C-164.135 203.123 -164.125 203.293 -164.134 203.431C-164.127 203.823 -164.074 204.144 -164.048 204.57C-164.068 204.537 -164.054 204.484 -164.059 204.399C-164.04 204.432 -164.054 204.484 -164.068 204.537C-164.047 204.877 -164.027 205.217 -164.007 205.557C-164.045 205.491 -164.017 205.387 -164.022 205.302C-163.987 205.59 -163.967 205.931 -163.933 206.219C-163.914 206.252 -163.895 206.285 -163.909 206.337C-163.839 207.221 -163.717 208.118 -163.595 209.016C-163.595 209.016 -163.595 209.016 -163.614 208.983C-163.796 207.372 -163.963 205.708 -164.079 204.059C-164.116 203.156 -164.153 202.254 -164.209 201.318C-164.345 193.608 -163.091 185.712 -160.347 177.879C-159.843 176.312 -159.254 174.74 -158.593 173.214C-144.074 139.178 -104.982 116.433 -62.6753 114.052C-50.5194 113.37 -38.0586 114.36 -25.8594 117.262L-25.8213 117.328C-21.7884 118.211 -18.0476 119.352 -14.3678 120.615C-7.89858 122.821 -1.96157 125.553 3.58929 128.685C26.2056 141.545 40.8018 161.411 44.1987 183.387C38.3251 177.714 30.3926 173.889 20.4786 172.353C16.6311 171.714 12.5347 171.483 8.18419 171.575C5.2335 171.65 2.15579 171.887 -1.01592 172.266C-0.958761 172.365 -0.849541 172.478 -0.792378 172.577C-0.882564 172.497 -0.958774 172.365 -1.04896 172.285C-8.33742 173.237 -15.8304 175.055 -23.2776 177.638C-31.7308 180.539 -40.1282 184.375 -48.3616 188.952C-53.5987 191.932 -58.8014 195.2 -63.8327 198.765C-83.5665 212.71 -100.914 230.866 -112.089 250.255C-114.46 254.308 -116.519 258.445 -118.318 262.651C-118.884 264.034 -119.432 265.451 -119.965 266.815C-122.837 274.501 -124.433 281.803 -124.784 288.518C-125.274 296.897 -123.872 304.36 -120.762 310.661C-119.933 312.25 -119.018 313.835 -118.01 315.276C-117.691 315.752 -117.339 316.209 -116.987 316.666L-109.292 325.952L-109.054 326.211C-108.907 326.39 -108.741 326.602 -108.612 326.748C-108.446 326.96 -108.28 327.172 -108.132 327.351C-105.039 330.801 -101.14 334.886 -97.9665 338.246C-99.2546 336.702 -100.397 335.029 -101.326 333.19C-104.32 327.394 -105.528 320.039 -104.675 311.45C-104.133 305.372 -102.5 298.666 -99.8585 291.42C-99.2132 289.64 -98.488 287.769 -97.6916 285.945C-96.5726 283.231 -95.2503 280.487 -93.876 277.758C-82.8102 255.968 -64.7861 234.561 -44.4731 217.729C-39.9017 213.902 -35.2108 210.357 -30.4196 207.063C-23.0677 202.027 -15.6281 197.599 -8.1517 194.075C-1.49202 190.89 5.18925 188.353 11.647 186.648C14.557 185.892 17.3401 185.297 20.0151 184.897C23.9426 184.302 27.6351 184.062 31.0596 184.197C40.0654 184.542 47.2231 187.406 52.2519 192.379L52.3091 192.478C52.3091 192.478 52.4895 192.637 52.5796 192.717C53.0877 193.216 53.6339 193.781 54.2322 194.359C54.2843 194.373 54.3033 194.406 54.3033 194.406C62.6623 172.199 61.8478 145.696 53.6711 120.627C49.3649 107.449 43.0696 94.7143 34.949 83.1659C28.0846 73.4883 19.9755 64.7054 10.7702 57.3034C-16.2475 36.8201 -41.8106 31.8219 -67.2731 41.9464C-67.5564 42.0659 -67.8396 42.1855 -68.1229 42.305C-68.222 42.3622 -68.354 42.4385 -68.4722 42.4627C-69.7462 43.1543 -71.0723 43.8319 -72.4975 44.5667C-72.8938 44.7955 -73.2431 44.9532 -73.5733 45.1439L-73.8375 45.2964C-76.1404 46.4939 -78.0419 47.5477 -79.7313 48.4351C-77.9619 47.4575 -75.9753 46.3986 -73.5924 45.1108C-73.5924 45.1108 -73.6254 45.1299 -73.6584 45.149C-75.9473 46.2944 -78.1321 47.4678 -80.1187 48.5268C-83.1621 50.1959 -86.9308 52.5917 -90.105 54.6444L-90.0046 54.8945Z" fill="#852DF4"/><path d="M212.365 90.0369C207.689 93.8364 202.762 98.5732 197.62 104.006C191.452 110.559 184.991 118.206 178.617 126.462C173.913 132.654 169.192 139.12 164.623 145.85C155.298 159.595 146.42 174.268 138.974 188.6C135.944 194.486 133.144 200.238 130.595 205.89C129.977 207.26 129.377 208.662 128.791 210.012C125.447 217.795 122.96 224.775 121.235 230.787L120.928 231.933L120.407 231.794C121.955 232.264 122.977 234.49 123.372 238.53C123.541 240.501 123.598 242.888 123.491 245.678C123.405 247.664 123.263 249.858 123.013 252.246L123.032 252.279C122.159 260.836 120.381 271.103 117.903 282.522C111.467 312.331 100.191 349.467 88.0605 380.32C86.4461 384.464 84.7415 388.528 83.1449 392.398C78.0959 404.246 73.5093 413.538 69.5781 420.076C67.7274 423.125 65.9974 425.62 64.4351 427.49C62.1107 430.328 60.0923 431.713 58.6023 431.649C58.5172 431.655 58.4842 431.674 58.3991 431.679L57.9304 431.553C58.2099 431.656 58.4182 431.712 58.6976 431.814L62.5565 432.931L67.7225 434.48C68.3995 434.662 69.0626 434.895 69.7726 435.057C69.7726 435.057 69.7963 435.072 69.8438 435.104C71.3541 435.508 72.8643 435.912 74.3556 436.283C77.4613 437.086 80.652 437.884 83.5113 438.565C84.2544 438.708 84.9835 438.904 85.6935 439.066C85.9539 439.135 86.2143 439.205 86.5077 439.256C86.664 439.297 86.8532 439.32 86.9904 439.329C87.0615 439.376 87.1466 439.371 87.2508 439.399C90.7045 439.737 94.7006 437.43 99.0218 432.559C101.408 429.905 103.901 426.442 106.437 422.293C109.809 416.694 113.309 409.789 116.812 401.518C121.458 390.651 125.702 378.477 129.352 365.809C134.696 347.455 138.867 328.062 141.454 309.891C144.304 290.116 145.221 271.722 143.726 257.845L143.707 257.812C143.402 254.995 143.032 252.525 142.569 250.196C141.893 246.89 141.011 244.143 139.971 241.883C138.205 238.063 135.993 235.908 133.427 235.277L133.408 235.244C133.408 235.244 133.062 235.18 132.958 235.152C132.698 235.082 132.489 235.026 132.229 234.957L130.425 234.502L128.517 234.019C129.796 228.837 131.693 223.122 134.225 216.907C134.553 216.102 134.914 215.278 135.289 214.401C137.148 210.071 139.258 205.641 141.505 201.22C151.694 181.344 165.953 160.967 181.288 143.445C185.077 139.101 188.948 134.974 192.828 131.018C199.483 124.316 206.277 118.237 212.872 113.109C218.533 108.653 224.169 104.915 229.543 101.944C231.709 100.738 233.819 99.7396 235.835 98.8838C239.163 97.4024 242.214 96.433 244.983 95.8903C250.298 94.8013 254.665 95.2722 257.908 97.2281C257.999 97.3081 258.141 97.4019 258.264 97.4628C258.819 97.8904 259.445 98.3649 260.019 98.8254C259.73 98.5526 259.369 98.2329 259.079 97.96L254.843 94.8175L254.824 94.7845C254.824 94.7845 254.791 94.8036 254.772 94.7706C249.773 91.1447 243.223 86.7415 237.656 83.0475C236.712 82.4043 235.892 81.822 235.038 81.2588C234.72 81.0901 234.455 80.9353 234.104 80.7857C231.845 79.8463 228.824 80.1821 225.01 81.8123C222.829 82.7635 220.385 84.1744 217.645 86.0643C215.99 87.2399 214.241 88.5577 212.398 90.0178L212.365 90.0369Z" fill="#852DF4"/><path d="M195.548 152.813C176.251 169.498 159.047 190.344 148.026 211.448C146.309 214.727 144.715 218.068 143.324 221.379C143.381 221.478 143.452 221.525 143.542 221.605C143.599 221.704 143.671 221.751 143.761 221.83C143.632 221.685 143.452 221.525 143.291 221.398C142.569 223.046 141.933 224.69 141.344 226.262C140.048 229.738 138.984 233.081 138.15 236.29C138.756 236.424 139.343 236.526 139.897 236.646C139.93 236.627 140.001 236.674 140.053 236.688C140.157 236.716 140.242 236.71 140.347 236.738C140.347 236.738 140.451 236.766 140.484 236.747C140.536 236.761 140.64 236.789 140.725 236.784C140.777 236.798 140.829 236.812 140.914 236.807C140.914 236.807 140.947 236.787 140.999 236.801C142.069 236.976 143.276 237.159 144.43 237.329C144.999 235.416 145.634 233.465 146.369 231.457C146.958 229.885 147.58 228.294 148.269 226.664C148.173 226.499 147.993 226.339 147.865 226.193C147.903 226.259 147.941 226.325 147.993 226.339C148.05 226.438 148.16 226.551 148.25 226.631C149.795 223.055 151.511 219.468 153.488 215.95C164.692 195.621 182.522 176.394 202.858 161.661C207.427 158.363 212.077 155.283 216.827 152.452C225.093 147.548 233.56 143.451 242.05 140.31C249.454 137.575 256.8 135.578 264.026 134.442C263.859 134.23 263.712 134.052 263.513 133.859C263.679 134.071 263.878 134.263 264.026 134.442C267.055 133.969 269.958 133.658 272.752 133.54C277.419 133.31 281.785 133.474 285.835 134.083C295.64 135.507 303.507 139.37 309.078 145.13L309.558 145.732C310.461 146.839 311.397 147.927 312.281 149C311.815 148.345 311.349 147.691 310.817 147.074L310.76 146.975L306.72 142.267C306.644 142.135 306.502 142.041 306.393 141.928C306.354 141.862 306.316 141.796 306.245 141.749C306.169 141.617 306.079 141.537 305.97 141.424C305.475 140.873 304.962 140.289 304.397 139.692C302.986 138.086 301.575 136.481 300.149 134.928C298.396 133.036 296.591 131.129 294.939 129.487C294.559 129.135 294.212 128.763 293.852 128.443C293.163 127.785 292.546 127.173 291.876 126.547C291.748 126.401 291.587 126.275 291.458 126.129C290.77 125.47 290.043 124.745 289.336 124.054C289.084 123.847 288.885 123.654 288.633 123.447C288.614 123.414 288.543 123.367 288.491 123.353C283.846 119.655 277.675 117.585 270.065 117.447C266.49 117.355 262.599 117.709 258.426 118.49C256.012 118.96 253.451 119.559 250.848 120.313C251.048 120.506 251.247 120.699 251.395 120.878C251.195 120.685 250.996 120.492 250.815 120.332C244.368 122.207 237.782 124.909 231.118 128.316C223.445 132.262 215.671 137.102 208.114 142.698C203.842 145.824 199.638 149.22 195.496 152.799L195.548 152.813Z" fill="#852DF4"/><path d="M278.598 155.335C270.175 155.313 261.709 156.285 253.176 158.131C242.365 160.457 231.636 164.143 221.37 169.014C214.262 172.414 207.355 176.314 200.832 180.652C186.264 190.427 173.56 202.514 164.195 215.885C160.777 220.719 157.813 225.73 155.352 230.847C154.794 232.093 154.231 233.254 153.74 234.462C153.201 235.741 152.696 237.001 152.242 238.275C151.845 238.196 151.433 238.17 151.074 238.157L150.284 238.086C153.482 238.439 156.599 239.72 159.522 242.036C160.993 243.211 162.427 244.627 163.857 246.266C163.971 246.464 164.081 246.577 164.209 246.723C165.578 248.484 166.906 250.402 168.168 252.665C169.845 255.569 171.377 258.909 172.764 262.684C186.567 299.862 182.55 365.589 163.919 409.435C163.244 411.012 162.598 412.486 161.899 413.945C158.566 421.062 155.044 427.011 151.451 431.77C144.212 441.274 136.614 446.189 129.406 446.214C129.118 446.248 128.792 446.216 128.465 446.185L136.816 446.996L137.279 447.037C137.279 447.037 137.383 447.064 137.501 447.04C137.587 447.035 137.724 447.044 137.88 447.086C139.356 447.202 140.931 447.26 142.577 447.366C144.635 447.498 146.863 447.62 149.058 447.76C151.456 447.872 153.849 447.898 156.242 447.925C156.379 447.934 156.497 447.909 156.621 447.97L157.013 447.964C157.013 447.964 157.15 447.973 157.269 447.948C157.354 447.943 157.524 447.933 157.628 447.961C157.68 447.975 157.713 447.956 157.732 447.989C157.935 447.959 158.054 447.935 158.243 447.958C158.262 447.991 158.295 447.972 158.295 447.972C158.805 447.941 159.25 447.948 159.742 447.885C170.942 447.226 182.092 438.853 191.216 423.157C193.291 419.582 195.195 415.711 197.055 411.381C199.228 406.298 201.112 400.942 202.725 395.347C215.085 352.613 211.582 297.124 193.161 263.845C190.478 258.969 187.619 254.856 184.611 251.4C179.974 246.113 175.026 242.501 169.953 240.502C169.901 240.488 169.849 240.474 169.758 240.394C195.416 214.668 240.166 209.425 281.411 230.451C286.553 233.026 291.427 235.977 296.023 239.132C303.507 244.315 310.28 250.173 316.298 256.555C343.407 285.434 354.126 324.744 340.361 357.113C338.876 360.566 337.159 363.846 335.242 366.932C336.309 365.348 337.197 363.912 338.043 362.631C340.039 359.454 341.561 356.904 343.035 354.117C344.921 350.52 346.787 346.582 349.59 340.608C349.604 340.556 349.637 340.537 349.651 340.485C349.679 340.38 349.759 340.29 349.782 340.101C350.226 338.964 350.765 337.685 351.251 336.392C351.546 335.606 351.855 334.768 352.097 333.968C362.952 301.211 349.05 264.091 319.001 238.89C313.282 234.095 306.96 229.781 300.153 225.922C296.039 223.677 291.779 221.561 287.311 219.696C287.269 219.852 287.161 220.046 287.053 220.241C286.294 218.391 282.714 218.522 280.862 217.831L276.363 216.292C275.875 216.134 275.369 215.942 274.848 215.803C274.029 215.528 273.214 215.338 272.362 215.082C272.239 215.021 272.03 214.965 271.874 214.924C271.093 214.715 270.345 214.487 269.564 214.278L268.887 214.096C268.3 213.995 267.708 213.809 267.187 213.67C266.875 213.586 266.529 213.521 266.288 213.485C265.819 213.359 265.284 213.272 264.797 213.114C264.451 213.049 264.139 212.965 263.812 212.934C263.363 212.842 262.894 212.716 262.378 212.662C262.066 212.578 261.72 212.514 261.394 212.482C260.944 212.39 260.428 212.335 259.979 212.243C259.633 212.178 259.321 212.095 258.994 212.063C258.89 212.035 258.772 212.06 258.616 212.018C258.251 211.92 257.873 211.875 257.546 211.843C257.22 211.812 256.926 211.761 256.6 211.73C256.098 211.623 255.582 211.569 255.067 211.515C254.773 211.464 254.499 211.447 254.239 211.377C253.586 211.314 252.914 211.218 252.261 211.155C252.157 211.127 251.967 211.104 251.882 211.109C251.196 211.065 250.524 210.969 249.839 210.925C249.734 210.897 249.578 210.855 249.493 210.861C249.271 210.857 249.029 210.82 248.807 210.816C248.585 210.813 248.396 210.79 248.173 210.786C248.121 210.772 248.036 210.778 247.88 210.736C247.743 210.727 247.553 210.704 247.435 210.728C247.331 210.701 247.213 210.725 247.142 210.678C246.815 210.646 246.508 210.648 246.234 210.63C245.855 210.585 245.477 210.539 245.136 210.56C245.051 210.565 244.933 210.589 244.81 210.528C244.81 210.528 244.777 210.547 244.758 210.514C244.64 210.538 244.469 210.549 244.313 210.507C244.176 210.498 243.987 210.475 243.85 210.467C243.386 210.426 242.908 210.438 242.445 210.398C242.36 210.403 242.189 210.413 242.085 210.385C242.085 210.385 242.033 210.371 242 210.39C241.863 210.382 241.641 210.378 241.47 210.388C241.007 210.348 240.529 210.36 240.104 210.385C239.777 210.354 239.489 210.388 239.162 210.357C239.077 210.362 238.94 210.353 238.803 210.344C238.751 210.33 238.666 210.335 238.6 210.373C238.463 210.365 238.273 210.342 238.07 210.371C237.985 210.376 237.815 210.387 237.678 210.378C237.351 210.346 237.063 210.381 236.755 210.382C236.618 210.373 236.5 210.398 236.344 210.356C236.259 210.361 236.108 210.404 236.022 210.409C235.8 210.406 235.611 210.383 235.408 210.412C235.356 210.398 235.323 210.417 235.27 210.403C235.001 210.471 234.727 210.453 234.505 210.45C234.419 210.455 234.268 210.498 234.145 210.437C233.857 210.472 233.549 210.473 233.261 210.508C233.058 210.537 232.835 210.533 232.613 210.53C232.547 210.568 232.495 210.554 232.377 210.578C232.344 210.597 232.292 210.583 232.24 210.569C232.155 210.574 232.037 210.598 231.951 210.604C231.63 210.657 231.29 210.678 231.001 210.712C230.68 210.766 230.32 210.753 229.98 210.774C229.98 210.774 229.928 210.76 229.895 210.779C229.81 210.784 229.758 210.77 229.659 210.827C229.37 210.862 229.063 210.863 228.775 210.898C228.657 210.922 228.505 210.965 228.382 210.904C228.165 210.986 227.929 211.034 227.72 210.978C227.687 210.997 227.602 211.003 227.536 211.041C227.451 211.046 227.418 211.065 227.333 211.07C227.215 211.094 227.097 211.118 227.012 211.123C226.874 211.115 226.723 211.158 226.586 211.149C226.194 211.156 225.872 211.209 225.466 211.268C225.348 211.292 225.144 211.321 224.974 211.332C224.771 211.361 224.653 211.385 224.483 211.396C224.431 211.382 224.378 211.368 224.345 211.387C224.312 211.406 224.279 211.425 224.227 211.411C224.142 211.416 223.991 211.459 223.906 211.464C223.703 211.494 223.552 211.537 223.348 211.566C223.296 211.552 223.263 211.572 223.23 211.591C223.093 211.582 222.871 211.578 222.686 211.64C222.502 211.703 222.365 211.694 222.162 211.723C221.893 211.791 221.585 211.792 221.283 211.879C221.146 211.87 220.962 211.932 220.758 211.962C220.64 211.986 220.503 211.977 220.366 211.968C220.248 211.992 220.149 212.05 220.031 212.074C219.709 212.127 219.388 212.181 219.066 212.234C218.797 212.302 218.509 212.336 218.206 212.423C218.206 212.423 218.178 212.425 218.121 212.428C217.564 212.53 216.973 212.651 216.435 212.786C216.165 212.853 215.915 212.954 215.627 212.988C215.542 212.993 215.49 212.98 215.423 213.018C214.937 213.167 214.497 213.244 214.044 213.374C213.926 213.398 213.775 213.442 213.657 213.466C213.538 213.49 213.439 213.547 213.321 213.571C212.731 213.692 212.107 213.832 211.535 213.986C211.233 214.073 210.945 214.107 210.694 214.208C209.92 214.391 209.249 214.602 208.545 214.833C208.158 214.924 207.737 215.035 207.388 215.193C206.679 215.338 205.995 215.601 205.343 215.845C205.06 215.965 204.758 216.051 204.455 216.138C204.422 216.157 204.389 216.176 204.271 216.2C203.955 216.339 203.619 216.445 203.251 216.569C202.561 216.747 201.863 217.063 201.197 217.359C201.079 217.383 200.947 217.459 200.848 217.517C200.413 217.679 200.064 217.837 199.63 218C199.564 218.038 199.432 218.114 199.346 218.119C199.247 218.177 199.096 218.22 198.997 218.277C198.714 218.397 198.398 218.535 198.048 218.693L196.736 219.318C196.736 219.318 196.519 219.4 196.42 219.457C196.42 219.457 196.17 219.558 196.071 219.615C196.005 219.653 195.905 219.71 195.853 219.696L195.457 219.925C195.457 219.925 195.174 220.045 195.009 220.14C194.792 220.221 194.659 220.298 194.461 220.412C194.362 220.469 194.211 220.512 194.046 220.608L193.716 220.798C193.498 220.88 193.3 220.994 193.168 221.07L192.97 221.185C192.97 221.185 192.687 221.304 192.555 221.381L191.96 221.724C191.96 221.724 191.644 221.862 191.479 221.958L190.983 222.244L190.719 222.396C190.521 222.511 190.271 222.611 190.04 222.745L188.157 223.832C188.157 223.832 187.893 223.984 187.747 224.112L186.558 224.799C186.558 224.799 186.379 224.946 186.313 224.984L186.016 225.156C185.818 225.27 185.605 225.437 185.374 225.57L185.176 225.685C185.176 225.685 185.11 225.723 185.096 225.775C185.096 225.775 184.997 225.832 184.898 225.889L184.502 226.118C184.502 226.118 184.336 226.213 184.289 226.285C184.091 226.399 183.959 226.475 183.78 226.623C183.582 226.737 183.45 226.813 183.271 226.961C183.106 227.056 182.974 227.132 182.794 227.28L182.629 227.375C182.629 227.375 182.483 227.503 182.417 227.542L182.186 227.675C182.186 227.675 182.106 227.765 181.974 227.842C181.908 227.88 181.809 227.937 181.762 228.008L181.696 228.046C181.517 228.194 181.285 228.327 181.139 228.455L180.941 228.57C180.729 228.736 180.517 228.903 180.305 229.069L180.041 229.222C180.041 229.222 179.829 229.388 179.749 229.478C179.649 229.536 179.55 229.593 179.47 229.683C179.404 229.721 179.305 229.778 179.258 229.849C179.06 229.964 178.848 230.13 178.702 230.259C178.669 230.278 178.603 230.316 178.556 230.387C178.311 230.573 178.098 230.739 177.853 230.925C177.853 230.925 177.707 231.053 177.641 231.091L177.575 231.129C177.575 231.129 177.283 231.386 177.104 231.533C176.826 231.738 176.567 231.975 176.294 232.265C176.194 232.322 176.081 232.432 175.982 232.489C175.935 232.56 175.803 232.636 175.756 232.707C175.657 232.765 175.544 232.874 175.445 232.931C175.219 233.15 175.007 233.316 174.8 233.568C174.654 233.696 174.555 233.753 174.409 233.881C174.329 233.972 174.216 234.081 174.069 234.209C173.923 234.338 173.81 234.447 173.664 234.575C173.565 234.632 173.485 234.723 173.405 234.813C173.339 234.851 173.226 234.96 173.16 234.998C172.967 235.198 172.755 235.364 172.581 235.597C172.355 235.815 172.148 236.067 171.922 236.285C171.889 236.304 171.855 236.324 171.842 236.376C171.742 236.433 171.596 236.561 171.483 236.67C171.469 236.722 171.403 236.761 171.403 236.761C171.37 236.78 171.337 236.799 171.323 236.851L171.342 236.884C171.342 236.884 171.177 236.979 171.163 237.031C170.791 237.378 170.504 237.72 170.17 238.133L169.338 238.217L166.137 238.393C183.353 213.756 214.924 198.653 249.248 197.317C263.069 196.774 277.316 198.493 291.251 202.724C291.232 202.691 291.246 202.639 291.26 202.587C291.279 202.62 291.265 202.672 291.251 202.724C295.276 204.053 299.104 205.495 302.818 207.047C309.284 209.782 315.261 212.888 320.695 216.351C347.589 233.341 362.25 258.582 361.86 288.641C361.837 288.831 361.866 289.034 361.843 289.223C361.861 288.949 361.879 288.674 361.896 288.4C361.978 287.473 362.045 286.598 362.112 285.723C362.158 285.345 362.152 284.953 362.178 284.541C362.201 284.352 362.191 284.182 362.195 283.96C362.207 283.6 362.22 283.241 362.233 282.882C362.298 281.392 362.315 279.974 362.319 278.607C362.342 278.418 362.313 278.215 362.336 278.026C362.329 276.49 362.308 274.698 362.286 272.906C362.267 272.873 362.295 272.769 362.276 272.736C362.233 271.441 362.19 270.146 362.113 268.87C362.018 266.417 361.867 264.172 361.581 261.389C361.404 259.863 361.237 258.199 361.016 256.215C360.992 256.097 361 255.96 360.957 255.809C360.995 255.875 360.967 255.979 360.986 256.012C361.177 257.486 361.302 258.998 361.374 260.496C360.948 257.09 360.455 253.414 359.935 249.843C355.453 229.725 341.352 211.861 320.16 200.247C314.562 197.186 308.493 194.53 301.944 192.415C298.373 191.264 294.689 190.223 290.865 189.395C290.903 189.461 290.875 189.565 290.88 189.65C290.842 189.584 290.87 189.48 290.865 189.395C278.714 186.729 266.348 185.904 254.255 186.77C233.656 188.234 213.871 194.465 197.247 204.415C193.256 206.807 189.464 209.392 185.891 212.203C176.392 219.623 168.465 228.468 162.671 238.414C161.971 238.422 161.304 238.411 160.637 238.4C160.566 238.353 160.5 238.391 160.415 238.397C160.088 238.365 159.781 238.367 159.474 238.368L157.023 238.243C158.48 234.893 160.263 231.576 162.194 228.437C167.699 219.362 174.853 211.008 183.259 203.602C184.739 202.352 186.186 201.121 187.698 199.851C197.526 191.933 208.796 185.294 220.825 180.197C232.392 175.367 244.64 171.948 257.062 170.277C266.586 169.002 276.223 168.763 285.676 169.729C289.371 170.104 292.939 170.64 296.328 171.324C302.206 172.506 307.685 174.139 312.711 176.21C329.902 183.181 342.383 194.808 348.657 209.183C347.482 206.385 346.288 203.554 345.104 200.894L345.047 200.795C344.928 200.512 344.827 200.262 344.694 200.031C344.436 199.431 344.126 198.818 343.92 198.233C343.749 197.936 343.61 197.62 343.42 197.29C343.21 196.927 343.015 196.512 342.819 196.097C343.048 196.493 343.243 196.908 343.42 197.29C342.738 195.88 342.037 194.436 341.316 192.96C340.444 191.22 339.59 189.513 338.766 188.008C338.728 187.942 338.671 187.843 338.632 187.777C338.48 187.513 338.347 187.282 338.194 187.018C338.08 186.82 337.966 186.622 337.851 186.424C337.718 186.193 337.604 185.995 337.47 185.764C337.203 185.302 336.918 184.807 336.67 184.378C336.479 184.048 336.289 183.718 336.098 183.388C336.022 183.256 335.927 183.091 335.851 182.959C335.851 182.959 335.812 182.893 335.793 182.86L335.222 181.87C334.707 180.979 334.179 180.14 333.618 179.32C327.066 169.726 316.811 162.49 303.553 158.44C298.979 157.077 294.032 156.06 288.719 155.476C285.436 155.127 282.011 154.992 278.487 154.914L278.598 155.335Z" fill="#852DF4"/><path d="M335.059 367.302C335.059 367.302 335.153 367.16 335.167 367.108C335.059 367.302 334.899 367.483 334.791 367.677C334.885 367.535 334.965 367.445 335.059 367.302Z" fill="#852DF4"/><path d="M-2.861 28.4315C8.80467 31.5528 20.6431 38.7106 31.6433 50.1366C31.7094 50.0985 31.7945 50.0934 31.9126 50.0692C31.8465 50.1073 31.7614 50.1124 31.6433 50.1366C45.5548 64.546 55.981 83.5198 62.3412 103.917C67.2254 119.622 69.7012 136.19 69.441 152.137C69.1732 167.384 66.4488 182.114 60.9502 195.013C60.9502 195.013 60.9832 194.994 61.0162 194.975C61.0162 194.975 60.9832 194.994 60.9502 195.013C60.3977 196.344 59.807 197.609 59.1834 198.893C59.9049 199.533 60.7496 200.233 61.7746 201.093C62.2777 201.507 62.8137 201.902 63.3878 202.362C64.8524 199.713 66.2216 196.898 67.5095 193.866C67.3914 193.89 67.2543 193.882 67.1361 193.906C67.2543 193.882 67.3724 193.857 67.5095 193.866C70.2353 187.452 72.401 180.526 74.0026 173.308C76.5416 161.766 77.7012 149.436 77.4698 136.985C76.9029 104.046 66.9491 70.103 49.1049 47.0516C43.4231 39.7273 37.3794 34.0642 31.1578 29.9998C23.5848 25.0436 15.7475 22.5281 8.11864 22.3564C7.89635 22.3527 7.70709 22.3299 7.50385 22.3593C6.69981 22.3395 5.88179 22.3717 5.11586 22.4179C4.89356 22.4143 4.69032 22.4436 4.46803 22.4399C4.00949 22.4847 3.55096 22.5294 3.09242 22.5741C3.09242 22.5741 3.02636 22.6122 2.97429 22.5983C1.11216 22.8814 -0.901129 23.2077 -2.96649 23.5201C-3.32088 23.5927 -3.69433 23.6323 -4.04872 23.7049C-10.443 24.7564 -17.4558 26.0332 -23.5655 27.2725C-23.6315 27.3106 -23.7166 27.3157 -23.8017 27.3209C-23.8017 27.3209 -23.7357 27.2827 -23.6836 27.2966C-16.935 26.1725 -9.89165 26.5503 -2.78987 28.4784L-2.861 28.4315Z" fill="#852DF4"/><path d="M309.325 285.662C303.406 275.791 296.122 266.532 287.623 258.37C281.897 252.875 275.671 247.889 268.919 243.515C235.844 221.997 199.657 221.021 174.651 237.657C173.864 238.2 173.024 238.729 172.308 239.318C172.883 238.942 173.478 238.599 174.482 237.975L174.548 237.937C183.281 237.427 192.324 239.819 201.157 245.28C207.667 249.31 214.056 255.037 220.064 262.393L220.083 262.426C237.78 284.154 248.201 315.628 250.119 346.863C251.069 361.627 250.033 376.306 246.897 389.865C245.416 396.529 243.357 402.954 240.828 408.946C232.107 429.382 218.925 441.481 204.212 444.827C203.976 444.875 203.725 444.976 203.503 444.972C203.47 444.991 203.418 444.977 203.385 444.996C203.352 445.015 203.3 445.001 203.267 445.02C202.388 445.176 201.542 445.312 200.677 445.416C201.306 445.361 201.948 445.254 202.577 445.199C203.882 445.018 205.2 444.784 206.471 444.622C206.557 444.617 206.656 444.56 206.741 444.555C206.826 444.55 206.944 444.525 207.01 444.487C208.158 444.264 209.326 444.075 210.526 443.866C211.49 443.705 212.501 443.473 213.55 443.307C214.41 443.119 215.256 442.983 216.017 442.851C220.138 442.056 225.391 440.783 229.662 439.638C230.096 439.475 230.536 439.397 230.937 439.254C231.022 439.248 231.154 439.172 231.239 439.167L231.305 439.129C231.305 439.129 231.39 439.124 231.423 439.105C261.832 428.853 276.971 394.899 276.189 356.629C275.863 340.888 272.882 324.436 267.117 308.579C260.592 290.565 250.613 273.357 237.075 258.908L237.056 258.875C221.642 243.617 207.336 238.06 196.188 236.444C186.558 235.095 179.253 236.629 175.407 237.441C182.41 233.706 193.002 230.011 206.734 230.839C220.533 231.629 237.452 236.909 257.156 251.055L257.175 251.088C265.83 258.147 273.373 266.025 279.82 274.447C288.764 286.049 295.565 298.667 300.314 311.546C315.898 353.943 308.202 399.265 275.061 421.259C274.486 421.635 273.825 422.016 273.184 422.431L273.911 422.011C274.109 421.897 274.326 421.815 274.491 421.72L274.821 421.529C275.336 421.276 275.831 420.99 276.326 420.704L277.785 419.95C278.016 419.817 278.195 419.67 278.36 419.574C279.139 419.169 279.898 418.73 280.658 418.292C281.861 417.553 283.097 416.796 284.294 415.972C284.606 415.748 285.002 415.52 285.332 415.329C285.776 415.029 286.205 414.781 286.582 414.519L287.111 414.214C287.375 414.062 287.639 413.909 287.884 413.724L288.148 413.571C288.592 413.271 289.021 413.023 289.431 412.742C289.874 412.442 290.351 412.123 290.86 411.785L290.926 411.747C291.204 411.543 291.483 411.338 291.78 411.166C292.091 410.943 292.435 410.7 292.746 410.476C293.058 410.253 293.435 409.991 293.746 409.767C294.123 409.505 294.468 409.263 294.845 409.001C294.878 408.982 294.925 408.911 295.024 408.853C295.467 408.553 295.891 408.221 296.316 407.888C296.627 407.664 297.004 407.402 297.277 407.112L297.442 407.017L297.423 406.984C297.734 406.76 297.98 406.575 298.291 406.351C298.456 406.256 298.536 406.166 298.701 406.07L298.8 406.013L299.663 405.295L299.729 405.257C299.729 405.257 299.809 405.167 299.875 405.129C308.388 398.366 315.317 389.393 320.071 378.332C332.037 350.17 326.875 315.22 309.245 285.753L309.325 285.662Z" fill="#852DF4"/><path d="M-142.647 276.874C-142.767 276.591 -142.886 276.308 -143.005 276.025C-146.029 268.882 -147.277 260.846 -146.698 252.239C-146.171 244.763 -144.303 236.864 -140.794 228.678C-140.359 227.678 -139.843 226.589 -139.374 225.57C-136.862 220.159 -133.744 214.883 -130.133 209.85C-120.404 196.268 -107.208 184.117 -92.0343 174.477C-85.978 170.628 -79.6079 167.17 -73.0562 164.18C-62.8793 159.536 -52.2248 156.025 -41.475 153.823C-32.5963 152.041 -23.6286 151.176 -14.8171 151.413C-11.2796 151.438 -7.86398 151.71 -4.57539 152.144C0.416544 152.782 5.17351 153.776 9.61038 155.13C25.2556 159.958 36.9226 169.107 43.4796 181.074C43.4796 181.074 43.6041 181.443 43.6994 181.608L43.4987 181.107L43.8417 181.701C43.7083 181.47 43.5368 181.173 43.4555 180.956C37.5475 164.698 24.1555 151.265 5.2064 143.46C0.31732 141.399 -4.97186 139.788 -10.5481 138.519C-14.0082 137.789 -17.5622 137.201 -21.3335 136.694L-21.3525 136.661C-31.4635 135.546 -41.7064 135.651 -51.8783 136.948C-64.9144 138.622 -77.7016 142.176 -89.6733 147.372C-112.39 157.143 -132.084 172.606 -144.316 191.461C-147.084 195.743 -149.482 200.208 -151.43 204.765C-154.114 211.023 -155.796 217.186 -156.632 223.213C-157.926 232.716 -157.028 241.746 -154.203 250.148C-154.178 250.266 -154.116 250.45 -154.054 250.634L-153.108 253.036C-152.376 254.989 -151.691 257.014 -150.927 258.949C-150.511 259.897 -150.148 260.832 -149.79 261.681C-149.575 262.129 -149.341 262.61 -149.127 263.058C-148.014 265.672 -146.835 268.247 -145.637 270.856C-145.423 271.304 -145.156 271.766 -144.96 272.181C-144.626 272.912 -144.259 273.624 -143.906 274.389C-143.811 274.554 -143.748 274.738 -143.653 274.903L-143.405 275.332C-143.096 275.945 -142.747 276.624 -142.399 277.303C-142.128 277.85 -141.785 278.444 -141.475 279.057C-140.941 279.981 -140.403 280.99 -139.85 281.948C-140.293 281.103 -140.775 280.193 -141.275 279.25C-141.68 278.472 -142.143 277.595 -142.567 276.784L-142.647 276.874Z" fill="#852DF4"/></g><defs><filter id="filter0_d_283_11069" x="-194.573" y="-9.29419" width="586.909" height="487.283" filterUnits="userSpaceOnUse" color-interpolation-filters="sRGB"><feFlood flood-opacity="0" result="BackgroundImageFix"/><feColorMatrix in="SourceAlpha" type="matrix" values="0 0 0 0 0 0 0 0 0 0 0 0 0 0 0 0 0 0 127 0" result="hardAlpha"/><feOffset/><feGaussianBlur stdDeviation="15"/><feComposite in2="hardAlpha" operator="out"/><feColorMatrix type="matrix" values="0 0 0 0 0.54902 0 0 0 0 0.203922 0 0 0 0 0.988235 0 0 0 1 0"/><feBlend mode="normal" in2="BackgroundImageFix" result="effect1_dropShadow_283_11069"/><feBlend mode="normal" in="SourceGraphic" in2="effect1_dropShadow_283_11069" result="shape"/></filter></defs></svg>