<svg width="65" height="40" viewBox="0 0 65 40" fill="none" xmlns="http://www.w3.org/2000/svg">
<path d="M64.56 0H0V40H64.56V0Z" fill="#B59959"/>
<path d="M21.7365 32.3126H22.9683L24.7123 37.4958H23.4542L23.1717 36.5617H21.4804L21.2016 37.4958H20L21.7365 32.3126ZM22.8892 35.6388L22.5238 34.3845C22.441 34.1169 22.3355 33.6536 22.3355 33.6536H22.3204C22.3204 33.6536 22.2037 34.1169 22.1245 34.3845L21.7516 35.6388H22.8854H22.8892Z" fill="black"/>
<path d="M25.0586 32.3126H28.6559V33.3937H26.2565V34.4447H28.2642V35.4805H26.2565V37.4958H25.0586V32.3126Z" fill="black"/>
<path d="M29.1426 32.3126H31.4554C32.4159 32.3126 33.1468 32.8437 33.1468 33.8044C33.1468 34.4071 32.868 34.8477 32.3066 35.0587V35.0813C32.7248 35.2319 32.9433 35.5144 33.0111 36.0305C33.1129 36.7124 33.045 37.364 33.2146 37.4281V37.4921H32.0506C31.9226 37.413 31.9413 36.8028 31.8697 36.2905C31.8095 35.812 31.5797 35.5522 31.0636 35.5522H30.3404V37.4958H29.1426V32.3126ZM31.2369 34.6029C31.7116 34.6029 31.9527 34.3655 31.9527 33.9738C31.9527 33.5821 31.7229 33.3297 31.2633 33.3297H30.3366V34.6066H31.2369V34.6029Z" fill="black"/>
<path d="M33.6963 32.3126H34.8941V37.4958H33.6963V32.3126Z" fill="black"/>
<path d="M35.373 34.9194C35.373 33.375 36.311 32.2073 37.7537 32.2073C38.315 32.2073 38.7897 32.3805 39.1323 32.6632C39.5505 33.0022 39.7954 33.5106 39.8556 34.0907H38.6578C38.5975 33.6274 38.2584 33.2734 37.7462 33.2734C36.9627 33.2734 36.5898 33.9777 36.5898 34.9194C36.5898 35.8611 37.0342 36.5581 37.7537 36.5581C38.2887 36.5581 38.639 36.1965 38.6917 35.6954H39.8895C39.8556 36.2115 39.6409 36.6823 39.3094 37.0214C38.9365 37.4056 38.443 37.6091 37.7613 37.6091C36.3411 37.6091 35.3769 36.4715 35.3769 34.9194H35.373Z" fill="black"/>
<path d="M41.5578 32.3126H42.7896L44.5338 37.4958H43.2755L42.993 36.5617H41.3017L41.0229 37.4958H39.8213L41.5578 32.3126ZM42.7143 35.6388L42.3489 34.3845C42.2661 34.1169 42.1605 33.6536 42.1605 33.6536H42.1455C42.1455 33.6536 42.0286 34.1169 41.9497 34.3845L41.5767 35.6388H42.7105H42.7143Z" fill="black"/>
<path d="M61.3205 3.27087H3.27051V29.8467H61.3205V3.27087Z" fill="black"/>
<path d="M57.0355 7.92175H51.6338L55.1124 17.4525H57.0355V7.92175Z" fill="#FF0000"/>
<path d="M36.4173 14.3982L33.7871 7.92175H30.959V17.4525H33.3346V11.9943L35.4557 17.4525H37.3788L39.4999 11.9943V17.4525H41.8755V7.92175H39.0474L36.4173 14.3982Z" fill="#B59959"/>
<path fill-rule="evenodd" clip-rule="evenodd" d="M50.0202 7.92175L53.5271 17.4525H51.0383L50.3596 15.5577H45.8629L45.2124 17.4525H42.7236L46.2305 7.92175H50.0202ZM49.6525 13.578L48.3799 9.98628H47.8425L46.5699 13.578H49.6525Z" fill="#B59959"/>
<path d="M16.3652 7.92175H18.7409V10.0146H16.3652V7.92175Z" fill="#B59959"/>
<path d="M16.3652 11.061H18.7409V17.4526H16.3652V11.061Z" fill="#B59959"/>
<path d="M29.4597 12.1356H24.7367V14.0021H27.1406V14.3415C26.2639 15.897 23.6903 16.0101 22.8702 14.3415C22.3894 13.4082 22.3045 12.277 22.7853 11.2589C23.5206 9.53371 26.2639 9.33574 27.1406 11.0609H29.4597C28.9506 8.0348 25.2175 7.29949 22.9267 8.20449C20.3814 9.10949 19.4481 12.277 20.3814 14.6526C21.0884 16.5192 22.955 17.5939 24.9347 17.5656C27.1123 17.5939 29.3466 16.1798 29.4597 14.0021V12.1356Z" fill="#B59959"/>
<path d="M12.8026 11.061C12.7743 10.0711 12.0107 9.81661 12.0107 9.81661C11.643 9.70349 11.2471 9.70349 10.8795 9.8449C10.7098 9.92031 10.5684 10.024 10.4552 10.156C10.2007 10.4105 10.2007 10.8913 10.4835 11.1176C10.6155 11.2495 10.7946 11.3627 11.0209 11.4569C11.2471 11.5512 11.4922 11.6455 11.7562 11.7397C12.1333 11.8529 12.5198 11.9848 12.9157 12.1357C13.3116 12.2677 13.6793 12.4373 14.0187 12.6447C14.358 12.871 14.6314 13.1444 14.8388 13.4649C15.2913 14.2002 15.2348 15.4163 14.754 16.1516C14.49 16.5853 14.0941 16.9246 13.5662 17.1697C12.548 17.6505 10.7946 17.7071 9.69164 17.2546C9.69164 17.2546 7.51398 16.689 7.54227 14.0022H9.86133V14.2285C9.86133 15.5577 11.0209 15.6426 11.3602 15.6426C11.7939 15.6426 12.1333 15.5577 12.3784 15.388C12.7743 15.1052 12.8309 14.4547 12.4915 14.1436C12.3595 14.0117 12.171 13.8985 11.9259 13.8043C11.6619 13.71 11.3697 13.6063 11.0491 13.4932C10.6721 13.3989 10.295 13.2858 9.91789 13.1538C9.55966 13.0218 9.22029 12.8521 8.89977 12.6447C8.19273 12.1922 7.82508 11.5418 7.85336 10.6368C7.85336 10.0334 8.00419 9.52437 8.30586 9.10958C8.62638 8.69479 9.0506 8.37427 9.57852 8.14802C10.5401 7.75208 12.0673 7.7238 13.0571 8.11974C13.5473 8.28943 13.9527 8.55338 14.2732 8.91161C14.2732 8.91161 14.9802 9.5338 15.0368 11.061H12.8026Z" fill="#B59959"/>
<path d="M18.9403 20.0087H20.2502L22.1047 25.1478H20.7668L20.4664 24.2226H18.668L18.3715 25.1478H17.0938L18.9403 20.0087ZM20.1699 23.3092L19.7815 22.0675C19.6933 21.8032 19.5812 21.3425 19.5812 21.3425H19.5651C19.5651 21.3425 19.445 21.8032 19.3568 22.0675L18.9603 23.3092H20.166H20.1699Z" fill="#B59959"/>
<path d="M21.6925 20.0087H22.9784L23.495 22.1637C23.6112 22.6603 23.7314 23.4374 23.7314 23.4374H23.7475C23.7475 23.4374 23.8836 22.7325 23.9998 22.2157L24.4805 20.0087H25.6582L26.1387 22.1998C26.2549 22.7245 26.3831 23.4374 26.3831 23.4374H26.3992C26.3992 23.4374 26.5433 22.6603 26.6596 22.1517L27.1682 20.0087H28.446L27.036 25.1478H25.7943L25.2535 22.6803C25.1614 22.2717 25.0733 21.7231 25.0733 21.7231H25.0572C25.0572 21.7231 24.9692 22.2678 24.885 22.6803L24.3442 25.1478H23.0946L21.6846 20.0087H21.6925Z" fill="#B59959"/>
<path d="M29.8719 20.0087H31.1817L33.0363 25.1478H31.6984L31.3981 24.2226H29.5995L29.3031 25.1478H28.0254L29.8719 20.0087ZM31.1016 23.3092L30.7131 22.0675C30.6249 21.8032 30.5128 21.3425 30.5128 21.3425H30.4967C30.4967 21.3425 30.3726 21.8032 30.2885 22.0675L29.8919 23.3092H31.0977H31.1016Z" fill="#B59959"/>
<path d="M33.4082 20.0088H35.8677C36.8891 20.0088 37.6661 20.5336 37.6661 21.4909C37.6661 22.0878 37.3698 22.5243 36.7729 22.7326V22.7526C37.2176 22.9048 37.4499 23.1852 37.522 23.6941C37.63 24.3709 37.5581 25.0158 37.7382 25.0798V25.144H36.5006C36.3643 25.0639 36.3845 24.4591 36.3083 23.9503C36.2443 23.4777 35.9999 23.2172 35.4511 23.2172H34.682V25.144H33.4082V20.0048V20.0088ZM35.6354 22.28C36.14 22.28 36.3963 22.0436 36.3963 21.6552C36.3963 21.2666 36.152 21.0143 35.6633 21.0143H34.678V22.28H35.6354Z" fill="#B59959"/>
<path d="M38.2472 20.0087H40.4383C41.8603 20.0087 42.8175 21.038 42.8175 22.6122C42.8175 23.5175 42.5012 24.2425 41.9243 24.6831C41.5239 24.9835 41.003 25.1518 40.3582 25.1518H38.2432V20.0127L38.2472 20.0087ZM40.2661 24.0783C41.0992 24.0783 41.5318 23.5535 41.5318 22.6122C41.5318 21.671 41.0792 21.0741 40.282 21.0741H39.5211V24.0783H40.27H40.2661Z" fill="#B59959"/>
<path d="M43.082 23.5341H44.3598C44.4158 24.0509 44.7563 24.2671 45.3651 24.2671C45.7818 24.2671 46.1902 24.1149 46.1902 23.7265C46.1902 23.3179 45.7737 23.2297 45.0688 23.0575C44.1755 22.8492 43.2341 22.5767 43.2341 21.4993C43.2341 20.4219 44.1275 19.9171 45.277 19.9171C46.4266 19.9171 47.2517 20.4219 47.3039 21.4993H46.062C46.01 21.1027 45.7097 20.8824 45.2369 20.8824C44.7924 20.8824 44.4959 21.0746 44.4959 21.3632C44.4959 21.7237 44.8925 21.8077 45.6616 21.98C46.6189 22.2042 47.4801 22.4967 47.4801 23.5983C47.4801 24.6998 46.5588 25.2726 45.3732 25.2726C44.0072 25.2726 43.11 24.6678 43.082 23.5341Z" fill="#B59959"/>
</svg>
